<?xml version="1.0" encoding="UTF-8" standalone="no"?>
<svg width="334px" height="226px" viewBox="0 0 334 226" version="1.1" xmlns="http://www.w3.org/2000/svg" xmlns:xlink="http://www.w3.org/1999/xlink">
    <!-- Generator: Sketch 41.2 (35397) - http://www.bohemiancoding.com/sketch -->
    <title>cascade-selector</title>
    <desc>Created with Sketch.</desc>
    <defs>
        <rect id="path-1" x="20" y="20" width="294" height="180"></rect>
        <mask id="mask-2" maskContentUnits="userSpaceOnUse" maskUnits="objectBoundingBox" x="0" y="0" width="294" height="180" fill="white">
            <use xlink:href="#path-1"></use>
        </mask>
        <rect id="path-3" x="20" y="20" width="294" height="28"></rect>
        <mask id="mask-4" maskContentUnits="userSpaceOnUse" maskUnits="objectBoundingBox" x="0" y="0" width="294" height="28" fill="white">
            <use xlink:href="#path-3"></use>
        </mask>
    </defs>
    <g id="Unified-Navigation" stroke="none" stroke-width="1" fill="none" fill-rule="evenodd">
        <g id="cascade-selector">
            <use id="Rectangle-2" stroke="#E0E0E0" mask="url(#mask-2)" stroke-width="2" xlink:href="#path-1"></use>
            <rect id="Rectangle-4" fill="#E7E7E7" x="21" y="82" width="72" height="28"></rect>
            <rect id="Rectangle-4-Copy" fill="#E7E7E7" x="94" y="112" width="69" height="28"></rect>
            <rect id="Rectangle-2-Copy-2" fill="#E0E0E0" x="93" y="20" width="1" height="180"></rect>
            <rect id="Rectangle-2-Copy-3" fill="#E0E0E0" x="163" y="20" width="1" height="180"></rect>
            <use id="Rectangle-2-Copy" stroke="#E0E0E0" mask="url(#mask-4)" stroke-width="2" xlink:href="#path-3"></use>
            <rect id="Rectangle-3" fill="#DDDDDD" x="31" y="28" width="52" height="12" rx="6"></rect>
            <rect id="Rectangle-3-Copy-3" fill="#DDDDDD" x="31" y="60" width="42" height="12" rx="6"></rect>
            <rect id="Rectangle-3-Copy" fill="#DDDDDD" x="104" y="28" width="32" height="12" rx="6"></rect>
            <rect id="Rectangle-3-Copy-4" fill="#DDDDDD" x="104" y="60" width="42" height="12" rx="6"></rect>
            <rect id="Rectangle-3-Copy-7" fill="#212121" x="31" y="90" width="22" height="12" rx="6"></rect>
            <rect id="Rectangle-3-Copy-6" fill="#DDDDDD" x="104" y="90" width="22" height="12" rx="6"></rect>
            <rect id="Rectangle-3-Copy-13" fill="#DDDDDD" x="31" y="118" width="32" height="12" rx="6"></rect>
            <rect id="Rectangle-3-Copy-12" fill="#212121" x="104" y="120" width="32" height="12" rx="6"></rect>
            <rect id="Rectangle-3-Copy-2" fill="#DDDDDD" x="174" y="28" width="72" height="12" rx="6"></rect>
            <rect id="Rectangle-3-Copy-8" fill="#DDDDDD" x="174" y="84" width="105" height="8" rx="4"></rect>
            <rect id="Rectangle-3-Copy-9" fill="#DDDDDD" x="174" y="96" width="105" height="8" rx="4"></rect>
            <rect id="Rectangle-3-Copy-10" fill="#DDDDDD" x="174" y="108" width="105" height="8" rx="4"></rect>
            <rect id="Rectangle-3-Copy-14" fill="#DDDDDD" x="174" y="60" width="105" height="12" rx="6"></rect>
            <rect id="Rectangle-3-Copy-11" fill="#DDDDDD" x="174" y="120" width="72" height="8" rx="4"></rect>
            <g id="Icons/Arrow-Right" transform="translate(82.000000, 91.000000)" fill="#757575">
                <path d="M1.7479,8.3328 L4.8549,5.2258 C5.0369,5.0438 5.1279,4.8058 5.1269,4.5668 C5.1269,4.3288 5.0359,4.0898 4.8549,3.9088 L1.7479,0.8018 C1.5659,0.6198 1.3269,0.5288 1.0889,0.5288 C0.8499,0.5288 0.6119,0.6198 0.4299,0.8018 C0.2479,0.9838 0.1569,1.2228 0.1569,1.4608 C0.1569,1.6998 0.2479,1.9378 0.4299,2.1198 L2.8779,4.5668 L0.4299,7.0148 C0.2479,7.1968 0.1569,7.4358 0.1569,7.6738 C0.1569,7.9128 0.2479,8.1508 0.4299,8.3328 C0.6119,8.5148 0.8499,8.6058 1.0889,8.6058 C1.3269,8.6058 1.5659,8.5148 1.7479,8.3328" id="Fill-42"></path>
            </g>
            <g id="Icons/Arrow-Right" transform="translate(151.000000, 122.000000)" fill="#757575">
                <path d="M1.7479,8.3328 L4.8549,5.2258 C5.0369,5.0438 5.1279,4.8058 5.1269,4.5668 C5.1269,4.3288 5.0359,4.0898 4.8549,3.9088 L1.7479,0.8018 C1.5659,0.6198 1.3269,0.5288 1.0889,0.5288 C0.8499,0.5288 0.6119,0.6198 0.4299,0.8018 C0.2479,0.9838 0.1569,1.2228 0.1569,1.4608 C0.1569,1.6998 0.2479,1.9378 0.4299,2.1198 L2.8779,4.5668 L0.4299,7.0148 C0.2479,7.1968 0.1569,7.4358 0.1569,7.6738 C0.1569,7.9128 0.2479,8.1508 0.4299,8.3328 C0.6119,8.5148 0.8499,8.6058 1.0889,8.6058 C1.3269,8.6058 1.5659,8.5148 1.7479,8.3328" id="Fill-42"></path>
            </g>
        </g>
    </g>
</svg>