<?xml version="1.0" encoding="UTF-8" standalone="no"?>
<svg width="334px" height="226px" viewBox="0 0 334 226" version="1.1" xmlns="http://www.w3.org/2000/svg" xmlns:xlink="http://www.w3.org/1999/xlink">
    <!-- Generator: Sketch 41.2 (35397) - http://www.bohemiancoding.com/sketch -->
    <title>dropdowns</title>
    <desc>Created with Sketch.</desc>
    <defs>
        <rect id="path-1" x="0" y="3.55271368e-15" width="131" height="30" rx="2"></rect>
        <mask id="mask-2" maskContentUnits="userSpaceOnUse" maskUnits="objectBoundingBox" x="0" y="0" width="131" height="30" fill="white">
            <use xlink:href="#path-1"></use>
        </mask>
        <rect id="path-3" x="63" y="49" width="209" height="157" rx="2"></rect>
        <mask id="mask-4" maskContentUnits="userSpaceOnUse" maskUnits="objectBoundingBox" x="0" y="0" width="209" height="157" fill="white">
            <use xlink:href="#path-3"></use>
        </mask>
    </defs>
    <g id="Unified-Navigation" stroke="none" stroke-width="1" fill="none" fill-rule="evenodd">
        <g id="dropdowns">
            <g id="Group" transform="translate(63.000000, 20.000000)">
                <use id="Rectangle-Copy" stroke="#0E94A6" mask="url(#mask-2)" stroke-width="2" xlink:href="#path-1"></use>
                <path d="M112.474217,19.8678166 L116.225116,16.1169173 C116.444834,15.8971994 116.554693,15.6098759 116.553486,15.3213452 C116.553486,15.0340217 116.443627,14.745491 116.225116,14.5269803 L112.474217,10.776081 C112.254499,10.5563631 111.965968,10.4465041 111.678645,10.4465041 C111.390114,10.4465041 111.102791,10.5563631 110.883073,10.776081 C110.663355,10.9957989 110.553496,11.2843297 110.553496,11.5716531 C110.553496,11.8601838 110.663355,12.1475073 110.883073,12.3672253 L113.8384,15.3213452 L110.883073,18.2766723 C110.663355,18.4963903 110.553496,18.784921 110.553496,19.0722445 C110.553496,19.3607752 110.663355,19.6480986 110.883073,19.8678166 C111.102791,20.0875345 111.390114,20.1973935 111.678645,20.1973935 C111.965968,20.1973935 112.254499,20.0875345 112.474217,19.8678166" id="Fill-42" fill="#0E94A6" transform="translate(113.553496, 15.321949) rotate(-270.000000) translate(-113.553496, -15.321949) "></path>
                <path d="M28.2380952,16.1428571 L28.2380952,13.0952381 L26.5146667,13.0952381 C26.3318095,12.3851429 26.0285714,11.7253333 25.6201905,11.1409524 L26.7142857,10.047619 L25.1904762,8.52380952 L24.096381,9.61714286 C23.512,9.20952381 22.8529524,8.90628571 22.1428571,8.72342857 L22.1428571,7 L19.0952381,7 L19.0952381,8.72342857 C18.3851429,8.90628571 17.7253333,9.20952381 17.1409524,9.61714286 L16.047619,8.52380952 L14.5238095,10.047619 L15.6171429,11.1409524 C15.2095238,11.7253333 14.9062857,12.3851429 14.7234286,13.0952381 L13,13.0952381 L13,16.1428571 L14.7234286,16.1428571 C14.9062857,16.8529524 15.2095238,17.5127619 15.6171429,18.096381 L14.5238095,19.1904762 L16.047619,20.7142857 L17.1409524,19.6201905 C17.7253333,20.0285714 18.3851429,20.3318095 19.0952381,20.5146667 L19.0952381,22.2380952 L22.1428571,22.2380952 L22.1428571,20.5146667 C22.8529524,20.3318095 23.512,20.0285714 24.096381,19.6201905 L25.1904762,20.7142857 L26.7142857,19.1904762 L25.6201905,18.096381 C26.0285714,17.5127619 26.3318095,16.8529524 26.5146667,16.1428571 L28.2380952,16.1428571 Z M23.4355048,14.6190476 C23.4355048,12.936 22.1745524,11.5714286 20.6187429,11.5714286 C19.0636952,11.5714286 17.8027429,12.936 17.8027429,14.6190476 C17.8027429,16.3020952 19.0636952,17.6666667 20.6187429,17.6666667 C22.1745524,17.6666667 23.4355048,16.3020952 23.4355048,14.6190476 Z" id="Combined-Shape" fill="#0E94A6"></path>
                <text id="label-copy" font-family="Roboto-Medium, Roboto" font-size="14" font-weight="400" line-spacing="20" fill="#0E94A6">
                    <tspan x="39" y="20">ACTIONS</tspan>
                </text>
            </g>
            <use id="Rectangle-5" stroke="#0E94A6" mask="url(#mask-4)" stroke-width="2" xlink:href="#path-3"></use>
            <rect id="Rectangle-6" fill="#DDDDDD" x="76" y="62" width="74" height="8" rx="4"></rect>
            <rect id="Rectangle-6-Copy-2" fill="#DDDDDD" x="76" y="113" width="123" height="12" rx="6"></rect>
            <rect id="Rectangle-6-Copy-5" fill="#DDDDDD" x="76" y="89" width="163" height="12" rx="6"></rect>
            <rect id="Rectangle-6-Copy-3" fill="#DDDDDD" x="76" y="137" width="154" height="12" rx="6"></rect>
            <rect id="Rectangle-6-Copy-4" fill="#DDDDDD" x="76" y="161" width="94" height="12" rx="6"></rect>
        </g>
    </g>
</svg>