<?xml version="1.0" encoding="UTF-8" standalone="no"?>
<svg width="334px" height="226px" viewBox="0 0 334 226" version="1.1" xmlns="http://www.w3.org/2000/svg" xmlns:xlink="http://www.w3.org/1999/xlink">
    <!-- Generator: Sketch 41.2 (35397) - http://www.bohemiancoding.com/sketch -->
    <title>forms</title>
    <desc>Created with Sketch.</desc>
    <defs>
        <rect id="path-1" x="123" y="60" width="141" height="24" rx="2"></rect>
        <mask id="mask-2" maskContentUnits="userSpaceOnUse" maskUnits="objectBoundingBox" x="0" y="0" width="141" height="24" fill="white">
            <use xlink:href="#path-1"></use>
        </mask>
        <rect id="path-3" x="123" y="92" width="89" height="24" rx="2"></rect>
        <mask id="mask-4" maskContentUnits="userSpaceOnUse" maskUnits="objectBoundingBox" x="0" y="0" width="89" height="24" fill="white">
            <use xlink:href="#path-3"></use>
        </mask>
        <rect id="path-5" x="123" y="128" width="14" height="14" rx="2"></rect>
        <mask id="mask-6" maskContentUnits="userSpaceOnUse" maskUnits="objectBoundingBox" x="0" y="0" width="14" height="14" fill="white">
            <use xlink:href="#path-5"></use>
        </mask>
        <rect id="path-7" x="89" y="182" width="62" height="24" rx="2"></rect>
        <mask id="mask-8" maskContentUnits="userSpaceOnUse" maskUnits="objectBoundingBox" x="0" y="0" width="62" height="24" fill="white">
            <use xlink:href="#path-7"></use>
        </mask>
    </defs>
    <g id="Unified-Navigation" stroke="none" stroke-width="1" fill="none" fill-rule="evenodd">
        <g id="forms">
            <use id="Rectangle-4-Copy" stroke="#CCCCCC" mask="url(#mask-2)" stroke-width="2" fill="#FFFFFF" xlink:href="#path-1"></use>
            <use id="Rectangle-4-Copy-2" stroke="#CCCCCC" mask="url(#mask-4)" stroke-width="2" fill="#FFFFFF" xlink:href="#path-3"></use>
            <rect id="Rectangle-3-Copy-13" fill="#DDDDDD" x="35" y="66" width="72" height="12" rx="6"></rect>
            <rect id="Rectangle-3-Copy-19" fill="#DDDDDD" x="131" y="66" width="72" height="12" rx="6"></rect>
            <rect id="Rectangle-3-Copy-20" fill="#DDDDDD" x="131" y="98" width="41" height="12" rx="6"></rect>
            <rect id="Rectangle-3-Copy-14" fill="#DDDDDD" x="58" y="98" width="49" height="12" rx="6"></rect>
            <rect id="Rectangle-3-Copy-16" fill="#DDDDDD" x="58" y="129" width="49" height="12" rx="6"></rect>
            <rect id="Rectangle-3-Copy-22" fill="#DDDDDD" x="143" y="129" width="49" height="12" rx="6"></rect>
            <use id="Rectangle-4-Copy-4" stroke="#CCCCCC" mask="url(#mask-6)" stroke-width="2" fill="#FFFFFF" xlink:href="#path-5"></use>
            <g id="Icons/Arrow-Right" transform="translate(200.500000, 105.000000) rotate(-270.000000) translate(-200.500000, -105.000000) translate(197.500000, 100.500000)" fill="#757575">
                <path d="M1.7479,8.3328 L4.8549,5.2258 C5.0369,5.0438 5.1279,4.8058 5.1269,4.5668 C5.1269,4.3288 5.0359,4.0898 4.8549,3.9088 L1.7479,0.8018 C1.5659,0.6198 1.3269,0.5288 1.0889,0.5288 C0.8499,0.5288 0.6119,0.6198 0.4299,0.8018 C0.2479,0.9838 0.1569,1.2228 0.1569,1.4608 C0.1569,1.6998 0.2479,1.9378 0.4299,2.1198 L2.8779,4.5668 L0.4299,7.0148 C0.2479,7.1968 0.1569,7.4358 0.1569,7.6738 C0.1569,7.9128 0.2479,8.1508 0.4299,8.3328 C0.6119,8.5148 0.8499,8.6058 1.0889,8.6058 C1.3269,8.6058 1.5659,8.5148 1.7479,8.3328" id="Fill-42"></path>
            </g>
            <rect id="Rectangle-6-Copy-6" fill="#999999" x="20" y="20" width="163" height="16" rx="8"></rect>
            <rect id="Rectangle-7-Copy" fill="#0E94A6" x="20" y="182" width="61" height="24" rx="2"></rect>
            <use id="Rectangle-Copy" stroke="#0E94A6" mask="url(#mask-8)" stroke-width="2" xlink:href="#path-7"></use>
            <rect id="Rectangle-11" fill="#D8D8D8" x="20" y="167" width="294" height="1"></rect>
        </g>
    </g>
</svg>