<?xml version="1.0" encoding="UTF-8" standalone="no"?>
<svg width="334px" height="226px" viewBox="0 0 334 226" version="1.1" xmlns="http://www.w3.org/2000/svg" xmlns:xlink="http://www.w3.org/1999/xlink">
    <!-- Generator: Sketch 41.2 (35397) - http://www.bohemiancoding.com/sketch -->
    <title>iconography</title>
    <desc>Created with Sketch.</desc>
    <defs></defs>
    <g id="Unified-Navigation" stroke="none" stroke-width="1" fill="none" fill-rule="evenodd">
        <g id="iconography">
            <path d="M115.000545,69.5158476 C115.000545,69.2344762 114.781352,69.0005453 114.516358,69.0005453 L111.516358,69.0005453 C111.235005,69.0005453 111.001091,69.2344762 111.001091,69.5158476 L111.001091,72.4849703 C111.001091,72.7663418 111.235005,73.0002726 111.516358,73.0002726 L114.516358,73.0002726 C114.781352,73.0002726 115.000545,72.7663418 115.000545,72.4849703 L115.000545,69.5158476 Z M115.250818,57.4054257 C115.250818,57.2958217 115.203381,57.1878536 115.09542,57.1240543 C115.000545,57.0471679 114.859869,56.9997274 114.719193,56.9997274 L111.282443,56.9997274 C111.141767,56.9997274 111.001091,57.0471679 110.906216,57.1240543 C110.798255,57.1878536 110.749182,57.2958217 110.749182,57.4054257 L111.015812,67.1094677 C111.015812,67.3286756 111.251363,67.5004431 111.547437,67.5004431 L114.437841,67.5004431 C114.719193,67.5004431 114.954744,67.3286756 114.96783,67.1094677 L115.250818,57.4054257 Z M125,65.0008179 C125,71.6261332 119.624864,77 113,77 C106.376772,77 101,71.6261332 101,65.0008179 C101,58.3738668 106.376772,53 113,53 C119.624864,53 125,58.3738668 125,65.0008179 L125,65.0008179 Z" id="Fill-120" fill="#757575"></path>
            <path d="M178.676909,102.857474 L170.274307,111.260076 L170.274307,123.908846 C170.274307,124.352127 170.001518,124.743363 169.608488,124.913856 C169.472093,124.965901 169.319547,125 169.183153,125 C168.892418,125 168.619629,124.897704 168.415038,124.675166 L164.052217,120.312346 C163.847626,120.107754 163.727384,119.834966 163.727384,119.544231 L163.727384,111.260076 L155.324782,102.857474 C154.999948,102.550587 154.915599,102.073207 155.086092,101.664025 C155.256584,101.272788 155.649615,101 156.091102,101 L177.910589,101 C178.352075,101 178.745106,101.272788 178.915599,101.664025 C179.086092,102.073207 179.001743,102.550587 178.676909,102.857474 L178.676909,102.857474 Z" id="Fill-105" fill="#757575"></path>
            <path d="M125,115.4 L125,110.6 L122.2856,110.6 C121.9976,109.4816 121.52,108.4424 120.8768,107.522 L122.6,105.8 L120.2,103.4 L118.4768,105.122 C117.5564,104.48 116.5184,104.0024 115.4,103.7144 L115.4,101 L110.6,101 L110.6,103.7144 C109.4816,104.0024 108.4424,104.48 107.522,105.122 L105.8,103.4 L103.4,105.8 L105.122,107.522 C104.48,108.4424 104.0024,109.4816 103.7144,110.6 L101,110.6 L101,115.4 L103.7144,115.4 C104.0024,116.5184 104.48,117.5576 105.122,118.4768 L103.4,120.2 L105.8,122.6 L107.522,120.8768 C108.4424,121.52 109.4816,121.9976 110.6,122.2856 L110.6,125 L115.4,125 L115.4,122.2856 C116.5184,121.9976 117.5564,121.52 118.4768,120.8768 L120.2,122.6 L122.6,120.2 L120.8768,118.4768 C121.52,117.5576 121.9976,116.5184 122.2856,115.4 L125,115.4 Z M117.43592,113 C117.43592,110.3492 115.44992,108.2 112.99952,108.2 C110.55032,108.2 108.56432,110.3492 108.56432,113 C108.56432,115.6508 110.55032,117.8 112.99952,117.8 C115.44992,117.8 117.43592,115.6508 117.43592,113 Z" id="Combined-Shape" fill="#757575"></path>
            <path d="M167.04049,68.9950521 C164.696618,69.0172059 165.019592,68.716284 164.9956,71.0239672 L164.9956,71.1070438 C165.004828,73.2467276 164.775977,73.0159593 166.918682,73.012267 C169.299466,73.0067286 168.996793,73.3058043 169.000484,70.9390444 C169.004175,68.7476685 169.266246,69.0116675 167.04049,68.9950521 M166.999887,68.0092099 C167.444669,68.0092099 167.893143,68.0424405 168.332388,67.9944407 C168.54832,67.9704408 168.898978,67.8245952 168.930352,67.6787497 C169.177658,66.5304465 170.09306,66.057833 170.962323,65.4984506 C173.169623,64.0769178 173.666081,61.446159 172.139796,59.4449361 C169.759013,56.3249485 165.073114,56.1403338 162.445024,59.0609376 C161.108833,60.5470856 161.112524,60.5950854 162.662801,61.7673885 C163.986074,62.7679999 163.986074,62.7679999 165.180157,61.5366201 C166.06603,60.6227776 167.095857,60.4030862 168.123839,60.9107765 C169.207187,61.4443128 169.301311,62.5058471 168.308396,63.2073828 C167.880224,63.5101508 167.383766,63.7169192 166.950057,64.0123026 C166.036501,64.6326079 165.244752,65.3692204 165.02882,66.5193696 C164.792587,67.7729031 164.999291,68.0092099 166.250587,68.011056 C166.501584,68.011056 166.750736,68.011056 166.999887,68.0092099 M166.979586,53.0000386 C173.579339,52.9834233 178.959172,58.3354021 178.999774,64.9575297 C179.040377,71.563042 173.594104,77.0202511 166.977741,76.9999435 C160.377987,76.9796359 154.998155,71.5907342 155,64.9981449 C155.001846,58.3963249 160.374296,53.0148078 166.979586,53.0000386" id="Fill-198" fill="#757575"></path>
            <path d="M231.245875,148 L223.833533,148 L223.833533,151.000094 L227.628196,151.000094 L216.281704,162.367449 L218.405515,164.487015 L229.746008,153.12566 L229.746008,157.334792 L232.745742,157.334792 L232.745742,149.500047 C232.745742,148.672021 232.075301,148 231.245875,148 Z M228.115803,168.779399 C228.115803,168.902403 228.018312,168.999906 227.896822,168.999906 L212.217214,168.999906 C212.097225,168.999906 211.999734,168.902403 211.999734,168.779399 L211.999734,153.070908 C211.999734,152.949405 212.097225,152.850402 212.217214,152.850402 L220.818951,152.850402 L220.818951,149.850308 L212.217214,149.850308 C210.444372,149.850308 209,151.294853 209,153.070908 L209,168.779399 C209,170.555455 210.444372,172 212.217214,172 L227.896822,172 C229.671165,172 231.115537,170.555455 231.115537,168.779399 L231.115537,159.945623 L228.115803,159.945623 L228.115803,168.779399 Z" id="Combined-Shape" fill="#757575"></path>
            <path d="M175.4968,157.71552 C174.772117,158.465191 174.172381,159.100438 173.555546,159.719904 C171.804998,161.479658 170.038667,163.22363 168.297326,164.992591 C167.901447,165.396361 167.613415,165.420035 167.216221,165.000482 C166.432354,164.170583 165.611662,163.376195 164.76861,162.529198 C163.146953,164.190311 161.577904,165.796186 160.054888,167.354713 C159.235511,166.527444 158.510829,165.793555 157.732223,165.008374 C157.74669,164.991276 157.853222,164.846602 157.978167,164.720342 C160.041736,162.654143 162.10662,160.587944 164.172819,158.52569 C164.70811,157.991714 164.790969,157.991714 165.330206,158.530951 C166.110127,159.312188 166.884787,160.1 167.585796,160.8089 C169.396843,158.996537 171.171065,157.219684 173.091276,155.298159 C172.803244,155.052214 172.348181,154.695791 171.937834,154.294651 C171.799737,154.159185 171.665585,153.859316 171.7274,153.723849 C171.79053,153.581806 172.090399,153.476589 172.288996,153.473959 C173.83174,153.454231 175.3758,153.471328 176.918544,153.458176 C177.381499,153.454231 177.544586,153.656773 177.54064,154.101315 C177.527488,155.645375 177.545901,157.189434 177.523542,158.732179 C177.520912,158.9242 177.393336,159.181982 177.240772,159.279307 C177.144761,159.341122 176.847523,159.206971 176.721263,159.079395 C176.313547,158.667733 175.942657,158.219246 175.4968,157.71552 Z M155,169.959228 L155,152 L156.492766,152 L156.492766,168.470408 L179,168.470408 L179,169.959228 L155,169.959228 Z" id="Combined-Shape" fill="#757575"></path>
            <path d="M114.195009,152.973041 L103.912113,163.258336 L110.743374,170.089597 L121.027469,159.805501 L114.195009,152.973041 Z M122.723763,158.108848 L123.587872,157.245939 C125.470909,155.362902 125.470909,152.297715 123.586672,150.412278 C121.703635,148.529241 118.638449,148.529241 116.754211,150.412278 L115.892503,151.276387 L122.723763,158.108848 Z M108.678274,171.419004 L102.490294,172.964799 C102.081043,173.066812 101.648988,172.946797 101.351351,172.649159 C101.053713,172.351522 100.933698,171.919467 101.035711,171.510216 L102.581506,165.322236 L108.678274,171.419004 Z" id="Combined-Shape" fill="#757575"></path>
            <path d="M211.999813,110.456909 C211.999813,106.896131 214.900631,103.999813 218.464408,103.999813 C222.028186,103.999813 224.926005,106.896131 224.926005,110.456909 C224.926005,114.017686 222.028186,116.912505 218.464408,116.912505 C214.900631,116.912505 211.999813,114.017686 211.999813,110.456909 L211.999813,110.456909 Z M232.820011,122.877633 L226.037435,116.101056 C227.217861,114.523155 227.925817,112.573277 227.925817,110.456909 C227.925817,105.241735 223.681082,101 218.464408,101 C213.244735,101 209,105.241735 209,110.456909 C209,115.670583 213.244735,119.912318 218.464408,119.912318 C220.481782,119.912318 222.349166,119.273358 223.88657,118.193425 L230.699144,125 L232.820011,122.877633 Z" id="Fill-1" fill="#767676"></path>
            <path d="M221,77 C227.627417,77 233,71.627417 233,65 C233,58.372583 227.627417,53 221,53 C214.372583,53 209,58.372583 209,65 C209,71.627417 214.372583,77 221,77 Z M223.16,62.72 C222.835998,62.4319986 222.527001,62.2160007 222.233,62.072 C221.938999,61.9279993 221.624002,61.856 221.288,61.856 C220.903998,61.856 220.616001,61.9219993 220.424,62.054 C220.231999,62.1860007 220.136,62.4319982 220.136,62.792 C220.136,63.0200011 220.249999,63.2179992 220.478,63.386 C220.706001,63.5540008 220.993998,63.7219992 221.342,63.89 C221.690002,64.0580008 222.061998,64.237999 222.458,64.43 C222.854002,64.622001 223.225998,64.8559986 223.574,65.132 C223.922002,65.4080014 224.209999,65.7379981 224.438,66.122 C224.666001,66.5060019 224.78,66.9679973 224.78,67.508 C224.78,68.3840044 224.549002,69.1399968 224.087,69.776 C223.624998,70.4120032 222.920005,70.8439989 221.972,71.072 L221.972,72.98 L219.956,72.98 L219.956,71.18 C219.439997,71.1199997 218.891003,70.9790011 218.309,70.757 C217.726997,70.5349989 217.208002,70.220002 216.752,69.812 L218.084,67.724 C218.576002,68.0840018 219.016998,68.3419992 219.407,68.498 C219.797002,68.6540008 220.183998,68.732 220.568,68.732 C221.024002,68.732 221.347999,68.6510008 221.54,68.489 C221.732001,68.3269992 221.828,68.0720017 221.828,67.724 C221.828,67.4839988 221.714001,67.2710009 221.486,67.085 C221.257999,66.8989991 220.970002,66.7160009 220.622,66.536 C220.273998,66.3559991 219.902002,66.167001 219.506,65.969 C219.109998,65.770999 218.738002,65.5340014 218.39,65.258 C218.041998,64.9819986 217.754001,64.6580019 217.526,64.286 C217.297999,63.9139981 217.184,63.4640026 217.184,62.936 C217.184,62.0239954 217.426998,61.268003 217.913,60.668 C218.399002,60.067997 219.079996,59.672001 219.956,59.48 L219.956,57.608 L221.972,57.608 L221.972,59.444 C222.548003,59.5400005 223.054998,59.7199987 223.493,59.984 C223.931002,60.2480013 224.329998,60.5719981 224.69,60.956 L223.16,62.72 Z" id="Combined-Shape" fill="#757575"></path>
        </g>
    </g>
</svg>