<?xml version="1.0" encoding="UTF-8" standalone="no"?>
<svg width="334px" height="226px" viewBox="0 0 334 226" version="1.1" xmlns="http://www.w3.org/2000/svg" xmlns:xlink="http://www.w3.org/1999/xlink">
    <!-- Generator: Sketch 41.2 (35397) - http://www.bohemiancoding.com/sketch -->
    <title>messaging</title>
    <desc>Created with Sketch.</desc>
    <defs></defs>
    <g id="Unified-Navigation" stroke="none" stroke-width="1" fill="none" fill-rule="evenodd">
        <g id="messaging">
            <rect id="Rectangle-12" fill="#4CAF51" x="20" y="41" width="294" height="40" rx="2"></rect>
            <rect id="Rectangle-13" fill="#FFFFFF" x="60" y="53" width="159" height="16" rx="8"></rect>
            <path d="M298.313708,59.3137085 L298.313708,55.3077688 C298.313708,54.2082223 297.418278,53.3137085 296.313708,53.3137085 C295.201438,53.3137085 294.313708,54.2064797 294.313708,55.3077688 L294.313708,59.3137085 L290.307769,59.3137085 C289.208222,59.3137085 288.313708,60.209139 288.313708,61.3137085 C288.313708,62.4259789 289.20648,63.3137085 290.307769,63.3137085 L294.313708,63.3137085 L294.313708,67.3196482 C294.313708,68.4191947 295.209139,69.3137085 296.313708,69.3137085 C297.425979,69.3137085 298.313708,68.4209373 298.313708,67.3196482 L298.313708,63.3137085 L302.319648,63.3137085 C303.419195,63.3137085 304.313708,62.418278 304.313708,61.3137085 C304.313708,60.2014381 303.420937,59.3137085 302.319648,59.3137085 L298.313708,59.3137085 Z" id="Combined-Shape" fill-opacity="0.4" fill="#FFFFFF" transform="translate(296.313708, 61.313708) rotate(-45.000000) translate(-296.313708, -61.313708) "></path>
            <g id="Group-2" transform="translate(20.000000, 145.000000)">
                <rect id="Rectangle-12-Copy" fill="#CF3628" x="0" y="0" width="294" height="40" rx="2"></rect>
                <path d="M12,15.0094776 C12,13.347389 13.3366311,12 15.0094776,12 L24.9905224,12 C26.652611,12 28,13.3366311 28,15.0094776 L28,24.9905224 C28,26.652611 26.6633689,28 24.9905224,28 L15.0094776,28 C13.347389,28 12,26.6633689 12,24.9905224 L12,15.0094776 Z M18.6428571,20.8861607 L18.8571429,15.7633929 C18.8571429,15.6741067 18.8174607,15.6034229 18.7380952,15.5513393 C18.6349201,15.4694936 18.539683,15.4285714 18.452381,15.4285714 L15.8333333,15.4285714 C15.7460313,15.4285714 15.6507942,15.4694936 15.547619,15.5513393 C15.4682536,15.6034229 15.4285714,15.6815471 15.4285714,15.7857143 L15.6309524,20.8861607 C15.6309524,20.9605658 15.6706345,21.0219492 15.75,21.0703125 C15.8293655,21.1186758 15.9246026,21.1428571 16.0357143,21.1428571 L18.2380952,21.1428571 C18.3492069,21.1428571 18.4424599,21.1186758 18.5178571,21.0703125 C18.5932543,21.0219492 18.6349206,20.9605658 18.6428571,20.8861607 Z M18.8571429,24.2767857 L18.8571429,22.5803571 C18.8571429,22.4970234 18.8147326,22.4270836 18.7299107,22.3705357 C18.6450889,22.3139878 18.5446434,22.2857143 18.4285714,22.2857143 L15.8571429,22.2857143 C15.7410708,22.2857143 15.6406254,22.3139878 15.5558036,22.3705357 C15.4709817,22.4270836 15.4285714,22.4970234 15.4285714,22.5803571 L15.4285714,24.2767857 C15.4285714,24.3601195 15.4709817,24.4300592 15.5558036,24.4866071 C15.6406254,24.543155 15.7410708,24.5714286 15.8571429,24.5714286 L18.4285714,24.5714286 C18.5446434,24.5714286 18.6450889,24.543155 18.7299107,24.4866071 C18.8147326,24.4300592 18.8571429,24.3601195 18.8571429,24.2767857 Z M24.3571429,20.8861607 L24.5714286,15.7633929 C24.5714286,15.6741067 24.5317464,15.6034229 24.452381,15.5513393 C24.3492058,15.4694936 24.2539687,15.4285714 24.1666667,15.4285714 L21.547619,15.4285714 C21.460317,15.4285714 21.3650799,15.4694936 21.2619048,15.5513393 C21.1825393,15.6034229 21.1428571,15.6815471 21.1428571,15.7857143 L21.3452381,20.8861607 C21.3452381,20.9605658 21.3849202,21.0219492 21.4642857,21.0703125 C21.5436512,21.1186758 21.6388883,21.1428571 21.75,21.1428571 L23.952381,21.1428571 C24.0634926,21.1428571 24.1567457,21.1186758 24.2321429,21.0703125 C24.3075401,21.0219492 24.3492063,20.9605658 24.3571429,20.8861607 Z M24.5714286,24.2767857 L24.5714286,22.5803571 C24.5714286,22.4970234 24.5290183,22.4270836 24.4441964,22.3705357 C24.3593746,22.3139878 24.2589292,22.2857143 24.1428571,22.2857143 L21.5714286,22.2857143 C21.4553566,22.2857143 21.3549111,22.3139878 21.2700893,22.3705357 C21.1852674,22.4270836 21.1428571,22.4970234 21.1428571,22.5803571 L21.1428571,24.2767857 C21.1428571,24.3601195 21.1852674,24.4300592 21.2700893,24.4866071 C21.3549111,24.543155 21.4553566,24.5714286 21.5714286,24.5714286 L24.1428571,24.5714286 C24.2589292,24.5714286 24.3593746,24.543155 24.4441964,24.4866071 C24.5290183,24.4300592 24.5714286,24.3601195 24.5714286,24.2767857 Z" id="Combined-Shape-Copy-2" fill="#FFFFFF"></path>
                <rect id="Rectangle-13-Copy" fill="#FFFFFF" x="40" y="12" width="159" height="16" rx="8"></rect>
                <path d="M278.313708,18.3137085 L278.313708,14.3077688 C278.313708,13.2082223 277.418278,12.3137085 276.313708,12.3137085 C275.201438,12.3137085 274.313708,13.2064797 274.313708,14.3077688 L274.313708,18.3137085 L270.307769,18.3137085 C269.208222,18.3137085 268.313708,19.209139 268.313708,20.3137085 C268.313708,21.4259789 269.20648,22.3137085 270.307769,22.3137085 L274.313708,22.3137085 L274.313708,26.3196482 C274.313708,27.4191947 275.209139,28.3137085 276.313708,28.3137085 C277.425979,28.3137085 278.313708,27.4209373 278.313708,26.3196482 L278.313708,22.3137085 L282.319648,22.3137085 C283.419195,22.3137085 284.313708,21.418278 284.313708,20.3137085 C284.313708,19.2014381 283.420937,18.3137085 282.319648,18.3137085 L278.313708,18.3137085 Z" id="Combined-Shape-Copy-4" fill-opacity="0.4" fill="#FFFFFF" transform="translate(276.313708, 20.313708) rotate(-45.000000) translate(-276.313708, -20.313708) "></path>
            </g>
            <path d="M48,57.3434343 C48,57.612796 47.9036569,57.8417499 47.7109677,58.030303 L38.8335484,66.7171717 C38.6408593,66.9057248 38.4068831,67 38.1316129,67 C37.8563427,67 37.6223666,66.9057248 37.4296774,66.7171717 L32.2890323,61.6868687 C32.0963431,61.4983156 32,61.2693616 32,61 C32,60.7306384 32.0963431,60.5016844 32.2890323,60.3131313 L33.6929032,58.9393939 C33.8855924,58.7508408 34.1195685,58.6565657 34.3948387,58.6565657 C34.6701089,58.6565657 34.9040851,58.7508408 35.0967742,58.9393939 L38.1316129,61.9191919 L44.9032258,55.2828283 C45.0959149,55.0942752 45.3298911,55 45.6051613,55 C45.8804315,55 46.1144076,55.0942752 46.3070968,55.2828283 L47.7109677,56.6565657 C47.9036569,56.8451188 48,57.0740727 48,57.3434343 Z" id="" fill="#FFFFFF"></path>
            <g id="Group" transform="translate(20.000000, 93.000000)">
                <rect id="Rectangle-12-Copy-2" fill="#FBC02D" x="0" y="0" width="294" height="40" rx="2"></rect>
                <rect id="Rectangle-13-Copy-2" fill="#FFFFFF" x="40" y="12" width="159" height="16" rx="8"></rect>
                <path d="M278.313708,18.3137085 L278.313708,14.3077688 C278.313708,13.2082223 277.418278,12.3137085 276.313708,12.3137085 C275.201438,12.3137085 274.313708,13.2064797 274.313708,14.3077688 L274.313708,18.3137085 L270.307769,18.3137085 C269.208222,18.3137085 268.313708,19.209139 268.313708,20.3137085 C268.313708,21.4259789 269.20648,22.3137085 270.307769,22.3137085 L274.313708,22.3137085 L274.313708,26.3196482 C274.313708,27.4191947 275.209139,28.3137085 276.313708,28.3137085 C277.425979,28.3137085 278.313708,27.4209373 278.313708,26.3196482 L278.313708,22.3137085 L282.319648,22.3137085 C283.419195,22.3137085 284.313708,21.418278 284.313708,20.3137085 C284.313708,19.2014381 283.420937,18.3137085 282.319648,18.3137085 L278.313708,18.3137085 Z" id="Combined-Shape-Copy-5" fill-opacity="0.4" fill="#FFFFFF" transform="translate(276.313708, 20.313708) rotate(-45.000000) translate(-276.313708, -20.313708) "></path>
                <path d="M21.1415653,25.5685096 L21.1415653,23.9699519 C21.1415653,23.8914259 21.1133237,23.8255211 21.0568397,23.7722356 C21.0003557,23.7189501 20.9334678,23.6923077 20.8561739,23.6923077 L19.1438261,23.6923077 C19.0665322,23.6923077 18.9996443,23.7189501 18.9431603,23.7722356 C18.8866763,23.8255211 18.8584347,23.8914259 18.8584347,23.9699519 L18.8584347,25.5685096 C18.8584347,25.6470356 18.8866763,25.7129404 18.9431603,25.766226 C18.9996443,25.8195115 19.0665322,25.8461538 19.1438261,25.8461538 L20.8561739,25.8461538 C20.9334678,25.8461538 21.0003557,25.8195115 21.0568397,25.766226 C21.1133237,25.7129404 21.1415653,25.6470356 21.1415653,25.5685096 Z M21.1237283,22.421875 L21.2842609,18.5600962 C21.2842609,18.4927881 21.254533,18.4395034 21.1950761,18.4002404 C21.1177823,18.3385414 21.0464352,18.3076923 20.9810326,18.3076923 L19.0189674,18.3076923 C18.9535648,18.3076923 18.8822177,18.3385414 18.8049239,18.4002404 C18.745467,18.4395034 18.7157391,18.498397 18.7157391,18.5769231 L18.8673532,22.421875 C18.8673532,22.477965 18.8970812,22.5242386 18.956538,22.5606971 C19.0159948,22.5971556 19.0873419,22.6153846 19.1705815,22.6153846 L20.8205,22.6153846 C20.9037396,22.6153846 20.9736003,22.5971556 21.0300843,22.5606971 C21.0865683,22.5242386 21.1177826,22.477965 21.1237283,22.421875 Z M20.9988696,14.5637019 L27.8482612,26.4098558 C28.0563601,26.7632229 28.0504145,27.1165848 27.8304242,27.4699519 C27.7293476,27.632613 27.5911126,27.7616181 27.415715,27.8569712 C27.2403174,27.9523242 27.0515448,28 26.8493916,28 L13.1506084,28 C12.9484552,28 12.7596826,27.9523242 12.584285,27.8569712 C12.4088874,27.7616181 12.2706524,27.632613 12.1695758,27.4699519 C11.9495855,27.1165848 11.9436399,26.7632229 12.1517388,26.4098558 L19.0011304,14.5637019 C19.102207,14.3898228 19.2419284,14.2524044 19.4202989,14.1514423 C19.5986694,14.0504803 19.7919011,14 20,14 C20.2080989,14 20.4013306,14.0504803 20.5797011,14.1514423 C20.7580716,14.2524044 20.897793,14.3898228 20.9988696,14.5637019 Z" id="" fill="#FFFFFF"></path>
            </g>
        </g>
    </g>
</svg>