<?xml version="1.0" encoding="UTF-8" standalone="no"?>
<svg width="334px" height="226px" viewBox="0 0 334 226" version="1.1" xmlns="http://www.w3.org/2000/svg" xmlns:xlink="http://www.w3.org/1999/xlink">
    <!-- Generator: Sketch 41.2 (35397) - http://www.bohemiancoding.com/sketch -->
    <title>page-layout</title>
    <desc>Created with Sketch.</desc>
    <defs>
        <rect id="path-1" x="20" y="20" width="294" height="186"></rect>
        <mask id="mask-2" maskContentUnits="userSpaceOnUse" maskUnits="objectBoundingBox" x="0" y="0" width="294" height="186" fill="white">
            <use xlink:href="#path-1"></use>
        </mask>
    </defs>
    <g id="Unified-Navigation" stroke="none" stroke-width="1" fill="none" fill-rule="evenodd">
        <g id="page-layout">
            <use id="Rectangle-8" stroke="#E0E0E0" mask="url(#mask-2)" stroke-width="2" xlink:href="#path-1"></use>
            <rect id="Rectangle-8-Copy" fill="#EEEEEE" x="246" y="21" width="67" height="184"></rect>
            <rect id="Rectangle-6-Copy" fill="#CCCCCC" x="29" y="37" width="94" height="16" rx="8"></rect>
            <rect id="Rectangle-6-Copy-2" fill="#DDDDDD" x="31" y="28" width="44" height="6" rx="3"></rect>
            <rect id="Rectangle-6-Copy-3" fill="#666666" x="31" y="72" width="44" height="6" rx="3"></rect>
            <rect id="Rectangle-6-Copy-15" fill="#666666" x="31" y="148" width="44" height="6" rx="3"></rect>
            <rect id="Rectangle-6-Copy-23" fill="#666666" x="253" y="26" width="44" height="6" rx="3"></rect>
            <rect id="Rectangle-6-Copy-28" fill="#666666" x="253" y="80" width="24" height="4" rx="2"></rect>
            <rect id="Rectangle-6-Copy-33" fill="#666666" x="253" y="127" width="24" height="4" rx="2"></rect>
            <rect id="Rectangle-6-Copy-4" fill="#DDDDDD" x="41" y="88" width="24" height="6" rx="3"></rect>
            <rect id="Rectangle-6-Copy-24" fill="#AAAAAA" x="257" y="42" width="24" height="4" rx="2"></rect>
            <rect id="Rectangle-6-Copy-29" fill="#AAAAAA" x="257" y="91" width="24" height="4" rx="2"></rect>
            <rect id="Rectangle-6-Copy-34" fill="#AAAAAA" x="257" y="138" width="24" height="4" rx="2"></rect>
            <rect id="Rectangle-6-Copy-8" fill="#666666" x="73" y="88" width="24" height="6" rx="3"></rect>
            <rect id="Rectangle-6-Copy-5" fill="#DDDDDD" x="37" y="99" width="28" height="6" rx="3"></rect>
            <rect id="Rectangle-6-Copy-25" fill="#AAAAAA" x="257" y="50" width="28" height="4" rx="2"></rect>
            <rect id="Rectangle-6-Copy-30" fill="#AAAAAA" x="257" y="99" width="28" height="4" rx="2"></rect>
            <rect id="Rectangle-6-Copy-35" fill="#AAAAAA" x="257" y="146" width="28" height="4" rx="2"></rect>
            <rect id="Rectangle-6-Copy-9" fill="#DDDDDD" x="73" y="99" width="17" height="6" rx="3"></rect>
            <rect id="Rectangle-6-Copy-12" fill="#DDDDDD" x="93" y="99" width="17" height="6" rx="3"></rect>
            <rect id="Rectangle-6-Copy-6" fill="#DDDDDD" x="31" y="110" width="34" height="6" rx="3"></rect>
            <rect id="Rectangle-6-Copy-26" fill="#AAAAAA" x="257" y="58" width="34" height="4" rx="2"></rect>
            <rect id="Rectangle-6-Copy-31" fill="#AAAAAA" x="257" y="107" width="34" height="4" rx="2"></rect>
            <rect id="Rectangle-6-Copy-16" fill="#DDDDDD" x="36" y="180" width="24" height="4" rx="2"></rect>
            <rect id="Rectangle-6-Copy-19" fill="#DDDDDD" x="70" y="180" width="67" height="4" rx="2"></rect>
            <rect id="Rectangle-6-Copy-21" fill="#DDDDDD" x="190" y="180" width="28" height="4" rx="2"></rect>
            <rect id="Rectangle-6-Copy-18" fill="#DDDDDD" x="36" y="193" width="24" height="4" rx="2"></rect>
            <rect id="Rectangle-6-Copy-20" fill="#DDDDDD" x="70" y="193" width="67" height="4" rx="2"></rect>
            <rect id="Rectangle-6-Copy-22" fill="#DDDDDD" x="190" y="193" width="28" height="4" rx="2"></rect>
            <rect id="Rectangle-6-Copy-17" fill="#DDDDDD" x="58" y="160" width="24" height="7" rx="2"></rect>
            <rect id="Rectangle-6-Copy-10" fill="#DDDDDD" x="73" y="110" width="60" height="6" rx="3"></rect>
            <rect id="Rectangle-6-Copy-7" fill="#DDDDDD" x="41" y="121" width="24" height="6" rx="3"></rect>
            <rect id="Rectangle-6-Copy-27" fill="#AAAAAA" x="257" y="66" width="24" height="4" rx="2"></rect>
            <rect id="Rectangle-6-Copy-32" fill="#AAAAAA" x="257" y="115" width="24" height="4" rx="2"></rect>
            <rect id="Rectangle-6-Copy-11" fill="#DDDDDD" x="73" y="121" width="12" height="6" rx="3"></rect>
            <rect id="Rectangle-6-Copy-13" fill="#DDDDDD" x="88" y="121" width="17" height="6" rx="3"></rect>
            <rect id="Rectangle-6-Copy-14" fill="#DDDDDD" x="108" y="121" width="17" height="6" rx="3"></rect>
            <rect id="Rectangle-9" fill="#E0E0E0" x="20" y="61" width="226" height="1"></rect>
            <rect id="Rectangle-9-Copy-4" fill="#E0E0E0" x="20" y="139" width="226" height="1"></rect>
            <rect id="Rectangle-9-Copy" fill="#E0E0E0" x="31" y="175" width="206" height="1"></rect>
            <rect id="Rectangle-9-Copy-2" fill="#E0E0E0" x="31" y="188" width="206" height="1"></rect>
            <rect id="Rectangle-9-Copy-3" fill="#E0E0E0" x="31" y="201" width="206" height="1"></rect>
        </g>
    </g>
</svg>