<?xml version="1.0" encoding="UTF-8" standalone="no"?>
<svg width="334px" height="226px" viewBox="0 0 334 226" version="1.1" xmlns="http://www.w3.org/2000/svg" xmlns:xlink="http://www.w3.org/1999/xlink">
    <!-- Generator: Sketch 41.2 (35397) - http://www.bohemiancoding.com/sketch -->
    <title>popover</title>
    <desc>Created with Sketch.</desc>
    <defs>
        <rect id="path-1" x="0" y="3.55271368e-15" width="131" height="30" rx="2"></rect>
        <mask id="mask-2" maskContentUnits="userSpaceOnUse" maskUnits="objectBoundingBox" x="0" y="0" width="131" height="30" fill="white">
            <use xlink:href="#path-1"></use>
        </mask>
        <path d="M75.9289322,59 L65.0015246,59 C63.8863953,59 63,59.8929218 63,60.9943966 L63,204.005603 C63,205.099388 63.8961131,206 65.0015246,206 L269.998475,206 C271.113605,206 272,205.107078 272,204.005603 L272,60.9943966 C272,59.9006123 271.103887,59 269.998475,59 L90.0710678,59 L83,51.9289322 L75.9289322,59 Z" id="path-3"></path>
        <mask id="mask-4" maskContentUnits="userSpaceOnUse" maskUnits="objectBoundingBox" x="0" y="0" width="209" height="154.071068" fill="white">
            <use xlink:href="#path-3"></use>
        </mask>
        <rect id="path-5" x="141" y="173" width="62" height="24" rx="2"></rect>
        <mask id="mask-6" maskContentUnits="userSpaceOnUse" maskUnits="objectBoundingBox" x="0" y="0" width="62" height="24" fill="white">
            <use xlink:href="#path-5"></use>
        </mask>
        <rect id="path-7" x="156" y="75" width="103" height="24" rx="2"></rect>
        <mask id="mask-8" maskContentUnits="userSpaceOnUse" maskUnits="objectBoundingBox" x="0" y="0" width="103" height="24" fill="white">
            <use xlink:href="#path-7"></use>
        </mask>
        <rect id="path-9" x="156" y="107" width="89" height="24" rx="2"></rect>
        <mask id="mask-10" maskContentUnits="userSpaceOnUse" maskUnits="objectBoundingBox" x="0" y="0" width="89" height="24" fill="white">
            <use xlink:href="#path-9"></use>
        </mask>
        <rect id="path-11" x="156" y="143" width="14" height="14" rx="2"></rect>
        <mask id="mask-12" maskContentUnits="userSpaceOnUse" maskUnits="objectBoundingBox" x="0" y="0" width="14" height="14" fill="white">
            <use xlink:href="#path-11"></use>
        </mask>
    </defs>
    <g id="Unified-Navigation" stroke="none" stroke-width="1" fill="none" fill-rule="evenodd">
        <g id="popover">
            <g id="Group" transform="translate(63.000000, 20.000000)">
                <use id="Rectangle-Copy" stroke="#0E94A6" mask="url(#mask-2)" stroke-width="2" xlink:href="#path-1"></use>
                <path d="M112.474217,19.8678166 L116.225116,16.1169173 C116.444834,15.8971994 116.554693,15.6098759 116.553486,15.3213452 C116.553486,15.0340217 116.443627,14.745491 116.225116,14.5269803 L112.474217,10.776081 C112.254499,10.5563631 111.965968,10.4465041 111.678645,10.4465041 C111.390114,10.4465041 111.102791,10.5563631 110.883073,10.776081 C110.663355,10.9957989 110.553496,11.2843297 110.553496,11.5716531 C110.553496,11.8601838 110.663355,12.1475073 110.883073,12.3672253 L113.8384,15.3213452 L110.883073,18.2766723 C110.663355,18.4963903 110.553496,18.784921 110.553496,19.0722445 C110.553496,19.3607752 110.663355,19.6480986 110.883073,19.8678166 C111.102791,20.0875345 111.390114,20.1973935 111.678645,20.1973935 C111.965968,20.1973935 112.254499,20.0875345 112.474217,19.8678166" id="Fill-42" fill="#0E94A6" transform="translate(113.553496, 15.321949) rotate(-270.000000) translate(-113.553496, -15.321949) "></path>
                <path d="M27.2380952,16.1428571 L27.2380952,13.0952381 L25.5146667,13.0952381 C25.3318095,12.3851429 25.0285714,11.7253333 24.6201905,11.1409524 L25.7142857,10.047619 L24.1904762,8.52380952 L23.096381,9.61714286 C22.512,9.20952381 21.8529524,8.90628571 21.1428571,8.72342857 L21.1428571,7 L18.0952381,7 L18.0952381,8.72342857 C17.3851429,8.90628571 16.7253333,9.20952381 16.1409524,9.61714286 L15.047619,8.52380952 L13.5238095,10.047619 L14.6171429,11.1409524 C14.2095238,11.7253333 13.9062857,12.3851429 13.7234286,13.0952381 L12,13.0952381 L12,16.1428571 L13.7234286,16.1428571 C13.9062857,16.8529524 14.2095238,17.5127619 14.6171429,18.096381 L13.5238095,19.1904762 L15.047619,20.7142857 L16.1409524,19.6201905 C16.7253333,20.0285714 17.3851429,20.3318095 18.0952381,20.5146667 L18.0952381,22.2380952 L21.1428571,22.2380952 L21.1428571,20.5146667 C21.8529524,20.3318095 22.512,20.0285714 23.096381,19.6201905 L24.1904762,20.7142857 L25.7142857,19.1904762 L24.6201905,18.096381 C25.0285714,17.5127619 25.3318095,16.8529524 25.5146667,16.1428571 L27.2380952,16.1428571 Z M22.4355048,14.6190476 C22.4355048,12.936 21.1745524,11.5714286 19.6187429,11.5714286 C18.0636952,11.5714286 16.8027429,12.936 16.8027429,14.6190476 C16.8027429,16.3020952 18.0636952,17.6666667 19.6187429,17.6666667 C21.1745524,17.6666667 22.4355048,16.3020952 22.4355048,14.6190476 Z" id="Combined-Shape" fill="#0E94A6"></path>
                <text id="label-copy" font-family="Roboto-Medium, Roboto" font-size="14" font-weight="400" line-spacing="20" fill="#0E94A6">
                    <tspan x="39" y="20">ACTIONS</tspan>
                </text>
            </g>
            <use id="Combined-Shape" stroke="#0E94A6" mask="url(#mask-4)" stroke-width="2" xlink:href="#path-3"></use>
            <rect id="Rectangle-7-Copy-2" fill="#0E94A6" x="72" y="173" width="61" height="24" rx="2"></rect>
            <use id="Rectangle-Copy-2" stroke="#0E94A6" mask="url(#mask-6)" stroke-width="2" xlink:href="#path-5"></use>
            <use id="Rectangle-4-Copy-3" stroke="#CCCCCC" mask="url(#mask-8)" stroke-width="2" fill="#FFFFFF" xlink:href="#path-7"></use>
            <use id="Rectangle-4-Copy-5" stroke="#CCCCCC" mask="url(#mask-10)" stroke-width="2" fill="#FFFFFF" xlink:href="#path-9"></use>
            <rect id="Rectangle-3-Copy-15" fill="#DDDDDD" x="74" y="81" width="72" height="12" rx="6"></rect>
            <rect id="Rectangle-3-Copy-21" fill="#DDDDDD" x="164" y="81" width="72" height="12" rx="6"></rect>
            <rect id="Rectangle-3-Copy-23" fill="#DDDDDD" x="164" y="113" width="41" height="12" rx="6"></rect>
            <rect id="Rectangle-3-Copy-17" fill="#DDDDDD" x="74" y="113" width="49" height="12" rx="6"></rect>
            <rect id="Rectangle-3-Copy-18" fill="#DDDDDD" x="74" y="144" width="49" height="12" rx="6"></rect>
            <rect id="Rectangle-3-Copy-24" fill="#DDDDDD" x="176" y="144" width="49" height="12" rx="6"></rect>
            <use id="Rectangle-4-Copy-6" stroke="#CCCCCC" mask="url(#mask-12)" stroke-width="2" fill="#FFFFFF" xlink:href="#path-11"></use>
            <g id="Icons/Arrow-Right" transform="translate(233.500000, 120.000000) rotate(-270.000000) translate(-233.500000, -120.000000) translate(230.500000, 115.500000)" fill="#757575">
                <path d="M1.7479,8.3328 L4.8549,5.2258 C5.0369,5.0438 5.1279,4.8058 5.1269,4.5668 C5.1269,4.3288 5.0359,4.0898 4.8549,3.9088 L1.7479,0.8018 C1.5659,0.6198 1.3269,0.5288 1.0889,0.5288 C0.8499,0.5288 0.6119,0.6198 0.4299,0.8018 C0.2479,0.9838 0.1569,1.2228 0.1569,1.4608 C0.1569,1.6998 0.2479,1.9378 0.4299,2.1198 L2.8779,4.5668 L0.4299,7.0148 C0.2479,7.1968 0.1569,7.4358 0.1569,7.6738 C0.1569,7.9128 0.2479,8.1508 0.4299,8.3328 C0.6119,8.5148 0.8499,8.6058 1.0889,8.6058 C1.3269,8.6058 1.5659,8.5148 1.7479,8.3328" id="Fill-42"></path>
            </g>
        </g>
    </g>
</svg>