<?xml version="1.0" encoding="UTF-8" standalone="no"?>
<svg width="334px" height="226px" viewBox="0 0 334 226" version="1.1" xmlns="http://www.w3.org/2000/svg" xmlns:xlink="http://www.w3.org/1999/xlink">
    <!-- Generator: Sketch 41.2 (35397) - http://www.bohemiancoding.com/sketch -->
    <title>tables</title>
    <desc>Created with Sketch.</desc>
    <defs>
        <rect id="path-1" x="20" y="30" width="294" height="168"></rect>
        <mask id="mask-2" maskContentUnits="userSpaceOnUse" maskUnits="objectBoundingBox" x="0" y="0" width="294" height="168" fill="white">
            <use xlink:href="#path-1"></use>
        </mask>
        <rect id="path-3" x="20" y="30" width="294" height="20"></rect>
        <mask id="mask-4" maskContentUnits="userSpaceOnUse" maskUnits="objectBoundingBox" x="0" y="0" width="294" height="20" fill="white">
            <use xlink:href="#path-3"></use>
        </mask>
        <rect id="path-5" x="29" y="34" width="12" height="12" rx="3"></rect>
        <mask id="mask-6" maskContentUnits="userSpaceOnUse" maskUnits="objectBoundingBox" x="0" y="0" width="12" height="12" fill="white">
            <use xlink:href="#path-5"></use>
        </mask>
        <rect id="path-7" x="8" y="12" width="12" height="12" rx="3"></rect>
        <mask id="mask-8" maskContentUnits="userSpaceOnUse" maskUnits="objectBoundingBox" x="0" y="0" width="12" height="12" fill="white">
            <use xlink:href="#path-7"></use>
        </mask>
        <rect id="path-9" x="8" y="12" width="12" height="12" rx="3"></rect>
        <mask id="mask-10" maskContentUnits="userSpaceOnUse" maskUnits="objectBoundingBox" x="0" y="0" width="12" height="12" fill="white">
            <use xlink:href="#path-9"></use>
        </mask>
        <rect id="path-11" x="8" y="12" width="12" height="12" rx="3"></rect>
        <mask id="mask-12" maskContentUnits="userSpaceOnUse" maskUnits="objectBoundingBox" x="0" y="0" width="12" height="12" fill="white">
            <use xlink:href="#path-11"></use>
        </mask>
        <rect id="path-13" x="8" y="12" width="12" height="12" rx="3"></rect>
        <mask id="mask-14" maskContentUnits="userSpaceOnUse" maskUnits="objectBoundingBox" x="0" y="0" width="12" height="12" fill="white">
            <use xlink:href="#path-13"></use>
        </mask>
    </defs>
    <g id="Unified-Navigation" stroke="none" stroke-width="1" fill="none" fill-rule="evenodd">
        <g id="tables">
            <use id="Rectangle-2" stroke="#E0E0E0" mask="url(#mask-2)" stroke-width="2" xlink:href="#path-1"></use>
            <use id="Rectangle-2-Copy" stroke="#E0E0E0" mask="url(#mask-4)" stroke-width="2" xlink:href="#path-3"></use>
            <use id="Rectangle-3-Copy-6" stroke="#CCCCCC" mask="url(#mask-6)" stroke-width="2" fill="#E0E0E0" xlink:href="#path-5"></use>
            <rect id="Rectangle-3-Copy" fill="#DDDDDD" x="78" y="35" width="32" height="10" rx="5"></rect>
            <rect id="Rectangle-3-Copy-2" fill="#DDDDDD" x="229" y="35" width="32" height="10" rx="5"></rect>
            <rect id="Rectangle-3-Copy-9" fill="#DDDDDD" x="162" y="35" width="32" height="10" rx="5"></rect>
            <g id="Group" transform="translate(21.000000, 50.000000)">
                <rect id="Rectangle-18-Copy" fill="#FFFFFF" x="0" y="0" width="292" height="36"></rect>
                <rect id="Rectangle-3-Copy-3" fill="#0E94A6" x="57" y="12" width="57" height="12" rx="6"></rect>
                <use id="Rectangle-3-Copy-5" stroke="#CCCCCC" mask="url(#mask-8)" stroke-width="2" fill="#E0E0E0" xlink:href="#path-7"></use>
                <rect id="Rectangle-3-Copy-7" fill="#CCCCCC" x="33" y="12" width="12" height="12" rx="6"></rect>
                <rect id="Rectangle-3-Copy-4" fill="#DDDDDD" x="141" y="12" width="42" height="12" rx="6"></rect>
                <rect id="Rectangle-3-Copy-8" fill="#DDDDDD" x="208" y="12" width="65" height="12" rx="6"></rect>
                <rect id="Rectangle-18" fill="#D8D8D8" x="0" y="36" width="292" height="1"></rect>
            </g>
            <g id="Group-Copy" transform="translate(21.000000, 87.000000)">
                <rect id="Rectangle-18-Copy" fill="#FFFFFF" x="0" y="0" width="292" height="36"></rect>
                <rect id="Rectangle-3-Copy-3" fill="#0E94A6" x="57" y="12" width="57" height="12" rx="6"></rect>
                <use id="Rectangle-3-Copy-5" stroke="#CCCCCC" mask="url(#mask-10)" stroke-width="2" fill="#E0E0E0" xlink:href="#path-9"></use>
                <rect id="Rectangle-3-Copy-7" fill="#CCCCCC" x="33" y="12" width="12" height="12" rx="6"></rect>
                <rect id="Rectangle-3-Copy-4" fill="#DDDDDD" x="141" y="12" width="42" height="12" rx="6"></rect>
                <rect id="Rectangle-3-Copy-8" fill="#DDDDDD" x="208" y="12" width="65" height="12" rx="6"></rect>
                <rect id="Rectangle-18" fill="#D8D8D8" x="0" y="36" width="292" height="1"></rect>
            </g>
            <g id="Group-Copy-2" transform="translate(21.000000, 124.000000)">
                <rect id="Rectangle-18-Copy" fill="#FFFFFF" x="0" y="0" width="292" height="36"></rect>
                <rect id="Rectangle-3-Copy-3" fill="#0E94A6" x="57" y="12" width="57" height="12" rx="6"></rect>
                <use id="Rectangle-3-Copy-5" stroke="#CCCCCC" mask="url(#mask-12)" stroke-width="2" fill="#E0E0E0" xlink:href="#path-11"></use>
                <rect id="Rectangle-3-Copy-7" fill="#CCCCCC" x="33" y="12" width="12" height="12" rx="6"></rect>
                <rect id="Rectangle-3-Copy-4" fill="#DDDDDD" x="141" y="12" width="42" height="12" rx="6"></rect>
                <rect id="Rectangle-3-Copy-8" fill="#DDDDDD" x="208" y="12" width="65" height="12" rx="6"></rect>
                <rect id="Rectangle-18" fill="#D8D8D8" x="0" y="36" width="292" height="1"></rect>
            </g>
            <g id="Group-Copy-3" transform="translate(21.000000, 161.000000)">
                <rect id="Rectangle-18-Copy" fill="#FFFFFF" x="0" y="0" width="292" height="36"></rect>
                <rect id="Rectangle-3-Copy-3" fill="#0E94A6" x="57" y="12" width="57" height="12" rx="6"></rect>
                <use id="Rectangle-3-Copy-5" stroke="#CCCCCC" mask="url(#mask-14)" stroke-width="2" fill="#E0E0E0" xlink:href="#path-13"></use>
                <rect id="Rectangle-3-Copy-7" fill="#CCCCCC" x="33" y="12" width="12" height="12" rx="6"></rect>
                <rect id="Rectangle-3-Copy-4" fill="#DDDDDD" x="141" y="12" width="42" height="12" rx="6"></rect>
                <rect id="Rectangle-3-Copy-8" fill="#DDDDDD" x="208" y="12" width="65" height="12" rx="6"></rect>
                <rect id="Rectangle-18" fill="#D8D8D8" x="0" y="36" width="292" height="1"></rect>
            </g>
        </g>
    </g>
</svg>