<?xml version="1.0" encoding="UTF-8" standalone="no"?>
<svg width="334px" height="226px" viewBox="0 0 334 226" version="1.1" xmlns="http://www.w3.org/2000/svg" xmlns:xlink="http://www.w3.org/1999/xlink">
    <!-- Generator: Sketch 41.2 (35397) - http://www.bohemiancoding.com/sketch -->
    <title>tabs</title>
    <desc>Created with Sketch.</desc>
    <defs>
        <rect id="path-1" x="20" y="20" width="90" height="33"></rect>
        <mask id="mask-2" maskContentUnits="userSpaceOnUse" maskUnits="objectBoundingBox" x="0" y="0" width="90" height="33" fill="white">
            <use xlink:href="#path-1"></use>
        </mask>
        <rect id="path-3" x="113" y="20" width="90" height="33"></rect>
        <mask id="mask-4" maskContentUnits="userSpaceOnUse" maskUnits="objectBoundingBox" x="0" y="0" width="90" height="33" fill="white">
            <use xlink:href="#path-3"></use>
        </mask>
        <rect id="path-5" x="20" y="52" width="294" height="154"></rect>
        <mask id="mask-6" maskContentUnits="userSpaceOnUse" maskUnits="objectBoundingBox" x="0" y="0" width="294" height="154" fill="white">
            <use xlink:href="#path-5"></use>
        </mask>
    </defs>
    <g id="Unified-Navigation" stroke="none" stroke-width="1" fill="none" fill-rule="evenodd">
        <g id="tabs">
            <use id="Rectangle-2" stroke="#E0E0E0" mask="url(#mask-2)" stroke-width="2" xlink:href="#path-1"></use>
            <use id="Rectangle-2-Copy-2" stroke="#E0E0E0" mask="url(#mask-4)" stroke-width="2" fill="#F5F5F5" xlink:href="#path-3"></use>
            <use id="Rectangle-2-Copy" stroke="#E0E0E0" mask="url(#mask-6)" stroke-width="2" xlink:href="#path-5"></use>
            <rect id="Rectangle-3-Copy" fill="#212121" x="33" y="32" width="64" height="10" rx="5"></rect>
            <rect id="Rectangle-3-Copy-2" fill="#CCCCCC" x="126" y="32" width="64" height="10" rx="5"></rect>
            <rect id="Rectangle-3-Copy-3" fill="#DDDDDD" x="41" y="103" width="80" height="10" rx="5"></rect>
            <rect id="Rectangle-3-Copy-4" fill="#DDDDDD" x="41" y="125" width="80" height="10" rx="5"></rect>
            <rect id="Rectangle-3-Copy-5" fill="#DDDDDD" x="41" y="147" width="80" height="10" rx="5"></rect>
            <rect id="Rectangle-3-Copy-6" fill="#DDDDDD" x="41" y="169" width="64" height="10" rx="5"></rect>
            <rect id="Rectangle-3-Copy-9" fill="#DDDDDD" x="41" y="72" width="117" height="10" rx="5"></rect>
            <rect id="Rectangle-2-Copy-3" fill="#FFFFFF" x="21" y="51" width="88" height="3.5"></rect>
        </g>
    </g>
</svg>