<?xml version="1.0" encoding="UTF-8" standalone="no"?>
<svg width="334px" height="226px" viewBox="0 0 334 226" version="1.1" xmlns="http://www.w3.org/2000/svg" xmlns:xlink="http://www.w3.org/1999/xlink">
    <!-- Generator: Sketch 41.2 (35397) - http://www.bohemiancoding.com/sketch -->
    <title>tooltip</title>
    <desc>Created with Sketch.</desc>
    <defs>
        <rect id="path-1" x="63" y="86" width="208" height="54"></rect>
        <mask id="mask-2" maskContentUnits="userSpaceOnUse" maskUnits="objectBoundingBox" x="0" y="0" width="208" height="54" fill="white">
            <use xlink:href="#path-1"></use>
        </mask>
    </defs>
    <g id="Unified-Navigation" stroke="none" stroke-width="1" fill="none" fill-rule="evenodd">
        <g id="tooltip">
            <g id="Group" transform="translate(50.000000, 69.000000)">
                <path d="M7.57451429,10.5034286 C6.12308571,10.5171429 6.32308571,10.3308571 6.30822857,11.7594286 L6.30822857,11.8108571 C6.31394286,13.1354286 6.17222857,12.9925714 7.49908571,12.9902857 C8.97337143,12.9868571 8.78594286,13.172 8.78822857,11.7068571 C8.79051429,10.3502857 8.9528,10.5137143 7.57451429,10.5034286 M7.54937143,9.89314286 C7.8248,9.89314286 8.10251429,9.91371429 8.37451429,9.884 C8.50822857,9.86914286 8.72537143,9.77885714 8.7448,9.68857143 C8.89794286,8.97771429 9.4648,8.68514286 10.0030857,8.33885714 C11.3699429,7.45885714 11.6773714,5.83028571 10.7322286,4.59142857 C9.25794286,2.66 6.35622857,2.54571429 4.7288,4.35371429 C3.90137143,5.27371429 3.90365714,5.30342857 4.86365714,6.02914286 C5.68308571,6.64857143 5.68308571,6.64857143 6.42251429,5.88628571 C6.97108571,5.32057143 7.6088,5.18457143 8.24537143,5.49885714 C8.91622857,5.82914286 8.97451429,6.48628571 8.35965714,6.92057143 C8.09451429,7.108 7.78708571,7.236 7.51851429,7.41885714 C6.9528,7.80285714 6.46251429,8.25885714 6.3288,8.97085714 C6.18251429,9.74685714 6.31051429,9.89314286 7.08537143,9.89428571 C7.2408,9.89428571 7.39508571,9.89428571 7.54937143,9.89314286 M7.5368,0.601714286 C11.6236571,0.591428571 14.9550857,3.90457143 14.9802286,8.004 C15.0053714,12.0931429 11.6328,15.4714286 7.53565714,15.4588571 C3.4488,15.4462857 0.117371429,12.1102857 0.118514286,8.02914286 C0.119657143,3.94228571 3.44651429,0.610857143 7.5368,0.601714286" id="Fill-198" fill="#757575"></path>
                <path d="M7.54994286,9.89348571 C7.39565714,9.89462857 7.24022857,9.89462857 7.08594286,9.89348571 C6.31108571,9.89348571 6.18308571,9.7472 6.32822857,8.9712 C6.46194286,8.2592 6.95222857,7.8032 7.51794286,7.4192 C7.78765714,7.23634286 8.09394286,7.10834286 8.36022857,6.92091429 C8.97508571,6.48548571 8.91565714,5.82948571 8.24594286,5.4992 C7.60822857,5.18491429 6.97051429,5.32091429 6.42308571,5.88662857 C5.68365714,6.64891429 5.68365714,6.64891429 4.86308571,6.02948571 C3.90422857,5.30377143 3.90194286,5.27291429 4.72822857,4.35405714 C6.3568,2.54491429 9.25851429,2.66034286 10.7328,4.59177143 C11.6779429,5.83062857 11.3693714,7.45805714 10.0025143,8.3392 C9.46422857,8.68548571 8.89851429,8.97805714 8.74537143,9.68891429 C8.72594286,9.7792 8.5088,9.86948571 8.37394286,9.88434286 C8.10308571,9.91405714 7.82537143,9.89234286 7.54994286,9.89348571" id="Fill-200" fill="#FFFFFF"></path>
                <path d="M7.57451429,10.5034286 C8.9528,10.5137143 8.79051429,10.3502857 8.78822857,11.7068571 C8.78594286,13.172 8.97337143,12.9868571 7.49908571,12.9902857 C6.17222857,12.9925714 6.31394286,13.1354286 6.30822857,11.8108571 L6.30822857,11.7594286 C6.32308571,10.3308571 6.12308571,10.5171429 7.57451429,10.5034286" id="Fill-202" fill="#FFFFFF"></path>
            </g>
            <use id="Rectangle-2" stroke="#E0E0E0" mask="url(#mask-2)" stroke-width="2" fill="#FFFFFF" xlink:href="#path-1"></use>
            <rect id="Rectangle-3-Copy" fill="#DDDDDD" x="75" y="105" width="179" height="16" rx="8"></rect>
        </g>
    </g>
</svg>