<?xml version="1.0" encoding="UTF-8" standalone="no"?>
<svg width="334px" height="226px" viewBox="0 0 334 226" version="1.1" xmlns="http://www.w3.org/2000/svg" xmlns:xlink="http://www.w3.org/1999/xlink">
    <!-- Generator: Sketch 41.2 (35397) - http://www.bohemiancoding.com/sketch -->
    <title>typography</title>
    <desc>Created with Sketch.</desc>
    <defs></defs>
    <g id="Unified-Navigation" stroke="none" stroke-width="1" fill="none" fill-rule="evenodd">
        <g id="typography" fill="#424242">
            <path d="M57.6875,57 L57.6875,22.875 L67.1328125,22.875 C71.0547071,22.875 74.3827988,24.2812359 77.1171875,27.09375 C79.8515762,29.9062641 81.21875,33.4921657 81.21875,37.8515625 L81.21875,42.0234375 C81.21875,46.3984594 79.8515762,49.9882672 77.1171875,52.7929688 C74.3827988,55.5976703 71.0547071,57 67.1328125,57 L57.6875,57 Z M58.953125,24.140625 L58.953125,55.734375 L67.1328125,55.734375 C70.6797052,55.734375 73.7031125,54.437513 76.203125,51.84375 C78.7031375,49.249987 79.953125,45.9765823 79.953125,42.0234375 L79.953125,37.78125 C79.953125,33.8749805 78.7031375,30.625013 76.203125,28.03125 C73.7031125,25.437487 70.6797052,24.140625 67.1328125,24.140625 L58.953125,24.140625 Z M90.0078125,57 L88.7421875,57 L88.7421875,31.640625 L90.0078125,31.640625 L90.0078125,57 Z M90.0078125,23.671875 L88.7421875,23.671875 L88.7421875,20.4375 L90.0078125,20.4375 L90.0078125,23.671875 Z M113.867188,50.7890625 C113.867188,49.4453058 113.292974,48.2226618 112.144531,47.1210938 C110.996088,46.0195257 108.992202,45.1562531 106.132812,44.53125 C103.117172,43.8906218 100.933601,43.0664113 99.5820312,42.0585938 C98.230462,41.0507762 97.5546875,39.5546974 97.5546875,37.5703125 C97.5546875,35.7578034 98.3203048,34.2382874 99.8515625,33.0117188 C101.38282,31.7851501 103.4453,31.171875 106.039062,31.171875 C108.835951,31.171875 111.039054,31.8281184 112.648438,33.140625 C114.257821,34.4531316 115.023438,36.164052 114.945312,38.2734375 L114.898438,38.4140625 L113.820312,38.4140625 C113.820312,36.7578042 113.121101,35.3476621 111.722656,34.1835938 C110.324212,33.0195254 108.429699,32.4375 106.039062,32.4375 C103.664051,32.4375 101.867194,32.9492136 100.648438,33.9726562 C99.4296814,34.9960989 98.8203125,36.1796808 98.8203125,37.5234375 C98.8203125,38.8515691 99.3359323,39.9843703 100.367188,40.921875 C101.398443,41.8593797 103.445297,42.679684 106.507812,43.3828125 C109.335952,44.0390658 111.480461,44.9335881 112.941406,46.0664062 C114.402351,47.1992244 115.132812,48.7812398 115.132812,50.8125 C115.132812,52.7968849 114.320321,54.4062438 112.695312,55.640625 C111.070304,56.8750062 108.914076,57.4921875 106.226562,57.4921875 C103.273423,57.4921875 100.95704,56.8320379 99.2773438,55.5117188 C97.5976479,54.1913996 96.8124995,52.585947 96.921875,50.6953125 L96.96875,50.5546875 L98,50.5546875 C98.1250006,52.5546975 98.984367,53.9999955 100.578125,54.890625 C102.171883,55.7812545 104.054677,56.2265625 106.226562,56.2265625 C108.570324,56.2265625 110.429681,55.679693 111.804688,54.5859375 C113.179694,53.492182 113.867188,52.2265697 113.867188,50.7890625 Z M141.59375,44.7890625 C141.59375,48.695332 140.750008,51.7890511 139.0625,54.0703125 C137.374992,56.3515739 135.04689,57.4921875 132.078125,57.4921875 C130.09374,57.4921875 128.363289,57.093754 126.886719,56.296875 C125.410149,55.499996 124.257817,54.4218818 123.429688,53.0625 L123.429688,66.75 L122.164062,66.75 L122.164062,31.640625 L123.148438,31.640625 L123.40625,36.1875 C124.250004,34.6249922 125.39843,33.398442 126.851562,32.5078125 C128.304695,31.617183 130.03124,31.171875 132.03125,31.171875 C135.01564,31.171875 137.35546,32.3554569 139.050781,34.7226562 C140.746102,37.0898556 141.59375,40.2812299 141.59375,44.296875 L141.59375,44.7890625 Z M140.304688,44.296875 C140.304688,40.7812324 139.597663,37.9257922 138.183594,35.7304688 C136.769524,33.5351453 134.726576,32.4375 132.054688,32.4375 C129.60155,32.4375 127.695319,33.0546813 126.335938,34.2890625 C124.976556,35.5234437 124.007815,37.0390535 123.429688,38.8359375 L123.429688,50.6953125 C124.054691,52.3828209 125.101555,53.7265575 126.570312,54.7265625 C128.03907,55.7265675 129.882801,56.2265625 132.101562,56.2265625 C134.773451,56.2265625 136.808587,55.1953228 138.207031,53.1328125 C139.605476,51.0703022 140.304688,48.28908 140.304688,44.7890625 L140.304688,44.296875 Z M150.054688,57 L148.789062,57 L148.789062,20.4375 L150.054688,20.4375 L150.054688,57 Z M174.289062,52.3125 C173.414058,53.8437577 172.109384,55.0898389 170.375,56.0507812 C168.640616,57.0117236 166.539075,57.4921875 164.070312,57.4921875 C161.710926,57.4921875 159.859382,56.8476627 158.515625,55.5585938 C157.171868,54.2695248 156.5,52.5312609 156.5,50.34375 C156.5,48.2187394 157.503896,46.4375072 159.511719,45 C161.519541,43.5624928 164.031235,42.84375 167.046875,42.84375 L174.289062,42.84375 L174.289062,39.140625 C174.289062,37.0312395 173.613288,35.3867246 172.261719,34.2070312 C170.910149,33.0273379 169.007825,32.4375 166.554688,32.4375 C164.257801,32.4375 162.410163,32.992182 161.011719,34.1015625 C159.613274,35.210943 158.914062,36.6406163 158.914062,38.390625 L157.859375,38.34375 L157.8125,38.2265625 C157.71875,36.2578027 158.484367,34.5898506 160.109375,33.2226562 C161.734383,31.8554619 163.882799,31.171875 166.554688,31.171875 C169.273451,31.171875 171.453117,31.8593681 173.09375,33.234375 C174.734383,34.6093819 175.554688,36.593737 175.554688,39.1875 L175.554688,51.890625 C175.554688,52.7812545 175.605468,53.6484333 175.707031,54.4921875 C175.808594,55.3359417 175.976561,56.1718709 176.210938,57 L174.804688,57 C174.601561,55.8906195 174.464844,55.0585965 174.394531,54.5039062 C174.324218,53.949216 174.289062,53.3515657 174.289062,52.7109375 L174.289062,52.3125 Z M164.070312,56.25 C166.58595,56.25 168.714835,55.695318 170.457031,54.5859375 C172.199227,53.476557 173.476558,51.8906353 174.289062,49.828125 L174.289062,44.1328125 L167.117188,44.1328125 C164.492174,44.1328125 162.277353,44.7382752 160.472656,45.9492188 C158.66796,47.1601623 157.765625,48.6562411 157.765625,50.4375 C157.765625,52.1406335 158.339838,53.5351508 159.488281,54.6210938 C160.636724,55.7070367 162.164053,56.25 164.070312,56.25 Z M190.0625,52.40625 L191,54.9375 L191.140625,54.9375 L191.28125,54.5625 L200.046875,31.640625 L201.453125,31.640625 L190.179688,61.21875 C189.492184,63.0000089 188.691411,64.4492132 187.777344,65.5664062 C186.863277,66.6835993 185.40626,67.2421875 183.40625,67.2421875 C183.109374,67.2421875 182.781252,67.214844 182.421875,67.1601562 C182.062498,67.1054685 181.796876,67.0468753 181.625,66.984375 L181.835938,65.7890625 C182.007813,65.8359377 182.265623,65.8828123 182.609375,65.9296875 C182.953127,65.9765627 183.218749,66 183.40625,66 C184.843757,66 185.96484,65.5781292 186.769531,64.734375 C187.574223,63.8906208 188.289059,62.6406333 188.914062,60.984375 L190.4375,56.859375 L180.335938,31.640625 L181.71875,31.640625 L190.0625,52.40625 Z" id="Display"></path>
            <path d="M60.0625,79.9375 L65.5,93.8007812 L65.5703125,93.8007812 L71.0078125,79.9375 L73.9609375,79.9375 L73.9609375,97 L71.6523438,97 L71.6523438,90.25 L71.8867188,83.3125 L71.828125,83.3007812 L66.296875,97 L64.7617188,97 L59.2539062,83.3359375 L59.1953125,83.3476562 L59.4179688,90.25 L59.4179688,97 L57.109375,97 L57.109375,79.9375 L60.0625,79.9375 Z M85.5507812,97 C85.4726559,96.6171856 85.4121096,96.2792983 85.3691406,95.9863281 C85.3261717,95.6933579 85.3007813,95.398439 85.2929688,95.1015625 C84.8632791,95.7109405 84.3027378,96.2207011 83.6113281,96.6308594 C82.9199184,97.0410177 82.1757852,97.2460938 81.3789062,97.2460938 C80.0585871,97.2460938 79.0527378,96.9082065 78.3613281,96.2324219 C77.6699184,95.5566372 77.3242188,94.6250059 77.3242188,93.4375 C77.3242188,92.2265564 77.8144482,91.2793003 78.7949219,90.5957031 C79.7753955,89.912106 81.1054604,89.5703125 82.7851562,89.5703125 L85.2929688,89.5703125 L85.2929688,88.3164062 C85.2929688,87.574215 85.0664085,86.9863303 84.6132812,86.5527344 C84.160154,86.1191385 83.5195354,85.9023438 82.6914062,85.9023438 C81.949215,85.9023438 81.3457054,86.091795 80.8808594,86.4707031 C80.4160133,86.8496113 80.1835938,87.3046848 80.1835938,87.8359375 L77.9804688,87.8359375 L77.9570312,87.765625 C77.910156,86.8437454 78.3456985,86.0000038 79.2636719,85.234375 C80.1816452,84.4687462 81.3671802,84.0859375 82.8203125,84.0859375 C84.2578197,84.0859375 85.4140581,84.4511682 86.2890625,85.1816406 C87.1640669,85.912113 87.6015625,86.9648369 87.6015625,88.3398438 L87.6015625,94.4453125 C87.6015625,94.8984398 87.6249998,95.3359354 87.671875,95.7578125 C87.7187502,96.1796896 87.8046869,96.593748 87.9296875,97 L85.5507812,97 Z M81.71875,95.3125 C82.5546917,95.3125 83.3085904,95.0976584 83.9804688,94.6679688 C84.6523471,94.2382791 85.0898427,93.7460965 85.2929688,93.1914062 L85.2929688,91.1289062 L82.703125,91.1289062 C81.7734329,91.1289062 81.0292997,91.3632789 80.4707031,91.8320312 C79.9121066,92.3007836 79.6328125,92.8515593 79.6328125,93.484375 C79.6328125,94.0468778 79.808592,94.4921859 80.1601562,94.8203125 C80.5117205,95.1484391 81.0312466,95.3125 81.71875,95.3125 Z M93.4492188,97 L91.140625,97 L91.140625,84.3203125 L93.4492188,84.3203125 L93.4492188,97 Z M93.4492188,81.0742188 L91.140625,81.0742188 L91.140625,78.71875 L93.4492188,78.71875 L93.4492188,81.0742188 Z M99.0625,84.3203125 L99.2265625,86.2070312 C99.6484396,85.5351529 100.177731,85.0136737 100.814453,84.6425781 C101.451175,84.2714825 102.175777,84.0859375 102.988281,84.0859375 C104.355476,84.0859375 105.414059,84.4863241 106.164062,85.2871094 C106.914066,86.0878946 107.289062,87.3242104 107.289062,88.9960938 L107.289062,97 L104.980469,97 L104.980469,89.0429688 C104.980469,87.9257757 104.759768,87.1328148 104.318359,86.6640625 C103.876951,86.1953102 103.20313,85.9609375 102.296875,85.9609375 C101.632809,85.9609375 101.044924,86.1210921 100.533203,86.4414062 C100.021482,86.7617204 99.6132828,87.199216 99.3085938,87.7539062 L99.3085938,97 L97,97 L97,84.3203125 L99.0625,84.3203125 Z M129.941406,97 L127.632812,97 L127.632812,89.4648438 L119.347656,89.4648438 L119.347656,97 L117.039062,97 L117.039062,79.9375 L119.347656,79.9375 L119.347656,87.6484375 L127.632812,87.6484375 L127.632812,79.9375 L129.941406,79.9375 L129.941406,97 Z M138.988281,97.2460938 C137.222647,97.2460938 135.818365,96.658209 134.775391,95.4824219 C133.732417,94.3066347 133.210938,92.7812594 133.210938,90.90625 L133.210938,90.390625 C133.210938,88.5859285 133.748042,87.0839904 134.822266,85.8847656 C135.89649,84.6855409 137.167961,84.0859375 138.636719,84.0859375 C140.347665,84.0859375 141.640621,84.6015573 142.515625,85.6328125 C143.390629,86.6640677 143.828125,88.0390539 143.828125,89.7578125 L143.828125,91.1992188 L135.601562,91.1992188 L135.566406,91.2578125 C135.589844,92.4765686 135.898435,93.4785117 136.492188,94.2636719 C137.08594,95.0488321 137.917963,95.4414062 138.988281,95.4414062 C139.769535,95.4414062 140.455075,95.3300792 141.044922,95.1074219 C141.634769,94.8847645 142.144529,94.578127 142.574219,94.1875 L143.476562,95.6875 C143.023435,96.1328147 142.425785,96.5039048 141.683594,96.8007812 C140.941403,97.0976577 140.042974,97.2460938 138.988281,97.2460938 Z M138.636719,85.9023438 C137.863277,85.9023438 137.203128,86.2285124 136.65625,86.8808594 C136.109372,87.5332064 135.773438,88.3515576 135.648438,89.3359375 L135.671875,89.3945312 L141.519531,89.3945312 L141.519531,89.0898438 C141.519531,88.1835892 141.277346,87.4257843 140.792969,86.8164062 C140.308591,86.2070282 139.589849,85.9023438 138.636719,85.9023438 Z M154.210938,97 C154.132812,96.6171856 154.072266,96.2792983 154.029297,95.9863281 C153.986328,95.6933579 153.960938,95.398439 153.953125,95.1015625 C153.523435,95.7109405 152.962894,96.2207011 152.271484,96.6308594 C151.580075,97.0410177 150.835941,97.2460938 150.039062,97.2460938 C148.718743,97.2460938 147.712894,96.9082065 147.021484,96.2324219 C146.330075,95.5566372 145.984375,94.6250059 145.984375,93.4375 C145.984375,92.2265564 146.474604,91.2793003 147.455078,90.5957031 C148.435552,89.912106 149.765617,89.5703125 151.445312,89.5703125 L153.953125,89.5703125 L153.953125,88.3164062 C153.953125,87.574215 153.726565,86.9863303 153.273438,86.5527344 C152.82031,86.1191385 152.179692,85.9023438 151.351562,85.9023438 C150.609371,85.9023438 150.005862,86.091795 149.541016,86.4707031 C149.07617,86.8496113 148.84375,87.3046848 148.84375,87.8359375 L146.640625,87.8359375 L146.617188,87.765625 C146.570312,86.8437454 147.005855,86.0000038 147.923828,85.234375 C148.841801,84.4687462 150.027336,84.0859375 151.480469,84.0859375 C152.917976,84.0859375 154.074214,84.4511682 154.949219,85.1816406 C155.824223,85.912113 156.261719,86.9648369 156.261719,88.3398438 L156.261719,94.4453125 C156.261719,94.8984398 156.285156,95.3359354 156.332031,95.7578125 C156.378906,96.1796896 156.464843,96.593748 156.589844,97 L154.210938,97 Z M150.378906,95.3125 C151.214848,95.3125 151.968747,95.0976584 152.640625,94.6679688 C153.312503,94.2382791 153.749999,93.7460965 153.953125,93.1914062 L153.953125,91.1289062 L151.363281,91.1289062 C150.433589,91.1289062 149.689456,91.3632789 149.130859,91.8320312 C148.572263,92.3007836 148.292969,92.8515593 148.292969,93.484375 C148.292969,94.0468778 148.468748,94.4921859 148.820312,94.8203125 C149.171877,95.1484391 149.691403,95.3125 150.378906,95.3125 Z M159.085938,90.8945312 C159.085938,88.8554586 159.52148,87.2109437 160.392578,85.9609375 C161.263676,84.7109313 162.484367,84.0859375 164.054688,84.0859375 C164.796879,84.0859375 165.455075,84.2226549 166.029297,84.4960938 C166.603518,84.7695326 167.093748,85.1679661 167.5,85.6914062 L167.5,78.71875 L169.808594,78.71875 L169.808594,97 L167.921875,97 L167.652344,95.4414062 C167.238279,96.0351592 166.730472,96.4843735 166.128906,96.7890625 C165.527341,97.0937515 164.828129,97.2460938 164.03125,97.2460938 C162.484367,97.2460938 161.273442,96.6855525 160.398438,95.5644531 C159.523433,94.4433538 159.085938,92.9687591 159.085938,91.140625 L159.085938,90.8945312 Z M161.394531,91.140625 C161.394531,92.4218814 161.656247,93.4472618 162.179688,94.2167969 C162.703128,94.986332 163.515619,95.3710938 164.617188,95.3710938 C165.304691,95.3710938 165.88281,95.2148453 166.351562,94.9023438 C166.820315,94.5898422 167.203124,94.1523466 167.5,93.5898438 L167.5,87.671875 C167.203124,87.1484349 166.818362,86.7324234 166.345703,86.4238281 C165.873045,86.1152328 165.304691,85.9609375 164.640625,85.9609375 C163.531244,85.9609375 162.712893,86.4179642 162.185547,87.3320312 C161.6582,88.2460983 161.394531,89.4335864 161.394531,90.8945312 L161.394531,91.140625 Z M175.75,97 L173.441406,97 L173.441406,84.3203125 L175.75,84.3203125 L175.75,97 Z M175.75,81.0742188 L173.441406,81.0742188 L173.441406,78.71875 L175.75,78.71875 L175.75,81.0742188 Z M181.363281,84.3203125 L181.527344,86.2070312 C181.949221,85.5351529 182.478512,85.0136737 183.115234,84.6425781 C183.751956,84.2714825 184.476558,84.0859375 185.289062,84.0859375 C186.656257,84.0859375 187.71484,84.4863241 188.464844,85.2871094 C189.214847,86.0878946 189.589844,87.3242104 189.589844,88.9960938 L189.589844,97 L187.28125,97 L187.28125,89.0429688 C187.28125,87.9257757 187.060549,87.1328148 186.619141,86.6640625 C186.177732,86.1953102 185.503911,85.9609375 184.597656,85.9609375 C183.93359,85.9609375 183.345706,86.1210921 182.833984,86.4414062 C182.322263,86.7617204 181.914064,87.199216 181.609375,87.7539062 L181.609375,97 L179.300781,97 L179.300781,84.3203125 L181.363281,84.3203125 Z M192.4375,90.8945312 C192.4375,88.8554586 192.882808,87.2109437 193.773438,85.9609375 C194.664067,84.7109313 195.894523,84.0859375 197.464844,84.0859375 C198.269535,84.0859375 198.976559,84.2480453 199.585938,84.5722656 C200.195316,84.896486 200.703123,85.3632782 201.109375,85.9726562 L201.390625,84.3203125 L203.230469,84.3203125 L203.230469,97.0703125 C203.230469,98.6953206 202.757817,99.943355 201.8125,100.814453 C200.867183,101.685551 199.503915,102.121094 197.722656,102.121094 C197.113278,102.121094 196.455082,102.03711 195.748047,101.869141 C195.041012,101.701171 194.417971,101.472658 193.878906,101.183594 L194.464844,99.390625 C194.878908,99.6250012 195.378903,99.8144524 195.964844,99.9589844 C196.550784,100.103516 197.128903,100.175781 197.699219,100.175781 C198.824224,100.175781 199.642576,99.9199244 200.154297,99.4082031 C200.666018,98.8964818 200.921875,98.1171927 200.921875,97.0703125 L200.921875,95.640625 C200.50781,96.1718777 200.011722,96.5722643 199.433594,96.8417969 C198.855466,97.1113295 198.19141,97.2460938 197.441406,97.2460938 C195.886711,97.2460938 194.664067,96.6835994 193.773438,95.5585938 C192.882808,94.4335881 192.4375,92.9609466 192.4375,91.140625 L192.4375,90.8945312 Z M194.746094,91.140625 C194.746094,92.4140689 195.015622,93.4374961 195.554688,94.2109375 C196.093753,94.9843789 196.914057,95.3710938 198.015625,95.3710938 C198.710941,95.3710938 199.292966,95.2128922 199.761719,94.8964844 C200.230471,94.5800765 200.617186,94.1328154 200.921875,93.5546875 L200.921875,87.71875 C200.624999,87.1796848 200.238284,86.7519547 199.761719,86.4355469 C199.285154,86.119139 198.710941,85.9609375 198.039062,85.9609375 C196.937494,85.9609375 196.113284,86.4218704 195.566406,87.34375 C195.019529,88.2656296 194.746094,89.4492115 194.746094,90.8945312 L194.746094,91.140625 Z M212.417969,90.0742188 C212.417969,86.9960784 213.039056,84.3671984 214.28125,82.1875 C215.523444,80.0078016 216.828118,78.5546911 218.195312,77.828125 L218.265625,77.8398438 L218.710938,79.1992188 C217.64062,80.0351604 216.708988,81.3749908 215.916016,83.21875 C215.123043,85.0625092 214.726562,87.3398302 214.726562,90.0507812 L214.726562,90.203125 C214.726562,92.9140761 215.12109,95.191397 215.910156,97.0351562 C216.699223,98.8789155 217.632807,100.253902 218.710938,101.160156 L218.265625,102.425781 L218.195312,102.425781 C216.828118,101.699215 215.523444,100.248058 214.28125,98.0722656 C213.039056,95.8964735 212.417969,93.2656404 212.417969,90.1796875 L212.417969,90.0742188 Z M222.8125,86.0195312 C223.250002,85.4101532 223.787106,84.9355486 224.423828,84.5957031 C225.06055,84.2558577 225.765621,84.0859375 226.539062,84.0859375 C227.890632,84.0859375 228.943356,84.4921834 229.697266,85.3046875 C230.451176,86.1171916 230.828125,87.3671791 230.828125,89.0546875 L230.828125,97 L228.519531,97 L228.519531,89.03125 C228.519531,87.9843698 228.294924,87.21094 227.845703,86.7109375 C227.396482,86.210935 226.726567,85.9609375 225.835938,85.9609375 C225.195309,85.9609375 224.615237,86.1113266 224.095703,86.4121094 C223.576169,86.7128921 223.148439,87.1210912 222.8125,87.6367188 L222.8125,97 L220.503906,97 L220.503906,78.71875 L222.8125,78.71875 L222.8125,86.0195312 Z M240.449219,97 L238.140625,97 L238.140625,82.1875 L234.648438,82.234375 L234.648438,80.5703125 L240.449219,79.9375 L240.449219,97 Z M252.34375,90.1796875 C252.34375,93.2656404 251.720709,95.8964735 250.474609,98.0722656 C249.228509,100.248058 247.925788,101.699215 246.566406,102.425781 L246.496094,102.425781 L246.050781,101.160156 C247.105474,100.33984 248.033199,98.9902438 248.833984,97.1113281 C249.63477,95.2324125 250.035156,92.9297011 250.035156,90.203125 L250.035156,90.0507812 C250.035156,87.3788929 249.623051,85.0996188 248.798828,83.2128906 C247.974605,81.3261624 247.058599,79.9531293 246.050781,79.09375 L246.496094,77.828125 L246.566406,77.828125 C247.925788,78.5546911 249.228509,80.0078016 250.474609,82.1875 C251.720709,84.3671984 252.34375,86.9960784 252.34375,90.0742188 L252.34375,90.1796875 Z" id="Main-Heading-(h1)"></path>
            <path d="M57.9882812,135.367188 L66.7421875,135.367188 L66.7421875,136 L57.34375,136 L57.34375,118.9375 L57.9882812,118.9375 L57.9882812,135.367188 Z M70.1875,136 L69.5546875,136 L69.5546875,123.320312 L70.1875,123.320312 L70.1875,136 Z M70.1875,119.335938 L69.5546875,119.335938 L69.5546875,117.71875 L70.1875,117.71875 L70.1875,119.335938 Z M73.75,129.648438 C73.75,127.640615 74.1718708,126.044928 75.015625,124.861328 C75.8593792,123.677728 77.0312425,123.085938 78.53125,123.085938 C79.5156299,123.085938 80.3710901,123.308592 81.0976562,123.753906 C81.8242224,124.199221 82.4023416,124.812496 82.8320312,125.59375 L82.9257812,123.320312 L83.4648438,123.320312 L83.4648438,136.070312 C83.4648438,137.679696 83.0410199,138.923824 82.1933594,139.802734 C81.3456989,140.681645 80.1718825,141.121094 78.671875,141.121094 C78.0546844,141.121094 77.4121127,141.056641 76.7441406,140.927734 C76.0761685,140.798827 75.49219,140.621095 74.9921875,140.394531 L75.1796875,139.761719 C75.7500029,140.01172 76.3007786,140.197265 76.8320312,140.318359 C77.3632839,140.439454 77.9687466,140.5 78.6484375,140.5 C80.0156318,140.5 81.0527308,140.119144 81.7597656,139.357422 C82.4668004,138.595699 82.8203125,137.500007 82.8203125,136.070312 L82.8203125,134.054688 C82.3906229,134.726566 81.8085974,135.259764 81.0742188,135.654297 C80.3398401,136.04883 79.4843799,136.246094 78.5078125,136.246094 C77.0156175,136.246094 75.8496136,135.675787 75.0097656,134.535156 C74.1699177,133.394526 73.75,131.847666 73.75,129.894531 L73.75,129.648438 Z M74.3945312,129.894531 C74.3945312,131.64454 74.742184,133.035151 75.4375,134.066406 C76.132816,135.097661 77.152337,135.613281 78.4960938,135.613281 C79.5976618,135.613281 80.5117151,135.365237 81.2382812,134.869141 C81.9648474,134.373044 82.4921859,133.710942 82.8203125,132.882812 L82.8203125,126.882812 C82.5078109,125.984371 82.0136753,125.232425 81.3378906,124.626953 C80.662106,124.021481 79.7226623,123.71875 78.5195312,123.71875 C77.1757745,123.71875 76.1523473,124.267573 75.4492188,125.365234 C74.7460902,126.462896 74.3945312,127.890616 74.3945312,129.648438 L74.3945312,129.894531 Z M88.1171875,125.992188 C88.5078145,125.070308 89.0820275,124.355471 89.8398438,123.847656 C90.59766,123.339841 91.523432,123.085938 92.6171875,123.085938 C93.9375066,123.085938 94.9394497,123.503902 95.6230469,124.339844 C96.306644,125.175785 96.6484375,126.492179 96.6484375,128.289062 L96.6484375,136 L96.0039062,136 L96.0039062,128.265625 C96.0039062,126.601554 95.6972687,125.427738 95.0839844,124.744141 C94.4707001,124.060543 93.6523489,123.71875 92.6289062,123.71875 C91.2617119,123.71875 90.2148474,124.126949 89.4882812,124.943359 C88.7617151,125.75977 88.3046884,126.804681 88.1171875,128.078125 L88.1171875,136 L87.484375,136 L87.484375,117.71875 L88.1171875,117.71875 L88.1171875,125.992188 Z M101.933594,119.898438 L101.933594,123.320312 L105.050781,123.320312 L105.050781,123.964844 L101.933594,123.964844 L101.933594,132.730469 C101.933594,133.769536 102.109373,134.509763 102.460938,134.951172 C102.812502,135.39258 103.277341,135.613281 103.855469,135.613281 C104.066407,135.613281 104.253905,135.605469 104.417969,135.589844 C104.582032,135.574219 104.808592,135.546875 105.097656,135.507812 L105.214844,136.082031 C105.01953,136.144532 104.816407,136.1875 104.605469,136.210938 C104.39453,136.234375 104.156251,136.246094 103.890625,136.246094 C103.039058,136.246094 102.39258,135.968753 101.951172,135.414062 C101.509763,134.859372 101.289062,133.96485 101.289062,132.730469 L101.289062,123.964844 L98.9453125,123.964844 L98.9453125,123.320312 L101.289062,123.320312 L101.289062,119.898438 L101.933594,119.898438 Z M126.273438,136 L125.640625,136 L125.640625,127.855469 L114.742188,127.855469 L114.742188,136 L114.109375,136 L114.109375,118.9375 L114.742188,118.9375 L114.742188,127.222656 L125.640625,127.222656 L125.640625,118.9375 L126.273438,118.9375 L126.273438,136 Z M134.957031,136.246094 C133.511712,136.246094 132.263677,135.662115 131.212891,134.494141 C130.162104,133.326166 129.636719,131.875009 129.636719,130.140625 L129.636719,129.390625 C129.636719,127.570303 130.144526,126.064459 131.160156,124.873047 C132.175786,123.681635 133.42968,123.085938 134.921875,123.085938 C136.35157,123.085938 137.517574,123.554683 138.419922,124.492188 C139.32227,125.429692 139.773438,126.687492 139.773438,128.265625 L139.773438,129.238281 L130.269531,129.238281 L130.269531,130.140625 C130.269531,131.671883 130.718746,132.966792 131.617188,134.025391 C132.515629,135.08399 133.6289,135.613281 134.957031,135.613281 C135.902348,135.613281 136.693356,135.484376 137.330078,135.226562 C137.9668,134.968749 138.511716,134.582034 138.964844,134.066406 L139.304688,134.558594 C138.804685,135.113284 138.197269,135.533202 137.482422,135.818359 C136.767575,136.103517 135.925786,136.246094 134.957031,136.246094 Z M134.921875,123.71875 C133.664056,123.71875 132.617192,124.17773 131.78125,125.095703 C130.945308,126.013676 130.472657,127.160149 130.363281,128.535156 L130.398438,128.605469 L139.140625,128.605469 L139.140625,128.21875 C139.140625,126.929681 138.750004,125.857426 137.96875,125.001953 C137.187496,124.14648 136.171881,123.71875 134.921875,123.71875 Z M150.683594,133.65625 C150.246092,134.421879 149.593754,135.044919 148.726562,135.525391 C147.859371,136.005862 146.8086,136.246094 145.574219,136.246094 C144.394525,136.246094 143.468753,135.923831 142.796875,135.279297 C142.124997,134.634762 141.789062,133.76563 141.789062,132.671875 C141.789062,131.60937 142.291011,130.718754 143.294922,130 C144.298833,129.281246 145.55468,128.921875 147.0625,128.921875 L150.683594,128.921875 L150.683594,127.070312 C150.683594,126.01562 150.345707,125.193362 149.669922,124.603516 C148.994137,124.013669 148.042975,123.71875 146.816406,123.71875 C145.667963,123.71875 144.744144,123.996091 144.044922,124.550781 C143.3457,125.105472 142.996094,125.820308 142.996094,126.695312 L142.46875,126.671875 L142.445312,126.613281 C142.398437,125.628901 142.781246,124.794925 143.59375,124.111328 C144.406254,123.427731 145.480462,123.085938 146.816406,123.085938 C148.175788,123.085938 149.265621,123.429684 150.085938,124.117188 C150.906254,124.804691 151.316406,125.796869 151.316406,127.09375 L151.316406,133.445312 C151.316406,133.890627 151.341797,134.324217 151.392578,134.746094 C151.44336,135.167971 151.527343,135.585935 151.644531,136 L150.941406,136 C150.839843,135.44531 150.771485,135.029298 150.736328,134.751953 C150.701172,134.474608 150.683594,134.175783 150.683594,133.855469 L150.683594,133.65625 Z M145.574219,135.625 C146.832038,135.625 147.89648,135.347659 148.767578,134.792969 C149.638676,134.238278 150.277342,133.445318 150.683594,132.414062 L150.683594,129.566406 L147.097656,129.566406 C145.78515,129.566406 144.677739,129.869138 143.775391,130.474609 C142.873042,131.080081 142.421875,131.828121 142.421875,132.71875 C142.421875,133.570317 142.708982,134.267575 143.283203,134.810547 C143.857425,135.353518 144.621089,135.625 145.574219,135.625 Z M154.808594,129.648438 C154.808594,127.640615 155.230465,126.044928 156.074219,124.861328 C156.917973,123.677728 158.089836,123.085938 159.589844,123.085938 C160.582036,123.085938 161.43945,123.308592 162.162109,123.753906 C162.884769,124.199221 163.460935,124.80859 163.890625,125.582031 L163.890625,117.71875 L164.523438,117.71875 L164.523438,136 L163.914062,136 L163.890625,134.03125 C163.468748,134.710941 162.888676,135.249998 162.150391,135.648438 C161.412106,136.046877 160.550786,136.246094 159.566406,136.246094 C158.074211,136.246094 156.908207,135.675787 156.068359,134.535156 C155.228511,133.394526 154.808594,131.847666 154.808594,129.894531 L154.808594,129.648438 Z M155.464844,129.894531 C155.464844,131.64454 155.810543,133.035151 156.501953,134.066406 C157.193363,135.097661 158.210931,135.613281 159.554688,135.613281 C160.656256,135.613281 161.572262,135.363284 162.302734,134.863281 C163.033207,134.363279 163.562498,133.695317 163.890625,132.859375 L163.890625,126.917969 C163.585936,126.011714 163.093753,125.251956 162.414062,124.638672 C161.734372,124.025388 160.789069,123.71875 159.578125,123.71875 C158.234368,123.71875 157.212894,124.267573 156.513672,125.365234 C155.81445,126.462896 155.464844,127.890616 155.464844,129.648438 L155.464844,129.894531 Z M169.316406,136 L168.683594,136 L168.683594,123.320312 L169.316406,123.320312 L169.316406,136 Z M169.316406,119.335938 L168.683594,119.335938 L168.683594,117.71875 L169.316406,117.71875 L169.316406,119.335938 Z M174.015625,123.320312 L174.097656,125.933594 C174.480471,125.027339 175.039059,124.326174 175.773438,123.830078 C176.507816,123.333982 177.414057,123.085938 178.492188,123.085938 C179.875007,123.085938 180.912106,123.52148 181.603516,124.392578 C182.294925,125.263676 182.640625,126.644522 182.640625,128.535156 L182.640625,136 L182.007812,136 L182.007812,128.511719 C182.007812,126.753897 181.693363,125.515629 181.064453,124.796875 C180.435544,124.078121 179.582037,123.71875 178.503906,123.71875 C177.136712,123.71875 176.105472,124.126949 175.410156,124.943359 C174.71484,125.75977 174.281251,126.804681 174.109375,128.078125 L174.109375,136 L173.476562,136 L173.476562,123.320312 L174.015625,123.320312 Z M186.015625,129.648438 C186.015625,127.640615 186.437496,126.044928 187.28125,124.861328 C188.125004,123.677728 189.296867,123.085938 190.796875,123.085938 C191.781255,123.085938 192.636715,123.308592 193.363281,123.753906 C194.089847,124.199221 194.667967,124.812496 195.097656,125.59375 L195.191406,123.320312 L195.730469,123.320312 L195.730469,136.070312 C195.730469,137.679696 195.306645,138.923824 194.458984,139.802734 C193.611324,140.681645 192.437508,141.121094 190.9375,141.121094 C190.320309,141.121094 189.677738,141.056641 189.009766,140.927734 C188.341794,140.798827 187.757815,140.621095 187.257812,140.394531 L187.445312,139.761719 C188.015628,140.01172 188.566404,140.197265 189.097656,140.318359 C189.628909,140.439454 190.234372,140.5 190.914062,140.5 C192.281257,140.5 193.318356,140.119144 194.025391,139.357422 C194.732425,138.595699 195.085938,137.500007 195.085938,136.070312 L195.085938,134.054688 C194.656248,134.726566 194.074222,135.259764 193.339844,135.654297 C192.605465,136.04883 191.750005,136.246094 190.773438,136.246094 C189.281243,136.246094 188.115239,135.675787 187.275391,134.535156 C186.435543,133.394526 186.015625,131.847666 186.015625,129.894531 L186.015625,129.648438 Z M186.660156,129.894531 C186.660156,131.64454 187.007809,133.035151 187.703125,134.066406 C188.398441,135.097661 189.417962,135.613281 190.761719,135.613281 C191.863287,135.613281 192.77734,135.365237 193.503906,134.869141 C194.230472,134.373044 194.757811,133.710942 195.085938,132.882812 L195.085938,126.882812 C194.773436,125.984371 194.2793,125.232425 193.603516,124.626953 C192.927731,124.021481 191.988287,123.71875 190.785156,123.71875 C189.4414,123.71875 188.417972,124.267573 187.714844,125.365234 C187.011715,126.462896 186.660156,127.890616 186.660156,129.648438 L186.660156,129.894531 Z M205.210938,129.132812 C205.210938,126.492174 205.681636,124.021496 206.623047,121.720703 C207.564458,119.41991 208.699212,117.867192 210.027344,117.0625 L210.097656,117.0625 L210.285156,117.484375 C209.089838,118.273441 208.050786,119.787098 207.167969,122.025391 C206.285152,124.263683 205.84375,126.617175 205.84375,129.085938 L205.84375,129.390625 C205.84375,131.8672 206.285152,134.224598 207.167969,136.462891 C208.050786,138.701183 209.089838,140.21484 210.285156,141.003906 L210.097656,141.425781 L210.027344,141.425781 C208.683587,140.605465 207.544927,139.080089 206.611328,136.849609 C205.67773,134.619129 205.210938,132.125014 205.210938,129.367188 L205.210938,129.132812 Z M225.097656,136 L224.464844,136 L224.464844,127.855469 L213.566406,127.855469 L213.566406,136 L212.933594,136 L212.933594,118.9375 L213.566406,118.9375 L213.566406,127.222656 L224.464844,127.222656 L224.464844,118.9375 L225.097656,118.9375 L225.097656,136 Z M235.164062,136.152344 L234.53125,136.152344 L234.53125,119.453125 L229.867188,120.367188 L229.867188,119.828125 L235.164062,118.84375 L235.164062,136.152344 Z M249.121094,136 L248.488281,136 L248.488281,117.71875 L249.121094,117.71875 L249.121094,136 Z M254.066406,136 L253.433594,136 L253.433594,123.320312 L254.066406,123.320312 L254.066406,136 Z M254.066406,119.335938 L253.433594,119.335938 L253.433594,117.71875 L254.066406,117.71875 L254.066406,119.335938 Z M257.628906,129.648438 C257.628906,127.640615 258.050777,126.044928 258.894531,124.861328 C259.738285,123.677728 260.910149,123.085938 262.410156,123.085938 C263.394536,123.085938 264.249996,123.308592 264.976562,123.753906 C265.703129,124.199221 266.281248,124.812496 266.710938,125.59375 L266.804688,123.320312 L267.34375,123.320312 L267.34375,136.070312 C267.34375,137.679696 266.919926,138.923824 266.072266,139.802734 C265.224605,140.681645 264.050789,141.121094 262.550781,141.121094 C261.933591,141.121094 261.291019,141.056641 260.623047,140.927734 C259.955075,140.798827 259.371096,140.621095 258.871094,140.394531 L259.058594,139.761719 C259.628909,140.01172 260.179685,140.197265 260.710938,140.318359 C261.24219,140.439454 261.847653,140.5 262.527344,140.5 C263.894538,140.5 264.931637,140.119144 265.638672,139.357422 C266.345707,138.595699 266.699219,137.500007 266.699219,136.070312 L266.699219,134.054688 C266.269529,134.726566 265.687504,135.259764 264.953125,135.654297 C264.218746,136.04883 263.363286,136.246094 262.386719,136.246094 C260.894524,136.246094 259.72852,135.675787 258.888672,134.535156 C258.048824,133.394526 257.628906,131.847666 257.628906,129.894531 L257.628906,129.648438 Z M258.273438,129.894531 C258.273438,131.64454 258.62109,133.035151 259.316406,134.066406 C260.011722,135.097661 261.031243,135.613281 262.375,135.613281 C263.476568,135.613281 264.390621,135.365237 265.117188,134.869141 C265.843754,134.373044 266.371092,133.710942 266.699219,132.882812 L266.699219,126.882812 C266.386717,125.984371 265.892582,125.232425 265.216797,124.626953 C264.541012,124.021481 263.601569,123.71875 262.398438,123.71875 C261.054681,123.71875 260.031254,124.267573 259.328125,125.365234 C258.624996,126.462896 258.273438,127.890616 258.273438,129.648438 L258.273438,129.894531 Z M271.996094,125.992188 C272.386721,125.070308 272.960934,124.355471 273.71875,123.847656 C274.476566,123.339841 275.402338,123.085938 276.496094,123.085938 C277.816413,123.085938 278.818356,123.503902 279.501953,124.339844 C280.18555,125.175785 280.527344,126.492179 280.527344,128.289062 L280.527344,136 L279.882812,136 L279.882812,128.265625 C279.882812,126.601554 279.576175,125.427738 278.962891,124.744141 C278.349606,124.060543 277.531255,123.71875 276.507812,123.71875 C275.140618,123.71875 274.093754,124.126949 273.367188,124.943359 C272.640621,125.75977 272.183595,126.804681 271.996094,128.078125 L271.996094,136 L271.363281,136 L271.363281,117.71875 L271.996094,117.71875 L271.996094,125.992188 Z M285.8125,119.898438 L285.8125,123.320312 L288.929688,123.320312 L288.929688,123.964844 L285.8125,123.964844 L285.8125,132.730469 C285.8125,133.769536 285.988279,134.509763 286.339844,134.951172 C286.691408,135.39258 287.156247,135.613281 287.734375,135.613281 C287.945314,135.613281 288.132812,135.605469 288.296875,135.589844 C288.460938,135.574219 288.687499,135.546875 288.976562,135.507812 L289.09375,136.082031 C288.898437,136.144532 288.695314,136.1875 288.484375,136.210938 C288.273436,136.234375 288.035158,136.246094 287.769531,136.246094 C286.917964,136.246094 286.271487,135.968753 285.830078,135.414062 C285.38867,134.859372 285.167969,133.96485 285.167969,132.730469 L285.167969,123.964844 L282.824219,123.964844 L282.824219,123.320312 L285.167969,123.320312 L285.167969,119.898438 L285.8125,119.898438 Z M295.304688,129.367188 C295.304688,132.125014 294.835942,134.619129 293.898438,136.849609 C292.960933,139.080089 291.824225,140.605465 290.488281,141.425781 L290.417969,141.425781 L290.230469,141.003906 C291.417975,140.21484 292.455074,138.701183 293.341797,136.462891 C294.22852,134.224598 294.671875,131.8672 294.671875,129.390625 L294.671875,129.085938 C294.671875,126.617175 294.22852,124.263683 293.341797,122.025391 C292.455074,119.787098 291.417975,118.273441 290.230469,117.484375 L290.417969,117.0625 L290.488281,117.0625 C291.8086,117.867192 292.941402,119.41991 293.886719,121.720703 C294.832036,124.021496 295.304688,126.492174 295.304688,129.132812 L295.304688,129.367188 Z" id="Light-Heading-(H1-li"></path>
            <path d="M65.5019531,169.416016 C65.5019531,168.764971 65.2578149,168.219729 64.7695312,167.780273 C64.2812476,167.340818 63.4153708,166.971356 62.171875,166.671875 C60.6679612,166.3138 59.4944704,165.786462 58.6513672,165.089844 C57.808264,164.393226 57.3867188,163.517583 57.3867188,162.462891 C57.3867188,161.356114 57.8408158,160.431644 58.7490234,159.689453 C59.6572311,158.947262 60.8339771,158.576172 62.2792969,158.576172 C63.8352942,158.576172 65.0738886,159.0026 65.9951172,159.855469 C66.9163458,160.708338 67.3606772,161.697911 67.328125,162.824219 L67.3085938,162.882812 L65.4726562,162.882812 C65.4726562,162.049475 65.1975939,161.375654 64.6474609,160.861328 C64.097328,160.347003 63.3079479,160.089844 62.2792969,160.089844 C61.3222608,160.089844 60.5882187,160.306313 60.0771484,160.739258 C59.5660782,161.172203 59.3105469,161.736976 59.3105469,162.433594 C59.3105469,163.052086 59.5872368,163.568032 60.140625,163.981445 C60.6940132,164.394859 61.5924417,164.757811 62.8359375,165.070312 C64.3333408,165.441408 65.4726523,165.988278 66.2539062,166.710938 C67.0351602,167.433597 67.4257812,168.328771 67.4257812,169.396484 C67.4257812,170.542323 66.9570359,171.463538 66.0195312,172.160156 C65.0820266,172.856774 63.8580805,173.205078 62.3476562,173.205078 C60.9283783,173.205078 59.6735081,172.820967 58.5830078,172.052734 C57.4925076,171.284501 56.9635415,170.255866 56.9960938,168.966797 L57.015625,168.908203 L58.8515625,168.908203 C58.8515625,169.819666 59.1868456,170.513018 59.8574219,170.988281 C60.5279981,171.463544 61.358068,171.701172 62.3476562,171.701172 C63.3177132,171.701172 64.0859347,171.496096 64.6523438,171.085938 C65.2187528,170.675779 65.5019531,170.119144 65.5019531,169.416016 Z M76.5761719,171.4375 C76.244139,172.003909 75.8177109,172.440103 75.296875,172.746094 C74.7760391,173.052085 74.1738315,173.205078 73.4902344,173.205078 C72.3378849,173.205078 71.4394563,172.837243 70.7949219,172.101562 C70.1503874,171.365882 69.828125,170.22006 69.828125,168.664062 L69.828125,162.433594 L71.7519531,162.433594 L71.7519531,168.683594 C71.7519531,169.809901 71.9179671,170.584633 72.25,171.007812 C72.5820329,171.430992 73.0996059,171.642578 73.8027344,171.642578 C74.4863315,171.642578 75.0511045,171.504233 75.4970703,171.227539 C75.9430361,170.950845 76.2799468,170.558596 76.5078125,170.050781 L76.5078125,162.433594 L78.4316406,162.433594 L78.4316406,173 L76.703125,173 L76.5761719,171.4375 Z M90.2578125,168.117188 C90.2578125,169.640633 89.8916052,170.869461 89.1591797,171.803711 C88.4267542,172.73796 87.4192772,173.205078 86.1367188,173.205078 C85.4401007,173.205078 84.834638,173.069988 84.3203125,172.799805 C83.805987,172.529621 83.379559,172.130862 83.0410156,171.603516 L82.8066406,173 L81.234375,173 L81.234375,157.765625 L83.1582031,157.765625 L83.1582031,163.683594 C83.490236,163.214841 83.9020158,162.856772 84.3935547,162.609375 C84.8850936,162.361978 85.4596321,162.238281 86.1171875,162.238281 C87.4192773,162.238281 88.4348922,162.759109 89.1640625,163.800781 C89.8932328,164.842453 90.2578125,166.212882 90.2578125,167.912109 L90.2578125,168.117188 Z M88.3339844,167.912109 C88.3339844,166.701166 88.1110048,165.71322 87.6650391,164.948242 C87.2190733,164.183264 86.5403691,163.800781 85.6289062,163.800781 C85.0364554,163.800781 84.5367859,163.945637 84.1298828,164.235352 C83.7229797,164.525067 83.3990897,164.91406 83.1582031,165.402344 L83.1582031,169.982422 C83.4056002,170.503258 83.7294902,170.910155 84.1298828,171.203125 C84.5302754,171.496095 85.0364553,171.642578 85.6484375,171.642578 C86.5533899,171.642578 87.2272113,171.320316 87.6699219,170.675781 C88.1126324,170.031247 88.3339844,169.178391 88.3339844,168.117188 L88.3339844,167.912109 Z M94.5253906,163.849609 C94.8899758,163.341794 95.3375625,162.94629 95.8681641,162.663086 C96.3987657,162.379881 96.9863249,162.238281 97.6308594,162.238281 C98.7571671,162.238281 99.634437,162.57682 100.262695,163.253906 C100.890954,163.930993 101.205078,164.972649 101.205078,166.378906 L101.205078,173 L99.28125,173 L99.28125,166.359375 C99.28125,165.486975 99.0940774,164.84245 98.7197266,164.425781 C98.3453757,164.009113 97.7871131,163.800781 97.0449219,163.800781 C96.511065,163.800781 96.0276714,163.926106 95.5947266,164.176758 C95.1617817,164.42741 94.8053399,164.767576 94.5253906,165.197266 L94.5253906,173 L92.6015625,173 L92.6015625,157.765625 L94.5253906,157.765625 L94.5253906,163.849609 Z M108.353516,173.205078 C106.882154,173.205078 105.711918,172.715174 104.842773,171.735352 C103.973628,170.755529 103.539062,169.484383 103.539062,167.921875 L103.539062,167.492188 C103.539062,165.988274 103.986649,164.736659 104.881836,163.737305 C105.777023,162.737951 106.836582,162.238281 108.060547,162.238281 C109.486335,162.238281 110.563798,162.667964 111.292969,163.527344 C112.022139,164.386723 112.386719,165.532545 112.386719,166.964844 L112.386719,168.166016 L105.53125,168.166016 L105.501953,168.214844 C105.521484,169.230474 105.778643,170.065426 106.273438,170.719727 C106.768232,171.374027 107.461584,171.701172 108.353516,171.701172 C109.004561,171.701172 109.575844,171.608399 110.067383,171.422852 C110.558922,171.237304 110.983722,170.981772 111.341797,170.65625 L112.09375,171.90625 C111.716144,172.277346 111.218102,172.586587 110.599609,172.833984 C109.981117,173.081381 109.232426,173.205078 108.353516,173.205078 Z M108.060547,163.751953 C107.416012,163.751953 106.865888,164.02376 106.410156,164.567383 C105.954425,165.111005 105.67448,165.792965 105.570312,166.613281 L105.589844,166.662109 L110.462891,166.662109 L110.462891,166.408203 C110.462891,165.652991 110.26107,165.021487 109.857422,164.513672 C109.453774,164.005857 108.854822,163.751953 108.060547,163.751953 Z M121.039062,173 C120.973958,172.680988 120.923503,172.399415 120.887695,172.155273 C120.851888,171.911132 120.830729,171.665366 120.824219,171.417969 C120.466144,171.925784 119.999026,172.350584 119.422852,172.692383 C118.846677,173.034181 118.226566,173.205078 117.5625,173.205078 C116.462234,173.205078 115.624026,172.923505 115.047852,172.360352 C114.471677,171.797198 114.183594,171.020838 114.183594,170.03125 C114.183594,169.02213 114.592118,168.23275 115.40918,167.663086 C116.226241,167.093422 117.334628,166.808594 118.734375,166.808594 L120.824219,166.808594 L120.824219,165.763672 C120.824219,165.145179 120.635419,164.655275 120.257812,164.293945 C119.880206,163.932615 119.346358,163.751953 118.65625,163.751953 C118.037757,163.751953 117.534833,163.909829 117.147461,164.225586 C116.760089,164.541343 116.566406,164.920571 116.566406,165.363281 L114.730469,165.363281 L114.710938,165.304688 C114.671875,164.536454 115.034827,163.833337 115.799805,163.195312 C116.564782,162.557288 117.552728,162.238281 118.763672,162.238281 C119.961595,162.238281 120.925127,162.54264 121.654297,163.151367 C122.383467,163.760094 122.748047,164.637364 122.748047,165.783203 L122.748047,170.871094 C122.748047,171.2487 122.767578,171.613279 122.806641,171.964844 C122.845703,172.316408 122.917317,172.661457 123.021484,173 L121.039062,173 Z M117.845703,171.59375 C118.542321,171.59375 119.17057,171.414715 119.730469,171.056641 C120.290367,170.698566 120.654947,170.288414 120.824219,169.826172 L120.824219,168.107422 L118.666016,168.107422 C117.891272,168.107422 117.271161,168.302732 116.805664,168.693359 C116.340167,169.083986 116.107422,169.542966 116.107422,170.070312 C116.107422,170.539065 116.253905,170.910155 116.546875,171.183594 C116.839845,171.457033 117.272784,171.59375 117.845703,171.59375 Z M125.101562,167.912109 C125.101562,166.212882 125.464515,164.842453 126.19043,163.800781 C126.916345,162.759109 127.933587,162.238281 129.242188,162.238281 C129.86068,162.238281 130.409177,162.352212 130.887695,162.580078 C131.366213,162.807944 131.774738,163.139972 132.113281,163.576172 L132.113281,157.765625 L134.037109,157.765625 L134.037109,173 L132.464844,173 L132.240234,171.701172 C131.895181,172.195966 131.472008,172.570311 130.970703,172.824219 C130.469399,173.078126 129.886722,173.205078 129.222656,173.205078 C127.933587,173.205078 126.924483,172.73796 126.195312,171.803711 C125.466142,170.869461 125.101562,169.640633 125.101562,168.117188 L125.101562,167.912109 Z M127.025391,168.117188 C127.025391,169.184901 127.243487,170.039385 127.679688,170.680664 C128.115888,171.321943 128.792964,171.642578 129.710938,171.642578 C130.283857,171.642578 130.765623,171.512371 131.15625,171.251953 C131.546877,170.991535 131.865884,170.626955 132.113281,170.158203 L132.113281,165.226562 C131.865884,164.790362 131.545249,164.443686 131.151367,164.186523 C130.757485,163.929361 130.283857,163.800781 129.730469,163.800781 C128.805985,163.800781 128.124026,164.181637 127.68457,164.943359 C127.245115,165.705082 127.025391,166.694655 127.025391,167.912109 L127.025391,168.117188 Z M138.988281,173 L137.064453,173 L137.064453,162.433594 L138.988281,162.433594 L138.988281,173 Z M138.988281,159.728516 L137.064453,159.728516 L137.064453,157.765625 L138.988281,157.765625 L138.988281,159.728516 Z M143.666016,162.433594 L143.802734,164.005859 C144.154299,163.445961 144.595375,163.011395 145.125977,162.702148 C145.656578,162.392902 146.260413,162.238281 146.9375,162.238281 C148.076829,162.238281 148.958981,162.571937 149.583984,163.239258 C150.208988,163.906579 150.521484,164.936842 150.521484,166.330078 L150.521484,173 L148.597656,173 L148.597656,166.369141 C148.597656,165.438146 148.413739,164.777346 148.045898,164.386719 C147.678058,163.996092 147.11654,163.800781 146.361328,163.800781 C145.80794,163.800781 145.318036,163.934243 144.891602,164.201172 C144.465167,164.4681 144.125001,164.83268 143.871094,165.294922 L143.871094,173 L141.947266,173 L141.947266,162.433594 L143.666016,162.433594 Z M152.894531,167.912109 C152.894531,166.212882 153.265621,164.842453 154.007812,163.800781 C154.750004,162.759109 155.775384,162.238281 157.083984,162.238281 C157.754561,162.238281 158.343747,162.373371 158.851562,162.643555 C159.359378,162.913738 159.78255,163.302732 160.121094,163.810547 L160.355469,162.433594 L161.888672,162.433594 L161.888672,173.058594 C161.888672,174.412767 161.494796,175.452796 160.707031,176.178711 C159.919267,176.904626 158.783211,177.267578 157.298828,177.267578 C156.791013,177.267578 156.242516,177.197592 155.65332,177.057617 C155.064125,176.917643 154.544924,176.727215 154.095703,176.486328 L154.583984,174.992188 C154.929038,175.187501 155.345701,175.345377 155.833984,175.46582 C156.322268,175.586264 156.804034,175.646484 157.279297,175.646484 C158.216802,175.646484 158.898761,175.43327 159.325195,175.006836 C159.75163,174.580402 159.964844,173.930994 159.964844,173.058594 L159.964844,171.867188 C159.61979,172.309898 159.206383,172.643554 158.724609,172.868164 C158.242836,173.092775 157.689456,173.205078 157.064453,173.205078 C155.768874,173.205078 154.750004,172.736333 154.007812,171.798828 C153.265621,170.861323 152.894531,169.634122 152.894531,168.117188 L152.894531,167.912109 Z M154.818359,168.117188 C154.818359,169.178391 155.042967,170.031247 155.492188,170.675781 C155.941408,171.320316 156.624995,171.642578 157.542969,171.642578 C158.122399,171.642578 158.60742,171.510744 158.998047,171.24707 C159.388674,170.983397 159.710936,170.610679 159.964844,170.128906 L159.964844,165.265625 C159.717447,164.816404 159.395184,164.459962 158.998047,164.196289 C158.600909,163.932616 158.122399,163.800781 157.5625,163.800781 C156.644527,163.800781 155.957685,164.184892 155.501953,164.953125 C155.046222,165.721358 154.818359,166.707676 154.818359,167.912109 L154.818359,168.117188 Z M169.544922,167.228516 C169.544922,164.663399 170.062495,162.472665 171.097656,160.65625 C172.132818,158.839835 173.220046,157.628909 174.359375,157.023438 L174.417969,157.033203 L174.789062,158.166016 C173.897131,158.862634 173.120772,159.979159 172.459961,161.515625 C171.79915,163.052091 171.46875,164.949858 171.46875,167.208984 L171.46875,167.335938 C171.46875,169.595063 171.797523,171.492831 172.455078,173.029297 C173.112633,174.565763 173.890621,175.711585 174.789062,176.466797 L174.417969,177.521484 L174.359375,177.521484 C173.220046,176.916013 172.132818,175.706715 171.097656,173.893555 C170.062495,172.080395 169.544922,169.888034 169.544922,167.316406 L169.544922,167.228516 Z M178.207031,163.849609 C178.571616,163.341794 179.019203,162.94629 179.549805,162.663086 C180.080406,162.379881 180.667966,162.238281 181.3125,162.238281 C182.438808,162.238281 183.316078,162.57682 183.944336,163.253906 C184.572594,163.930993 184.886719,164.972649 184.886719,166.378906 L184.886719,173 L182.962891,173 L182.962891,166.359375 C182.962891,165.486975 182.775718,164.84245 182.401367,164.425781 C182.027016,164.009113 181.468754,163.800781 180.726562,163.800781 C180.192706,163.800781 179.709312,163.926106 179.276367,164.176758 C178.843422,164.42741 178.486981,164.767576 178.207031,165.197266 L178.207031,173 L176.283203,173 L176.283203,157.765625 L178.207031,157.765625 L178.207031,163.849609 Z M196.625,173 L187.40625,173 L187.40625,171.681641 L192.064453,166.505859 C192.897791,165.574865 193.462564,164.83594 193.758789,164.289062 C194.055015,163.742185 194.203125,163.182295 194.203125,162.609375 C194.203125,161.899736 193.996421,161.302411 193.583008,160.817383 C193.169594,160.332354 192.621097,160.089844 191.9375,160.089844 C190.954422,160.089844 190.230146,160.34212 189.764648,160.84668 C189.299151,161.35124 189.066406,162.05924 189.066406,162.970703 L187.220703,162.970703 L187.201172,162.912109 C187.16862,161.688145 187.575517,160.659509 188.421875,159.826172 C189.268233,158.992834 190.440097,158.576172 191.9375,158.576172 C193.213548,158.576172 194.23079,158.94889 194.989258,159.694336 C195.747725,160.439782 196.126953,161.388666 196.126953,162.541016 C196.126953,163.315759 195.897463,164.092119 195.438477,164.870117 C194.97949,165.648116 194.336593,166.483068 193.509766,167.375 L189.769531,171.447266 L189.789062,171.496094 L196.625,171.496094 L196.625,173 Z M202.816406,167.316406 C202.816406,169.888034 202.297206,172.080395 201.258789,173.893555 C200.220372,175.706715 199.134771,176.916013 198.001953,177.521484 L197.943359,177.521484 L197.572266,176.466797 C198.451176,175.7832 199.224281,174.658536 199.891602,173.092773 C200.558923,171.52701 200.892578,169.608084 200.892578,167.335938 L200.892578,167.208984 C200.892578,164.982411 200.549157,163.083016 199.862305,161.510742 C199.175452,159.938469 198.412114,158.794274 197.572266,158.078125 L197.943359,157.023438 L198.001953,157.023438 C199.134771,157.628909 200.220372,158.839835 201.258789,160.65625 C202.297206,162.472665 202.816406,164.663399 202.816406,167.228516 L202.816406,167.316406 Z" id="Subheading-(h2)"></path>
            <path d="M63.40625,203.078125 C63.40625,202.604164 63.2304705,202.216147 62.8789062,201.914062 C62.527342,201.611978 61.9062545,201.341147 61.015625,201.101562 C59.7447853,200.768227 58.7669305,200.326826 58.0820312,199.777344 C57.397132,199.227862 57.0546875,198.507817 57.0546875,197.617188 C57.0546875,196.700516 57.43359,195.945315 58.1914062,195.351562 C58.9492225,194.75781 59.9270773,194.460938 61.125,194.460938 C62.3750062,194.460938 63.3789025,194.796872 64.1367188,195.46875 C64.894535,196.140628 65.2604168,196.947912 65.234375,197.890625 L65.21875,197.9375 L63.3984375,197.9375 C63.3984375,197.354164 63.2005228,196.881512 62.8046875,196.519531 C62.4088522,196.15755 61.8437537,195.976562 61.109375,195.976562 C60.4166632,195.976562 59.8841164,196.127603 59.5117188,196.429688 C59.1393211,196.731772 58.953125,197.122393 58.953125,197.601562 C58.953125,198.033856 59.1549459,198.393228 59.5585938,198.679688 C59.9622416,198.966147 60.6302037,199.236978 61.5625,199.492188 C62.7864645,199.820314 63.7161427,200.273435 64.3515625,200.851562 C64.9869823,201.42969 65.3046875,202.166662 65.3046875,203.0625 C65.3046875,204.010421 64.925785,204.76432 64.1679688,205.324219 C63.4101525,205.884117 62.4140687,206.164062 61.1796875,206.164062 C59.9921816,206.164062 58.9505253,205.850264 58.0546875,205.222656 C57.1588497,204.595049 56.7239582,203.73438 56.75,202.640625 L56.765625,202.59375 L58.59375,202.59375 C58.59375,203.286462 58.8333309,203.803384 59.3125,204.144531 C59.7916691,204.485679 60.4140587,204.65625 61.1796875,204.65625 C61.882816,204.65625 62.4296855,204.514324 62.8203125,204.230469 C63.2109395,203.946613 63.40625,203.562502 63.40625,203.078125 Z M72.328125,204.765625 C72.0624987,205.213544 71.7265645,205.558593 71.3203125,205.800781 C70.9140605,206.04297 70.4453152,206.164062 69.9140625,206.164062 C69.007808,206.164062 68.2994817,205.875003 67.7890625,205.296875 C67.2786433,204.718747 67.0234375,203.820319 67.0234375,202.601562 L67.0234375,197.546875 L68.9140625,197.546875 L68.9140625,202.617188 C68.9140625,203.356775 69.033853,203.874999 69.2734375,204.171875 C69.513022,204.468751 69.8749976,204.617188 70.359375,204.617188 C70.8177106,204.617188 71.2018214,204.535157 71.5117188,204.371094 C71.8216161,204.20703 72.0651033,203.968752 72.2421875,203.65625 L72.2421875,197.546875 L74.140625,197.546875 L74.140625,206 L72.484375,206 L72.328125,204.765625 Z M83.546875,202.054688 C83.546875,203.289069 83.2591175,204.282548 82.6835938,205.035156 C82.10807,205.787764 81.2968802,206.164062 80.25,206.164062 C79.7239557,206.164062 79.266929,206.057293 78.8789062,205.84375 C78.4908835,205.630207 78.166668,205.31771 77.90625,204.90625 L77.71875,206 L76.125,206 L76.125,193.8125 L78.0234375,193.8125 L78.0234375,198.507812 C78.2838555,198.148436 78.5963523,197.872397 78.9609375,197.679688 C79.3255227,197.486978 79.7499976,197.390625 80.234375,197.390625 C81.291672,197.390625 82.10807,197.802079 82.6835938,198.625 C83.2591175,199.447921 83.546875,200.536452 83.546875,201.890625 L83.546875,202.054688 Z M81.6484375,201.890625 C81.6484375,201.010412 81.4973973,200.299482 81.1953125,199.757812 C80.8932277,199.216143 80.4140658,198.945312 79.7578125,198.945312 C79.3359354,198.945312 78.9830743,199.039062 78.6992188,199.226562 C78.4153632,199.414063 78.190105,199.674477 78.0234375,200.007812 L78.0234375,203.554688 C78.1848966,203.893231 78.4088527,204.154947 78.6953125,204.339844 C78.9817723,204.524741 79.3411437,204.617188 79.7734375,204.617188 C80.4296908,204.617188 80.9062485,204.386721 81.203125,203.925781 C81.5000015,203.464841 81.6484375,202.84115 81.6484375,202.054688 L81.6484375,201.890625 Z M87.0625,198.640625 C87.3437514,198.24479 87.6861959,197.937501 88.0898438,197.71875 C88.4934916,197.499999 88.9401017,197.390625 89.4296875,197.390625 C90.3255253,197.390625 91.0247371,197.673174 91.5273438,198.238281 C92.0299504,198.803388 92.28125,199.674473 92.28125,200.851562 L92.28125,206 L90.3828125,206 L90.3828125,200.835938 C90.3828125,200.169267 90.2500013,199.687501 89.984375,199.390625 C89.7187487,199.093749 89.3203152,198.945312 88.7890625,198.945312 C88.419269,198.945312 88.0872411,199.022135 87.7929688,199.175781 C87.4986964,199.329428 87.2552093,199.541665 87.0625,199.8125 L87.0625,206 L85.1640625,206 L85.1640625,193.8125 L87.0625,193.8125 L87.0625,198.640625 Z M97.875,206.164062 C96.6770773,206.164062 95.7226598,205.772139 95.0117188,204.988281 C94.3007777,204.204423 93.9453125,203.197923 93.9453125,201.96875 L93.9453125,201.65625 C93.9453125,200.427077 94.2981736,199.407556 95.0039062,198.597656 C95.7096389,197.787756 96.5937447,197.385417 97.65625,197.390625 C98.7968807,197.390625 99.6705699,197.735674 100.277344,198.425781 C100.884118,199.115889 101.1875,200.041661 101.1875,201.203125 L101.1875,202.320312 L95.9140625,202.320312 L95.8984375,202.359375 C95.9296877,203.031253 96.1263003,203.580727 96.4882812,204.007812 C96.8502622,204.434898 97.3515593,204.648438 97.9921875,204.648438 C98.5026067,204.648438 98.9401023,204.585938 99.3046875,204.460938 C99.6692727,204.335937 100.020832,204.156251 100.359375,203.921875 L100.96875,205.164062 C100.65104,205.445314 100.229169,205.682291 99.703125,205.875 C99.1770807,206.067709 98.5677118,206.164062 97.875,206.164062 Z M97.65625,198.914062 C97.1874977,198.914062 96.8020848,199.100259 96.5,199.472656 C96.1979152,199.845054 96.010417,200.317705 95.9375,200.890625 L95.953125,200.929688 L99.3046875,200.929688 L99.3046875,200.734375 C99.3046875,200.197914 99.1679701,199.760418 98.8945312,199.421875 C98.6210924,199.083332 98.2083361,198.914062 97.65625,198.914062 Z M107.804688,206 C107.736979,205.786457 107.68099,205.578126 107.636719,205.375 C107.592448,205.171874 107.5625,204.968751 107.546875,204.765625 C107.286457,205.16146 106.944013,205.493488 106.519531,205.761719 C106.09505,206.029949 105.619794,206.164062 105.09375,206.164062 C104.213537,206.164062 103.537763,205.937502 103.066406,205.484375 C102.59505,205.031248 102.359375,204.408858 102.359375,203.617188 C102.359375,202.799475 102.682288,202.162763 103.328125,201.707031 C103.973962,201.2513 104.882807,201.023438 106.054688,201.023438 L107.53125,201.023438 L107.53125,200.28125 C107.53125,199.838539 107.401043,199.492189 107.140625,199.242188 C106.880207,198.992186 106.507815,198.867188 106.023438,198.867188 C105.591144,198.867188 105.247397,198.971353 104.992188,199.179688 C104.736978,199.388022 104.609375,199.656248 104.609375,199.984375 L102.78125,199.984375 L102.773438,199.9375 C102.736979,199.27083 103.035153,198.67969 103.667969,198.164062 C104.300784,197.648435 105.124995,197.390625 106.140625,197.390625 C107.125005,197.390625 107.919268,197.640623 108.523438,198.140625 C109.127607,198.640627 109.429688,199.35937 109.429688,200.296875 L109.429688,204.054688 C109.429688,204.403648 109.453125,204.73828 109.5,205.058594 C109.546875,205.378908 109.622395,205.692707 109.726562,206 L107.804688,206 Z M105.476562,204.640625 C105.955732,204.640625 106.386717,204.520835 106.769531,204.28125 C107.152346,204.041665 107.406249,203.768231 107.53125,203.460938 L107.53125,202.210938 L106.023438,202.210938 C105.471351,202.210938 105.039064,202.347655 104.726562,202.621094 C104.414061,202.894533 104.257812,203.216144 104.257812,203.585938 C104.257812,203.908856 104.36328,204.165364 104.574219,204.355469 C104.785157,204.545574 105.085936,204.640625 105.476562,204.640625 Z M111.070312,201.890625 C111.070312,200.54166 111.359372,199.454431 111.9375,198.628906 C112.515628,197.803381 113.32812,197.390625 114.375,197.390625 C114.833336,197.390625 115.243488,197.483072 115.605469,197.667969 C115.96745,197.852866 116.281249,198.117186 116.546875,198.460938 L116.546875,193.8125 L118.445312,193.8125 L118.445312,206 L116.851562,206 L116.664062,204.953125 C116.393228,205.34896 116.06771,205.649739 115.6875,205.855469 C115.30729,206.061199 114.864586,206.164062 114.359375,206.164062 C113.322911,206.164062 112.515628,205.786462 111.9375,205.03125 C111.359372,204.276038 111.070312,203.28386 111.070312,202.054688 L111.070312,201.890625 Z M112.96875,202.054688 C112.96875,202.835941 113.118488,203.458331 113.417969,203.921875 C113.717449,204.385419 114.192705,204.617188 114.84375,204.617188 C115.244794,204.617188 115.584634,204.531251 115.863281,204.359375 C116.141928,204.187499 116.369791,203.94271 116.546875,203.625 L116.546875,199.9375 C116.369791,199.624998 116.140626,199.381511 115.859375,199.207031 C115.578124,199.032551 115.244794,198.945312 114.859375,198.945312 C114.213538,198.945312 113.736981,199.217445 113.429688,199.761719 C113.122394,200.305992 112.96875,201.015621 112.96875,201.890625 L112.96875,202.054688 Z M122.507812,206 L120.609375,206 L120.609375,197.546875 L122.507812,197.546875 L122.507812,206 Z M122.507812,195.476562 L120.609375,195.476562 L120.609375,193.8125 L122.507812,193.8125 L122.507812,195.476562 Z M126.351562,197.546875 L126.460938,198.765625 C126.736981,198.333331 127.084633,197.996095 127.503906,197.753906 C127.923179,197.511718 128.395831,197.390625 128.921875,197.390625 C129.802088,197.390625 130.488279,197.657549 130.980469,198.191406 C131.472659,198.725263 131.71875,199.557286 131.71875,200.6875 L131.71875,206 L129.820312,206 L129.820312,200.703125 C129.820312,200.067705 129.688803,199.615887 129.425781,199.347656 C129.162759,199.079426 128.763024,198.945312 128.226562,198.945312 C127.856769,198.945312 127.526043,199.027343 127.234375,199.191406 C126.942707,199.35547 126.703126,199.580728 126.515625,199.867188 L126.515625,206 L124.617188,206 L124.617188,197.546875 L126.351562,197.546875 Z M133.351562,201.890625 C133.351562,200.546868 133.64583,199.460942 134.234375,198.632812 C134.82292,197.804683 135.64062,197.390625 136.6875,197.390625 C137.192711,197.390625 137.636717,197.498697 138.019531,197.714844 C138.402346,197.930991 138.726561,198.242185 138.992188,198.648438 L139.179688,197.546875 L140.757812,197.546875 L140.757812,206 C140.757812,207.088547 140.421878,207.929685 139.75,208.523438 C139.078122,209.11719 138.125006,209.414062 136.890625,209.414062 C136.479165,209.414062 136.035159,209.355469 135.558594,209.238281 C135.082029,209.121093 134.651044,208.966147 134.265625,208.773438 L134.671875,207.28125 C134.984377,207.442709 135.329425,207.56901 135.707031,207.660156 C136.084637,207.751303 136.473956,207.796875 136.875,207.796875 C137.562503,207.796875 138.065103,207.649741 138.382812,207.355469 C138.700522,207.061196 138.859375,206.609378 138.859375,206 L138.859375,205.132812 C138.593749,205.471356 138.27995,205.727864 137.917969,205.902344 C137.555988,206.076824 137.140627,206.164062 136.671875,206.164062 C135.635411,206.164062 134.82292,205.786462 134.234375,205.03125 C133.64583,204.276038 133.351562,203.28386 133.351562,202.054688 L133.351562,201.890625 Z M135.25,202.054688 C135.25,202.830733 135.404946,203.451821 135.714844,203.917969 C136.024741,204.384117 136.505205,204.617188 137.15625,204.617188 C137.562502,204.617188 137.904947,204.532553 138.183594,204.363281 C138.462241,204.19401 138.687499,203.950522 138.859375,203.632812 L138.859375,199.929688 C138.682291,199.622394 138.454428,199.381511 138.175781,199.207031 C137.897134,199.032551 137.562502,198.945312 137.171875,198.945312 C136.52083,198.945312 136.037762,199.218747 135.722656,199.765625 C135.407551,200.312503 135.25,201.020829 135.25,201.890625 L135.25,202.054688 Z M146.742188,201.375 C146.742188,199.322906 147.149736,197.57683 147.964844,196.136719 C148.779952,194.696607 149.661454,193.755211 150.609375,193.3125 L150.65625,193.320312 L151.007812,194.367188 C150.309892,194.89844 149.712242,195.749994 149.214844,196.921875 C148.717445,198.093756 148.46875,199.572908 148.46875,201.359375 L148.46875,201.515625 C148.46875,203.302092 148.716143,204.781244 149.210938,205.953125 C149.705732,207.125006 150.304684,207.994789 151.007812,208.5625 L150.65625,209.5625 L150.609375,209.5625 C149.656245,209.114581 148.773442,208.171882 147.960938,206.734375 C147.148433,205.296868 146.742188,203.552094 146.742188,201.5 L146.742188,201.375 Z M161.296875,206 L159.40625,206 L159.40625,201.148438 L154.3125,201.148438 L154.3125,206 L152.414062,206 L152.414062,194.625 L154.3125,194.625 L154.3125,199.625 L159.40625,199.625 L159.40625,194.625 L161.296875,194.625 L161.296875,206 Z M165.59375,199.453125 L166.914062,199.453125 C167.528649,199.453125 167.971353,199.300783 168.242188,198.996094 C168.513022,198.691405 168.648438,198.260419 168.648438,197.703125 C168.648438,197.156247 168.502606,196.733074 168.210938,196.433594 C167.919269,196.134113 167.489586,195.984375 166.921875,195.984375 C166.406247,195.984375 165.985679,196.131509 165.660156,196.425781 C165.334634,196.720054 165.171875,197.106768 165.171875,197.585938 L163.34375,197.585938 L163.328125,197.539062 C163.296875,196.669266 163.62109,195.938805 164.300781,195.347656 C164.980472,194.756507 165.846349,194.460938 166.898438,194.460938 C168.007818,194.460938 168.893226,194.742185 169.554688,195.304688 C170.216149,195.86719 170.546875,196.666661 170.546875,197.703125 C170.546875,198.187502 170.398439,198.656248 170.101562,199.109375 C169.804686,199.562502 169.382815,199.914061 168.835938,200.164062 C169.481774,200.39323 169.95703,200.742185 170.261719,201.210938 C170.566408,201.67969 170.71875,202.213539 170.71875,202.8125 C170.71875,203.854172 170.360681,204.673174 169.644531,205.269531 C168.928382,205.865888 168.013026,206.164062 166.898438,206.164062 C165.846349,206.164062 164.962243,205.884117 164.246094,205.324219 C163.529944,204.76432 163.1875,203.989588 163.21875,203 L163.234375,202.953125 L165.0625,202.953125 C165.0625,203.458336 165.231769,203.867186 165.570312,204.179688 C165.908856,204.492189 166.359372,204.648438 166.921875,204.648438 C167.51042,204.648438 167.973957,204.489585 168.3125,204.171875 C168.651043,203.854165 168.820312,203.403649 168.820312,202.820312 C168.820312,202.179684 168.665366,201.707033 168.355469,201.402344 C168.045571,201.097655 167.565107,200.945312 166.914062,200.945312 L165.59375,200.945312 L165.59375,199.453125 Z M176.101562,201.5 C176.101562,203.526052 175.686202,205.265618 174.855469,206.71875 C174.024735,208.171882 173.132817,209.119789 172.179688,209.5625 L172.132812,209.5625 L171.773438,208.5625 C172.466149,208.031247 173.062498,207.171881 173.5625,205.984375 C174.062502,204.796869 174.3125,203.307301 174.3125,201.515625 L174.3125,201.359375 C174.3125,199.588533 174.055992,198.108079 173.542969,196.917969 C173.029945,195.727859 172.440108,194.861982 171.773438,194.320312 L172.132812,193.3125 L172.179688,193.3125 C173.127609,193.750002 174.018225,194.697909 174.851562,196.15625 C175.6849,197.614591 176.101562,199.354157 176.101562,201.375 L176.101562,201.5 Z" id="Subheading-(H3)"></path>
        </g>
    </g>
</svg>