<?xml version="1.0" encoding="UTF-8" standalone="no"?>
<svg width="1766px" height="350px" viewBox="0 0 1766 350" version="1.1" xmlns="http://www.w3.org/2000/svg" xmlns:xlink="http://www.w3.org/1999/xlink">
    <!-- Generator: Sketch 41.2 (35397) - http://www.bohemiancoding.com/sketch -->
    <title>helix-header</title>
    <desc>Created with Sketch.</desc>
    <defs></defs>
    <g id="Page-1" stroke="none" stroke-width="1" fill="none" fill-rule="evenodd">
        <g id="helix-header">
            <polygon id="Shape" fill="#EF4F23" points="231.4 54.4 231.4 82.7 281 54.8 233.5 26.8 233.5 1 230.7 1 183.9 26.6"></polygon>
            <g id="Group">
                <polygon id="Shape" fill="#2E3192" points="1673 26.1 1673 12 1660.8 19.1"></polygon>
                <polyline id="Shape" fill="#EB1069" points="1533.2 106.3 1533.3 106.2 1533.4 106.3 1579.7 133 1579.7 162.5 1618.3 140.9 1618.3 130 1627.4 124.7 1627.4 106.2 1579.8 79.5 1579.8 66 1579.7 66 1533.3 92.8 1533.3 106.1"></polyline>
                <polygon id="Shape" fill="#CF3728" points="1627.4 123.7 1617.3 130 1617.3 140.9 1626.4 135.7"></polygon>
                <polygon id="Shape" fill="#ED1C24" points="1626.4 81.7 1626.3 81.6 1626.3 81.8 1587.9 59.7 1578 65.4 1578 79.5 1626.4 107.2 1674.5 79.5 1674.5 54.2 1674.5 54"></polygon>
                <polygon id="Shape" fill="#EB155C" points="1532.1 104.7 1532 104.7 1531.9 104.7 1531.9 104.8 1532 104.9 1532 135.8 1579.7 162.5 1581 132.9"></polygon>
                <polyline id="Shape" fill="#0D94A6" points="230.6 81.9 230.6 110.9 280.5 82 280.7 81.9 280.7 53.1"></polyline>
                <polygon id="Shape" fill="#5B6A40" points="186 80.1 138.1 107.7 186 135 233.4 107.6"></polygon>
                <polygon id="Shape" fill="#166DB6" points="1207.2 27.9 1208.6 28 1208.2 1 1160.8 1"></polygon>
                <polygon id="Shape" fill="#594A9E" points="1533.3 107.3 1533.3 94 1485.9 67.2 1485.9 79.5"></polygon>
                <polygon id="Shape" fill="#E41F26" points="278.9 1 278.9 1 278.9 28.1 324.1 1"></polygon>
                <polygon id="Shape" fill="#E31072" points="324.1 1 278.9 27.1 278.9 54.2 325.5 27.3 326.3 1"></polygon>
                <polygon id="Shape" fill="#00A3AD" points="164 40.3 139.8 26 115.6 40.4 139.5 54.7"></polygon>
                <polygon id="Shape" fill="#0D94A6" points="186 27.2 138.7 54.2 138.5 82.9 186 55.1 186 54.1"></polygon>
                <polygon id="Shape" fill="#0D94A6" points="94 53.1 46.6 80.9 46.6 134.6 93 161.4 139.5 134.6 139.5 134.1 94.4 107.4"></polygon>
                <polygon id="Shape" fill="#00A5CF" points="463.7 53 463.7 80.8 418.3 107.7 464.7 134.8 511.2 107.9 511.2 80.7"></polygon>
                <polygon id="Shape" fill="#40499F" points="1253 1.1 1253 1.1 1301.6 28.8 1301.6 1"></polygon>
                <polygon id="Shape" fill="#40499F" points="1395 26.5 1440.4 52.7 1451.2 46 1395 12.6 1300 66.4 1300 80.5 1347.7 107.2 1393.9 80.7 1440.8 107.2 1441.4 80.6 1395 54.1"></polygon>
                <polygon id="Shape" fill="#6B8BC7" points="1630.4 0.9 1622.8 0.9 1580 25.6 1579.8 25.5 1579.8 25.7 1579.8 25.9 1579.8 55 1589.3 60.5 1589.5 60.4 1661.1 19.1"></polygon>
                <polygon id="Shape" fill="#0089CC" points="1162.2 1 1156.7 1 1111.7 27.1 1160.7 54.6 1207.3 26.9"></polygon>
                <polygon id="Shape" fill="#CDA1CA" points="1487.1 24.6 1487.1 26.6 1486.9 26.8 1486.9 26.8 1486.9 26.9 1486.9 56 1533.2 82.7 1534.3 82.7 1534.3 51.4"></polygon>
                <polyline id="Shape" fill="#C21E5C" points="1486.8 0.9 1486.8 0.9 1486.9 0.9"></polyline>
                <polyline id="Shape" fill="#5488C6" opacity="0.1" points="1486.8 0.9 1486.8 0.9 1486.9 0.9"></polyline>
                <polygon id="Shape" fill="#EE2A24" points="1719.1 105.1 1694.1 119.7 1663.8 102.2 1642.5 114.5 1626.4 106.2 1626.4 135.7 1672.7 162.4 1710.2 141.1 1719.6 135.7"></polygon>
                <polygon id="Shape" fill="#EC407A" points="1114.3 14.1 1114.3 13.9 1114.3 13.9"></polygon>
                <polygon id="Shape" fill="#5488C6" points="835.5 14.2 835.5 14.2 835.5 0.9 835.5 0.9 835.5 0.9"></polygon>
                <polygon id="Shape" fill="#5488C6" points="835.5 14.2 835.5 0.9 835.5 0.9"></polygon>
                <polygon id="Shape" fill="#00A4C6" points="835.5 1 835.5 14.3 858.5 1"></polygon>
                <polygon id="Shape" fill="#EC407A" points="348.5 40.5 371.8 27.1 326.6 1 325.3 1 325.3 27.1"></polygon>
                <polygon id="Shape" fill="#5487C6" points="46.6 80.9 93 54.1 93 27.1 47.8 1 0.1 1 0.1 54"></polygon>
                <polygon id="Shape" fill="#14B9D4" points="464.7 133.8 418.3 107.7 418.3 134.6 464.7 161.4 511.2 134.6 511.2 106.9"></polygon>
                <polygon id="Shape" fill="#ADB7DD" points="325.3 161.5 278.9 187.9 324.1 214 371.8 187.9"></polygon>
                <polygon id="Shape" fill="#3073BA" points="511.2 54.1 511.2 54.5 512.6 54.3 512.5 1 508.6 1 463.5 27"></polygon>
                <polygon id="Shape" fill="#F47A20" points="186 27.2 232.2 1 186 1 186 27"></polygon>
                <polygon id="Shape" fill="#005EAD" points="47.8 1 93 27.1 93.1 1"></polygon>
                <polygon id="Shape" fill="#5CB2E4" points="556.8 1 556.8 14.9 557.6 14.4 580.7 1"></polygon>
                <polygon id="Shape" fill="#E9008A" points="371.8 187.9 418.3 161.5 418.3 134.6 371.8 161.4"></polygon>
                <polygon id="Shape" fill="#A5228E" points="371.8 161.4 324.3 133.6 324.3 161.5 371.8 187.9"></polygon>
                <polygon id="Shape" fill="#F9EDEA" points="278.9 161.4 232.4 134.6 232.4 161.5 278.9 187.9"></polygon>
                <polygon id="Shape" fill="#B21E8E" points="325.3 134.6 278.9 161.4 278.9 187.9 325.3 161.5"></polygon>
                <polygon id="Shape" fill="#722B90" points="278.7 81 232.4 107.8 232.4 134.6 277.6 160.6 278.9 161.4 325.3 134.6"></polygon>
                <polygon id="Shape" fill="#E6F1F7" points="139.5 134.6 139.5 161.5 186 188.3 232.4 161.5 232.4 134.6 186 161.4"></polygon>
                <polygon id="Shape" fill="#E2A225" points="186 134.2 162.9 120.9 139.8 134.2 139.5 134.1 139.5 134.6 186 161.4 232.4 134.6 232.4 107.8 232 107.6"></polygon>
                <polygon id="Shape" fill="#0D94A6" points="140.5 1 186 27.2 186 1"></polygon>
                <polygon id="Shape" fill="#3073BA" points="441.7 67.2 418.3 80.8 418.3 80.9 441.9 67.3"></polygon>
                <polygon id="Shape" fill="#15489E" points="417.3 52.8 418.3 80.8 441.7 67.2"></polygon>
                <polygon id="Shape" fill="#3073BA" points="464.7 54 441.7 67.2 441.9 67.3 464.7 54.1"></polygon>
                <polygon id="Shape" fill="#0D94A6" points="441.9 67.3 418.3 80.9 418.3 107.7 464.7 80.5 464.7 54.1"></polygon>
                <polygon id="Shape" fill="#3073BA" points="416 1 371.9 27.1 418.3 54.5 418.8 54.1 419.5 1"></polygon>
                <polygon id="Shape" fill="#006FBA" points="420.8 1 418.8 1 418.3 54.5 465.5 27"></polygon>
                <polygon id="Shape" fill="#2E3192" points="511.8 53.2 464.5 27 418.3 53.8 441.7 67.2 464.7 54 488.1 67.6 511.2 80.8"></polygon>
                <polygon id="Shape" fill="#4B2F92" points="371.8 1 371.8 26.9 371.8 27 371.8 27.1 371.9 27.1 372.1 27 417 1"></polygon>
                <polygon id="Shape" fill="#C21E5C" points="371.8 1 326.6 1 371.8 27.1 371.8 27.1 371.8 27.1 371.8 27.1 371.8 27 371.8 26.9"></polygon>
                <polygon id="Shape" fill="#2E3192" points="371.9 27.1 371.8 27.1 371.8 27.3 371.8 54 371.8 54.1 418.3 80.9 418.3 80.8 418.3 53.8"></polygon>
                <polygon id="Shape" fill="#AED582" points="371.8 54.1 371.8 80.9 418 107.6 418.3 107.7 418.3 107.4 418.3 80.9"></polygon>
                <polygon id="Shape" fill="#532E91" points="278.9 54.2 278.9 80.9 278.7 81 278.7 81.1 278.7 107.4 325.3 134.6 325.3 107.8 325.3 107.5 325.4 80.9"></polygon>
                <polygon id="Shape" fill="#EB155C" points="348.5 40.5 325.3 27.1 278.9 54.2 325.4 80.9 371.8 54.1 371.8 27.1"></polygon>
                <polygon id="Shape" fill="#BFDD9F" points="371.8 80.9 371.8 54.1 371.6 54.3 325.4 80.9 325.3 107.5 325.3 107.9 371.6 81.2 371.6 107.4 348.5 120.8 348.4 120.8 325.3 134.6 371.8 161.4 418.3 134.6 418.3 107.7"></polygon>
                <polygon id="Shape" fill="#B6D449" points="325.3 107.8 325.3 134.6 348.4 120.8 348.5 120.8 371.6 107.4 371.6 81.2"></polygon>
                <polygon id="Shape" fill="#ADB7DD" points="139.5 107.7 139.5 107.7 139.5 107.7 139.5 134.1 139.5 134.1 139.5 107.8"></polygon>
                <polygon id="Shape" fill="#0085A1" points="93.1 79.9 93.4 107.4 139.5 134.1 139.5 106.7"></polygon>
                <polygon id="Shape" fill="#00A5C7" points="140.5 1 93.1 1 93 54.1 139.5 80.9 139.5 53.8 139.5 53.7 116.6 40.4 139.8 27 163 40.3 186 27.2"></polygon>
                <polygon id="Shape" fill="#007888" points="93 54.1 93.1 80.9 139.5 107.7 139.5 80.9"></polygon>
                <polygon id="Shape" fill="#D78C2A" points="162.9 120.9 139.5 107.7 139.5 107.7 139.5 134.1 139.8 134.2"></polygon>
                <polygon id="Shape" fill="#3073BA" points="278.9 27.1 278.9 27.3 278.9 53.7 278.9 53.7"></polygon>
                <polygon id="Shape" fill="#ED1C24" points="234 1 232.5 1 232.5 27.4 278.9 54.2 279.2 1"></polygon>
                <polygon id="Shape" fill="#ED1C24" points="186 27.2 186 53.7 186 54 186 54.1 186.3 54.3 232.4 80.9 232.4 80.8 232.4 53.8"></polygon>
                <polygon id="Shape" fill="#E08B27" points="186.3 54.3 186 54.1 186 80.9 232.4 107.8 232.4 80.9"></polygon>
                <polygon id="Shape" fill="#847A3D" points="139.5 80.9 139.5 107.7 186 80.9 186 54.1"></polygon>
                <polygon id="Shape" fill="#C8E5C9" points="1068.1 107.6 1067.8 107.7 1067.8 107.8 1068.2 107.6"></polygon>
                <polygon id="Shape" fill="#5488C6" points="835.5 27 835.5 14.2 835.5 14.2"></polygon>
                <polygon id="Shape" fill="#C21E5C" opacity="0.1" points="835.5 27 835.5 14.2 835.5 14.2"></polygon>
                <polygon id="Shape" fill="#CF3728" points="1067.8 107.4 1067.8 107.7 1068.1 107.6"></polygon>
                <polygon id="Shape" fill="#EB008B" points="1114.6 174.4 1114.3 162.1 1067.8 135.3 1067.8 161.5 1114.3 188.3 1126.2 181.4"></polygon>
                <polygon id="Shape" fill="#F1F5D0" points="1113.5 133.8 1068.2 107.6 1068.1 107.6 1067.8 107.7 1067.8 107.7 1067.8 135.3 1113.5 161.6 1114 161.9 1114 134.1"></polygon>
                <polygon id="Shape" fill="#FCEEEE" points="974.9 107.7 974.9 161.3 1021.4 188.1 1067.8 161.3 1067.8 107.7 1021.4 80.9"></polygon>
                <polygon id="Shape" fill="#EF4966" points="975.9 1 973.8 1 928.5 1 928.5 27 974.9 53.8 1021.3 26.9"></polygon>
                <polygon id="Shape" fill="#CCDFD9" points="883 1 882.8 1 881.2 1 880.9 1 858.5 1 835.5 14.3 835.5 27.1 882 53.8 928.5 27 928.5 1"></polygon>
                <polygon id="Shape" points="1068.1 107.6 1068.2 107.6 1113.5 133.8 1114 134.1 1114.3 80.9"></polygon>
                <polygon id="Shape" fill="#EE255F" points="928.5 27 928.5 54.7 974.9 81.5 974.9 53.8"></polygon>
                <polygon id="Shape" fill="#CCDDD2" points="882 53.8 882 81.3 928.5 54.7 928.5 27"></polygon>
                <polygon id="Shape" fill="#FFF39E" points="882 107.7 835.5 80.9 835.5 134.2 835.5 134.2"></polygon>
                <polygon id="Shape" fill="#D1DA9C" points="882 81.3 882 53.8 835.5 27.1 835.5 54.6"></polygon>
                <polygon id="Shape" fill="#E8F6FE" points="1253.7 189.4 1253.7 162.3 1253.7 161.1 1253 161.5 1207.2 187.9 1207.2 215.5 1253 243.1 1253.7 242.6 1253.7 201.9"></polygon>
                <path d="M1300.3,0.9 L1300.1,0.9" id="Shape"></path>
                <polygon id="Shape" fill="#E5EBF7" points="1253 135.5 1253 135.5 1207.2 161.9 1160.8 135.1 1160.8 161.1 1207.2 187.9 1207.2 187.9 1207.2 161.9"></polygon>
                <polygon id="Shape" fill="#40499E" points="1161.1 107.3 1160.8 107.5 1160.8 107.7 1161.3 107.4"></polygon>
                <polygon id="Shape" fill="#00A2E1" points="1161.1 107.3 1160.8 107.5 1160.8 107.7 1161.3 107.4"></polygon>
                <path id="Shape"></path>
                <path id="Shape"></path>
                <polygon id="Shape" fill="#23C4F4" points="1253 135.5 1207.2 161.9 1207.2 187.9 1253 161.5 1253.7 161.1 1253.7 135.1"></polygon>
                <polygon id="Shape" fill="#EB519D" points="1160.8 135.3 1114.3 162.1 1114 161.9 1114 175 1125.7 181.7 1160.8 161.4"></polygon>
                <polygon id="Shape" fill="#BCE6FB" points="1160.8 107.4 1114.3 134.2 1114 134.1 1114 161.9 1114.3 162.1 1160.8 135.3"></polygon>
                <polygon id="Shape" fill="#00A2E1" points="1253.7 135.1 1253.7 108.2 1253.7 107.9 1253.7 107.7 1253.6 107.7 1253.6 107.5 1253.3 107.3 1253.1 107.4 1253 107.4 1207.2 133.9 1161.3 107.4 1160.8 107.7 1160.8 135.1 1207.2 161.9 1253 135.5"></polygon>
                <polygon id="Shape" fill="#40499E" points="1253 81.1 1253 81.1 1207.2 54.7 1207.2 54.7"></polygon>
                <polygon id="Shape" fill="#40499E" opacity="0.1" points="1253 81.1 1253 81.1 1207.2 54.7 1207.2 54.7"></polygon>
                <polygon id="Shape" fill="#40499E" opacity="0.1" points="1207.2 54.7 1160.7 81.5 1160.7 81.5"></polygon>
                <polygon id="Shape" fill="#40499F" points="1207.2 1 1207.2 27.9 1253.6 1"></polygon>
                <polygon id="Shape" fill="#3558A8" points="1300.9 26.2 1254.4 1 1252.5 1 1207.2 26.9 1251 53.6 1251 84.6 1303.8 54.2 1303.8 24.6"></polygon>
                <polygon id="Shape" fill="#00A2E1" points="1207.2 54.7 1207.2 54.7 1207.2 54.7 1207.2 54.7 1207.2 54.7 1160.7 81.5 1160.8 107 1160.8 107.5 1161.1 107.3 1207.2 80.7 1207.2 80.7 1207.2 80.7 1253.6 107.7 1253.7 107.7 1253.7 81.5"></polygon>
                <polygon id="Shape" fill="#40499E" points="1253 81.1 1253 81.1 1253.6 81.5 1253.6 81.5"></polygon>
                <polygon id="Shape" fill="#40499E" opacity="0.1" points="1253 81.1 1253 81.1 1253.6 81.5 1253.6 81.5"></polygon>
                <polygon id="Shape" fill="#22BDEB" points="1253 107.1 1207.2 80.7 1207.2 80.7 1207.2 80.7 1161.1 107.3 1161.3 107.4 1207.2 133.9 1253 107.4 1253.1 107.4 1253.3 107.3"></polygon>
                <polygon id="Shape" fill="#594A9E" points="1136.9 1 1135.6 1 1114.3 12.9 1114.3 27.1 1114.4 27.1 1159.5 1"></polygon>
                <polygon id="Shape" fill="#F04F67" points="1114.3 27.1 1114.3 26.1 1067.2 52.8 1067.3 82.2 1114.3 55.3"></polygon>
                <polygon id="Shape" fill="#ED135D" points="1090.4 1 1068.9 0.9 975.9 0.9 1021.3 26.9 1021.4 54.7 1067.8 81.5 1067.8 53.8 1114.3 27.1 1114.3 14.1"></polygon>
                <polygon id="Shape" fill="#40499F" points="1207.2 26.9 1160.8 53.8 1114.3 27.1 1114.3 54.7 1160.7 81.5 1207.2 54.7 1253 81.1 1253.6 81.5 1253.6 53.8"></polygon>
                <polygon id="Shape" fill="#A9E0FA" points="1160.7 81.5 1114.3 54.7 1114.3 54.9 1114.3 80.9 1160.5 107.6 1160.8 107.4"></polygon>
                <polygon id="Shape" fill="#FFF39E" points="1067.8 81.5 1067.8 107.4 1067.8 107.7 1068.1 107.6 1114.3 80.9 1114.3 54.7"></polygon>
                <polygon id="Shape" fill="#ADE1FA" points="1114.3 80.9 1114 134.1 1114.3 134.2 1160.5 107.6"></polygon>
                <polygon id="Shape" fill="#5488C6" points="1114.3 1 1114.3 1.1 1114.3 13.9 1136.6 1"></polygon>
                <polygon id="Shape" fill="#D6A3CB" points="1113.5 14.4 1114.3 13.9 1114.3 1 1114.3 1 1090.4 1"></polygon>
                <polygon id="Shape" fill="#E9F6F9" points="602.9 1 556.8 26.6 603.4 54.2 603.4 81.3 649.7 54.7 649.7 27.1 604.5 1"></polygon>
                <polygon id="Shape" fill="#5CB2E4" points="790.1 0.9 788 0.9 742.6 27.1 742.6 54.5 789 81.4 789.1 81.3 789.1 53.8 835.5 27.1"></polygon>
                <polygon id="Shape" fill="#0E7C84" points="695 0.9 649.7 27.1 649.7 54.7 696.1 81.5 742.6 54.7 742.6 27.1 697.2 0.9"></polygon>
                <polygon id="Shape" fill="#1EA8C2" points="695 0.9 649.7 27.1 649.7 54.7 696.1 81.5 742.6 54.7 742.6 27.1 697.2 0.9"></polygon>
                <polygon id="Shape" fill="#E7F5F9" points="649.7 27.1 649.7 1 604.5 1"></polygon>
                <polygon id="Shape" fill="#00A5C1" points="649.7 27.1 695 0.9 649.7 1"></polygon>
                <polygon id="Shape" fill="#0096D7" points="835.5 0.9 811.6 0.9 790.1 0.9 835.5 27.1 835.5 14.2"></polygon>
                <polygon id="Shape" fill="#0E7C84" points="742.6 27.1 742.6 27.1 742.6 27.1 742.6 0.9 742.6 0.9 742.3 0.9 742.6 1.1"></polygon>
                <polygon id="Shape" fill="#0E7C84" opacity="0.1" points="742.6 27.1 742.6 27.1 742.6 27.1 742.6 0.9 742.6 0.9 742.3 0.9 742.6 1.1"></polygon>
                <polygon id="Shape" fill="#0E7C84" points="742.6 27.1 788 0.9 742.6 0.9 742.6 0.9"></polygon>
                <polygon id="Shape" fill="#0099D9" points="742.6 27.1 788 0.9 742.6 0.9 742.6 0.9"></polygon>
                <polygon id="Shape" fill="#0E7C84" points="742.6 27.1 742.6 1.1 742.3 0.9 697.2 0.9"></polygon>
                <polygon id="Shape" fill="#0099A6" points="742.6 27.1 742.6 1.1 742.3 0.9 697.2 0.9"></polygon>
                <polygon id="Shape" fill="#F4F8EF" points="696.1 107.5 696.1 161.1 742.6 187.9 789 161.1 789 107.5 742.6 80.7"></polygon>
                <g transform="translate(789.000000, 54.000000)" id="Shape" fill="#F3F0A5">
                    <polygon points="93 27.3 46.5 0.6 46.5 26.9 93 53.7"></polygon>
                    <polygon points="0.1 27.3 0.1 53.4 46.5 80.2 46.5 80.2 46.5 0.6"></polygon>
                </g>
                <polygon id="Shape" fill="#009BDB" points="789.1 53.8 789.1 81.3 835.5 54.6 835.5 27.1"></polygon>
                <polygon id="Shape" fill="#7AD2F3" points="580.7 1 557.6 14.4 556.8 14.9 556.8 26.6 602.9 1"></polygon>
                <polygon id="Shape" fill="#006DB8" points="514.2 1 511.6 1 511.2 80.8 556.7 54.5 556.8 25.6"></polygon>
                <polygon id="Shape" fill="#2D54A5" points="512.5 1 556.8 26.6 556.8 14.9 556.8 1"></polygon>
                <polygon id="Shape" fill="#E6F1F7" points="556.8 26.6 556.8 54.5 556.8 54.7 603.2 81.5 603.4 81.3 603.4 54.2"></polygon>
                <polygon id="Shape" fill="#5488C6" points="1533.1 106.2 1532.9 106.3 1533.1 106.3 1533.2 106.3 1533.2 106.3"></polygon>
                <polygon id="Shape" fill="#E1EFEA" points="1301.7 322.4 1348.2 349.2 1382.5 329.3 1301.7 282.9"></polygon>
                <path d="M1533.1,106.2 L1533.2,106.3" id="Shape"></path>
                <polygon id="Shape" fill="#D6ECF5" points="1765.6 25.6 1719.1 52.5 1719.1 52.5 1719.1 81.6 1765.6 55.2"></polygon>
                <polygon id="Shape" fill="#E6F1F7" points="1719.1 81.6 1719.1 106.1 1765.6 79.5 1765.6 55.2"></polygon>
                <polygon id="Shape" fill="#FDDD72" points="1672.7 162.4 1626.4 135.7 1617.3 140.9 1617.3 165.4 1626.2 160.2 1672.7 187 1672.7 205.3 1688.8 195.9 1672.7 187"></polygon>
                <polygon id="Shape" fill="#E9008A" points="1532.2 242.9 1531.6 254.8 1521.6 260.8 1533.3 267.5 1579.7 240.7 1579.7 216.5 1533.2 243.4"></polygon>
                <polygon id="Shape" fill="#BFDD9F" points="1533.3 213.4 1532.6 213 1532.6 243.1 1533.2 243.4 1579.7 216.5 1579.7 187"></polygon>
                <polygon id="Shape" fill="#F9EDEA" points="1626.2 160.2 1617.3 165.4 1579.7 187 1579.7 240.7 1626.2 267.5 1672.7 240.7 1672.7 205.3 1672.7 187"></polygon>
                <polygon id="Shape" fill="#D6ECF5" points="1765.6 25.6 1765.6 0.9 1722.7 0.9"></polygon>
                <polygon id="Shape" fill="#73CEF0" points="1722.7 0.9 1715.6 0.9 1672.7 25.7 1719.1 52.5 1765.6 25.6"></polygon>
                <polygon id="Shape" fill="#C8E5C9" points="1486.9 68.2 1486.9 67.3 1486.9 67.3"></polygon>
                <polygon id="Shape" fill="#492F92" points="1672.7 25.7 1661.1 19.1 1661.1 19.1 1614.9 45.7 1589.5 60.4 1589.3 60.5 1626.3 81.8 1626.3 81.6 1626.4 81.7 1672.7 55 1672.7 55"></polygon>
                <polygon id="Shape" fill="#DAEACF" points="1672.7 25.7 1672.7 25.7 1672.7 55 1672.7 55 1672.7 55 1719.1 81.6 1719.1 81.4 1719.1 52.5"></polygon>
                <polygon id="Shape" fill="#F04A23" points="1672.7 55 1672.7 55 1672.7 55.2 1672.7 79.5 1626.4 106.2 1642.4 115.5 1663.8 103.2 1694.1 120.7 1718.9 106.2 1719.1 106.1 1719.1 81.6"></polygon>
                <polygon id="Shape" fill="#C21E5C" points="1533.2 106.3 1533.2 106.4 1533.2 106.4"></polygon>
                <polygon id="Shape" fill="#C21E5C" points="1533.2 106.4 1533.2 106.3 1533.1 106.3"></polygon>
                <polygon id="Shape" fill="#BFDD9F" points="1533.3 135.7 1533.3 135.9 1533.3 160.1 1532.6 160.5 1532.6 160.6 1533.3 160.2 1579.7 187 1579.7 162.7 1579.7 162.5"></polygon>
                <polygon id="Shape" fill="#C21E5C" points="1533.2 106.3 1533.2 106.3 1533.3 106.3 1533.4 106.3 1533.3 106.2"></polygon>
                <polygon id="Shape" fill="#C21E5C" points="1533.3 135.7 1533.3 106.5 1533.2 106.4 1533.2 135.7"></polygon>
                <polygon id="Shape" fill="#B6D449" points="1533.3 213.4 1579.7 187 1533.3 160.2 1532.6 160.6 1532.6 213"></polygon>
                <polygon id="Shape" fill="#E6F1F7" points="1710.2 141.1 1710.2 183.6 1688.8 195.9 1719.2 213.4 1765.6 186.6 1765.6 133 1719.1 106.1 1719.6 135.7"></polygon>
                <polygon id="Shape" fill="#EDCA19" points="1710.2 141.1 1672.7 162.4 1672.7 187 1688.8 195.9 1710.2 183.6"></polygon>
                <polygon id="Shape" fill="#E3F2FB" points="1299.4 229.1 1299 228.8 1288.8 222.8 1253.7 242.6 1253.7 243.1 1263.9 249.1 1299.4 270 1301.7 268.7 1301.7 241.1 1301.7 227.8"></polygon>
                <polygon id="Shape" fill="#007747" points="1253.7 201.9 1253.7 242.6 1288.8 222.8"></polygon>
                <polygon id="Shape" fill="#40499E" opacity="0.1" points="1253.7 201.9 1253.7 242.6 1288.8 222.8"></polygon>
                <polygon id="Shape" fill="#40C7F4" points="1253.7 201.9 1253.7 242.6 1288.8 222.8"></polygon>
                <polygon id="Shape" fill="#95DAF8" points="1277.5 175.6 1253.7 162.3 1253.7 189.4 1253.7 201.9 1288.8 222.8 1300.2 216.3 1300.2 188.3"></polygon>
                <polygon id="Shape" fill="#40499E" opacity="0.1" points="1264.6 142 1253.7 135.7 1253.7 148.3 1253.7 162.3 1277.5 175.6 1299.4 162.8 1300.2 163.2 1300.2 162.5"></polygon>
                <polygon id="Shape" fill="#E6F4F6" points="1299.4 162.8 1277.5 175.6 1300.2 188.3 1300.2 163.2"></polygon>
                <polygon id="Shape" fill="#40499E" opacity="0.1" points="1299.4 162.8 1277.5 175.6 1300.2 188.3 1300.2 163.2"></polygon>
                <polygon id="Shape" fill="#40499E" opacity="0.1" points="1299.4 162.8 1277.5 175.6 1300.2 188.3 1300.2 163.2"></polygon>
                <polygon id="Shape" fill="#144A9E" points="1253.7 106.7 1253.7 106.7 1253.7 108.1 1301 80.8 1301 66.4 1253.7 93.6"></polygon>
                <polygon id="Shape" fill="#40499F" points="1253.7 94.6 1253.7 94.6 1253.7 94.6 1301.5 67.2 1301.5 54 1253.7 81.5"></polygon>
                <polygon id="Shape" fill="#E6F4F6" points="1394.6 241.1 1394.6 268.8 1394.6 281.5 1394.6 322.4 1392.8 323.4 1393.3 323.8 1439.9 296.9 1439.9 266.8 1394.6 240.7"></polygon>
                <polygon id="Shape" fill="#E8F6FE" points="1394.6 241.1 1394.6 268.8 1394.6 281.5 1394.6 322.4 1392.8 323.4 1393.3 323.8 1439.9 296.9 1439.9 266.8 1394.6 240.7"></polygon>
                <polygon id="Shape" fill="#E3F2FB" points="1357.3 303 1348.2 308.3 1301.7 281.5 1301.7 282.9 1382.5 329.3 1392.8 323.4"></polygon>
                <polygon id="Shape" fill="#00C1F3" points="1394.6 281.5 1357.3 303 1392.8 323.4 1394.6 322.4"></polygon>
                <polygon id="Shape" fill="#64CBF4" points="1325.6 254.9 1301.7 241.1 1301.7 268.7 1301.7 268.8 1325.7 254.9"></polygon>
                <polygon id="Shape" fill="#85D5F7" points="1394.6 268.8 1394.6 241.1 1370.6 254.9"></polygon>
                <polygon id="Shape" fill="#ECF5FC" points="1346.8 267.1 1325.7 254.9 1301.7 268.8 1301.7 281.5 1348.2 308.3 1357.3 303 1346.8 296.9"></polygon>
                <polygon id="Shape" fill="#85D5F7" points="1394.6 268.8 1370.6 254.9 1348.2 267.9 1346.8 267.1 1346.8 296.9 1357.3 303 1394.6 281.5"></polygon>
                <polygon id="Shape" fill="#5488C6" points="1440.4 81.6 1440.4 81.5 1440.4 81.5 1440.4 81.7"></polygon>
                <polygon id="Shape" fill="#40499E" opacity="0.1" points="1440.4 81.6 1440.4 81.5 1440.4 81.5 1440.4 81.7"></polygon>
                <polygon id="Shape" fill="#EEF6FC" points="1310.4 222.2 1301.7 217.2 1300.2 216.3 1288.8 222.8 1299 228.8 1299.4 229.1 1301.7 227.8 1310.8 222.5"></polygon>
                <polygon id="Shape" fill="#E3F2FB" points="1345.9 242.7 1310.9 222.5 1310.8 222.5 1301.7 227.8 1301.7 227.8 1301.7 241.1 1325.6 254.9 1325.7 254.9 1346.3 243"></polygon>
                <path id="Shape"></path>
                <path id="Shape"></path>
                <path id="Shape"></path>
                <path id="Shape"></path>
                <polygon id="Shape" fill="#40499E" points="1394.6 217 1394.6 227.8 1394.6 240.7 1439.9 266.8 1439.9 243.2"></polygon>
                <polygon id="Shape" fill="#23C4F4" points="1394.6 217 1394.6 227.8 1394.6 240.7 1439.9 266.8 1439.9 243.2"></polygon>
                <polygon id="Shape" fill="#E6F6FD" points="1394 216.7 1394 216.5 1393.4 216.2 1393.3 216.2 1383.9 221.7 1348.4 242.1 1346.8 243.1 1346.8 243.2 1346.8 267.1 1348.2 267.9 1370.6 254.9 1394.6 241.1 1394.6 240.7 1394.6 227.8 1394.6 217"></polygon>
                <polygon id="Shape" fill="#EB519D" points="1532.6 243.1 1486.6 216.3 1486.8 240.3 1522.4 261.2 1532.6 255.3"></polygon>
                <polygon id="Shape" fill="#BCE6FB" points="1487.2 186.8 1487.1 186.8 1486.9 186.9 1486.8 186.9 1486.6 186.8 1486.6 186.7 1486.6 216.3 1440 243.2 1439.9 243.2 1439.9 266.8 1440.4 267.1 1486.8 240.3 1486.6 216.3 1486.6 216.3 1532.6 243.1 1532.6 213"></polygon>
                <polygon id="Shape" fill="#14B9D4" points="1394 55.1 1393.9 55 1393.9 55.1 1394 55.2"></polygon>
                <polygon id="Shape" fill="#40499E" opacity="0.1" points="1394 55.1 1393.9 55 1393.9 55.1 1394 55.2"></polygon>
                <polygon id="Shape" fill="#166DB6" points="1486.9 67.2 1475.3 60.5 1440.4 80.5 1440.4 106.8 1486.9 80.5"></polygon>
                <polygon id="Shape" fill="#3558A7" points="1450.8 45.8 1440.4 52.3 1394 25.5 1394 25.9 1394 55.1 1440.4 81.5 1440.4 81.5 1476.2 61.5"></polygon>
                <polygon id="Shape" fill="#E6F4F6" points="1346.8 135.6 1347.5 136.1 1347.5 136.1"></polygon>
                <polygon id="Shape" fill="#40499E" opacity="0.1" points="1346.8 135.6 1347.5 136.1 1347.5 136.1"></polygon>
                <polygon id="Shape" fill="#325DAB" points="1393.9 79.7 1347.5 106.3 1301 79.5 1253.7 107.7 1253.7 107.7 1253.7 107.7 1253.7 135.7 1301.7 163.2 1346.8 136.6 1394.6 163.8 1394.6 133 1441.6 106.3"></polygon>
                <polygon id="Shape" fill="#3F4BA0" points="1394 186.2 1394 162.2 1346.8 135.6 1300.2 162.5 1300.2 216.3 1346.8 243.2 1346.8 243.1 1394 216.5 1394 187.4 1394 187.1 1394 186.9 1394 186.7 1394.3 186.5"></polygon>
                <polygon id="Shape" fill="#00A2E1" points="1486.6 186.7 1486.6 186.5 1486.5 186.5 1486.3 186.6 1440.4 213.1 1394.6 186.6 1394.5 186.6 1394.3 186.5 1394 186.7 1394 186.9 1394 187.1 1394 187.4 1394 216.5 1394 216.7 1394.6 217 1439.9 243.2 1440.1 243.1 1486.6 216.3"></polygon>
                <polygon id="Shape" fill="#40499F" points="1440.4 159.9 1440.4 159.8 1440.4 159.9 1394.6 186.3 1394.6 186.5 1394.6 186.6 1440.4 213.1 1486.3 186.6 1486.5 186.5"></polygon>
                <polygon id="Shape" fill="#00A2E1" points="1440.4 135.9 1440.4 135.9 1440 135.7 1440 135.7 1440 135.6 1439.9 135.7 1439.9 135.7 1394.6 161.9 1394 162.2 1394 186.2 1394.3 186.5 1394.6 186.3 1440.4 159.9 1440.4 159.8 1440.4 159.9 1486.5 186.5 1486.6 186.5 1486.6 186.4 1486.6 162.6"></polygon>
                <polygon id="Shape" fill="#40499E" points="1394 162.2 1394 162.2 1394.6 161.9 1394.6 161.8"></polygon>
                <polygon id="Shape" fill="#40499E" opacity="0.1" points="1394 162.2 1394 162.2 1394.6 161.9 1394.6 161.8"></polygon>
                <polygon id="Shape" fill="#40499E" points="1394.5 186.6 1394.6 186.6 1394.6 186.5"></polygon>
                <polygon id="Shape" fill="#40499E" opacity="0.1" points="1394.5 186.6 1394.6 186.6 1394.6 186.5"></polygon>
                <polygon id="Shape" fill="#40499E" points="1394.3 186.5 1394.5 186.6 1394.6 186.5 1394.6 186.3"></polygon>
                <polygon id="Shape" fill="#40499E" opacity="0.1" points="1394.3 186.5 1394.5 186.6 1394.6 186.5 1394.6 186.3"></polygon>
                <polygon id="Shape" fill="#40499F" points="1533.1 106.3 1532.9 106.3 1533.1 106.2 1532.6 105.9 1486.9 79.5 1440.4 105.8 1440.4 105.8 1440.4 105.8 1394 132.6 1394 132.9 1394 133 1394 162.2 1394.6 161.8 1394.6 161.9 1439.9 135.7 1439.9 135.7 1440 135.6 1440 135.7 1440 135.7 1440.4 135.9 1440.4 135.9 1486.6 162.6 1486.6 162.6 1486.8 162.4 1486.9 162.4 1532.6 136 1533.2 135.7 1533.2 106.4"></polygon>
                <polygon id="Shape" fill="#A9E0FA" points="1533.2 135.7 1532.6 136 1486.9 162.4 1486.8 162.4 1486.6 162.6 1486.6 162.6 1486.6 186.4 1486.6 186.5 1486.6 186.7 1486.6 186.8 1486.8 186.9 1486.9 186.9 1487.1 186.8 1532.6 160.5 1533.3 160.1 1533.3 135.9 1533.3 135.7"></polygon>
                <polygon id="Shape" fill="#ADE1FA" points="1487.1 186.8 1487.2 186.8 1532.6 213 1532.6 160.6 1532.6 160.5"></polygon>
                <polygon id="Shape" fill="#F4ACCD" points="1579.7 55 1533.3 81.8 1533.3 92.8 1579.7 66 1579.8 66 1579.8 55"></polygon>
                <polygon id="Shape" fill="#F47C20" points="1579.8 55 1579.8 55 1579.8 66 1589.3 60.5"></polygon>
                <polygon id="Shape" fill="#5488C6" opacity="0.1" points="1579.8 55 1579.8 55 1579.8 66 1589.3 60.5"></polygon>
                <polygon id="Shape" fill="#CEA1CA" points="1486.9 0.9 1486.8 1.9 1486.9 26.8 1487.1 26.6 1487.1 26.6 1529.9 0.9"></polygon>
                <polygon id="Shape" fill="#D6A3CB" points="1579.8 25.8 1579.8 25.8 1579.5 25.6 1536.7 0.9 1536.7 0.9 1529.9 0.9 1529.9 0.9 1487.1 25.6 1487.1 25.6 1487.1 25.6 1533.3 52.4 1533.3 81.7 1533.3 81.8 1579.7 55 1579.8 55 1579.8 25.9 1579.8 25.9 1579.8 25.7"></polygon>
                <polygon id="Shape" fill="#5487C6" points="1536.7 1 1579.8 26.9 1623.8 1"></polygon>
                <polygon id="Shape" fill="#F47C20" points="1672.7 12.4 1672.7 0.9 1629.7 0.9 1661.1 19.1"></polygon>
                <polygon id="Shape" fill="#5487C6" points="1672.7 12.4 1672.7 0.9 1629.7 0.9 1661.1 19.1"></polygon>
                <polygon id="Shape" fill="#22BDEB" points="1673.5 0.9 1673.3 0.9 1672.8 0.9 1672.7 0.9 1672.7 12.4 1672.7 12.4 1672.7 25.7 1715.6 0.9"></polygon>
                <polygon id="Shape" fill="#C8E5C9" points="1486.9 55.2 1486.9 55.2 1486.9 55 1486.9 55"></polygon>
                <polygon id="Shape" fill="#5488C6" opacity="0.1" points="1486.9 55.2 1486.9 55.2 1486.9 55 1486.9 55"></polygon>
                <polygon id="Shape" fill="#C8E5C9" points="1486.9 55 1486.9 55 1486.9 25.9"></polygon>
                <polygon id="Shape" fill="#5488C6" opacity="0.1" points="1486.9 55 1486.9 55 1486.9 25.9"></polygon>
                <polygon id="Shape" fill="#C8E5C9" points="1486.9 67.3 1486.9 67.3 1486.9 55.2 1486.9 55.2"></polygon>
                <polygon id="Shape" fill="#5488C6" opacity="0.1" points="1486.9 67.3 1486.9 67.3 1486.9 55.2 1486.9 55.2"></polygon>
                <polygon id="Shape" fill="#5487C6" points="1443.8 1 1393 1 1393.4 14.3 1450.5 47.2 1487.6 26.7"></polygon>
                <polygon id="Shape" fill="#469AD4" points="1486.9 54.9 1475.2 61.5 1487.7 68.2"></polygon>
                <polygon id="Shape" fill="#4F8FCC" points="1486.9 25.9 1486.9 25.8 1486.9 25.8 1486.9 25.8 1486.6 25.6 1486.6 25.6 1449.8 46.8 1475.2 61.5 1486.9 55"></polygon>
                <polygon id="Shape" fill="#4F8FCC" points="1486.9 26.9 1486.8 1 1442.8 1"></polygon>
                <polygon id="Shape" fill="#6B8BC7" points="1533.2 81.7 1486.9 55 1486.9 55.2 1486.9 67.3 1486.9 68.2 1533.3 95 1533.3 92.8 1533.3 81.8 1533.3 81.7"></polygon>
                <polygon id="Shape" fill="#C8E5C9" points="1486.9 25.9 1486.9 25.8 1486.9 25.8"></polygon>
                <polygon id="Shape" fill="#5488C6" opacity="0.1" points="1486.9 25.9 1486.9 25.8 1486.9 25.8"></polygon>
                <polygon id="Shape" fill="#2E3192" points="1301 1 1301 67.4 1393.4 14.3 1393.4 14.3 1393.4 0.9"></polygon>
                <polygon id="Shape" fill="#FEE2B5" points="1067.8 81.7 1067.8 81.5 1067.8 81.5 1021.4 54.7 1021.4 80.9 1067.8 107.7 1067.8 107.7 1067.8 107.4"></polygon>
                <polygon id="Shape" fill="#1C439C" points="464.8 1 419.5 1 464.5 27 509.9 1"></polygon>
            </g>
        </g>
    </g>
</svg>