<?xml version="1.0" encoding="UTF-8" standalone="no"?>
<svg width="874px" height="611px" viewBox="0 0 874 611" version="1.1" xmlns="http://www.w3.org/2000/svg" xmlns:xlink="http://www.w3.org/1999/xlink">
    <!-- Generator: Sketch 41.2 (35397) - http://www.bohemiancoding.com/sketch -->
    <title>hub-and-spoke</title>
    <desc>Created with Sketch.</desc>
    <defs>
        <circle id="path-1" cx="29" cy="29" r="29"></circle>
        <mask id="mask-2" maskContentUnits="userSpaceOnUse" maskUnits="objectBoundingBox" x="0" y="0" width="58" height="58" fill="white">
            <use xlink:href="#path-1"></use>
        </mask>
        <circle id="path-3" cx="29" cy="29" r="29"></circle>
        <mask id="mask-4" maskContentUnits="userSpaceOnUse" maskUnits="objectBoundingBox" x="0" y="0" width="58" height="58" fill="white">
            <use xlink:href="#path-3"></use>
        </mask>
        <circle id="path-5" cx="22.5" cy="22.5" r="22.5"></circle>
        <mask id="mask-6" maskContentUnits="userSpaceOnUse" maskUnits="objectBoundingBox" x="0" y="0" width="45" height="45" fill="white">
            <use xlink:href="#path-5"></use>
        </mask>
        <circle id="path-7" cx="22.5" cy="22.5" r="22.5"></circle>
        <mask id="mask-8" maskContentUnits="userSpaceOnUse" maskUnits="objectBoundingBox" x="0" y="0" width="45" height="45" fill="white">
            <use xlink:href="#path-7"></use>
        </mask>
        <circle id="path-9" cx="29" cy="29" r="29"></circle>
        <mask id="mask-10" maskContentUnits="userSpaceOnUse" maskUnits="objectBoundingBox" x="0" y="0" width="58" height="58" fill="white">
            <use xlink:href="#path-9"></use>
        </mask>
        <circle id="path-11" cx="29" cy="29" r="29"></circle>
        <mask id="mask-12" maskContentUnits="userSpaceOnUse" maskUnits="objectBoundingBox" x="0" y="0" width="58" height="58" fill="white">
            <use xlink:href="#path-11"></use>
        </mask>
        <circle id="path-13" cx="29" cy="29" r="29"></circle>
        <mask id="mask-14" maskContentUnits="userSpaceOnUse" maskUnits="objectBoundingBox" x="0" y="0" width="58" height="58" fill="white">
            <use xlink:href="#path-13"></use>
        </mask>
        <circle id="path-15" cx="22.5" cy="22.5" r="22.5"></circle>
        <mask id="mask-16" maskContentUnits="userSpaceOnUse" maskUnits="objectBoundingBox" x="0" y="0" width="45" height="45" fill="white">
            <use xlink:href="#path-15"></use>
        </mask>
        <circle id="path-17" cx="22.5" cy="22.5" r="22.5"></circle>
        <mask id="mask-18" maskContentUnits="userSpaceOnUse" maskUnits="objectBoundingBox" x="0" y="0" width="45" height="45" fill="white">
            <use xlink:href="#path-17"></use>
        </mask>
        <circle id="path-19" cx="22.5" cy="22.5" r="22.5"></circle>
        <mask id="mask-20" maskContentUnits="userSpaceOnUse" maskUnits="objectBoundingBox" x="0" y="0" width="45" height="45" fill="white">
            <use xlink:href="#path-19"></use>
        </mask>
        <circle id="path-21" cx="22.5" cy="22.5" r="22.5"></circle>
        <mask id="mask-22" maskContentUnits="userSpaceOnUse" maskUnits="objectBoundingBox" x="0" y="0" width="45" height="45" fill="white">
            <use xlink:href="#path-21"></use>
        </mask>
        <path d="M15.2816807,6.25750545 C14.2838496,5.99326878 13.2356173,5.85245902 12.1544118,5.85245902 C5.4417155,5.85245902 0,11.280089 0,17.9754098 C0,22.0939487 2.05910922,25.7328017 5.20653184,27.9236859 C3.52283843,30.0040598 2.51470588,32.6509971 2.51470588,35.5327869 C2.51470588,42.2281077 7.95642139,47.6557377 14.6691176,47.6557377 C17.5071102,47.6557377 20.1179242,46.685588 22.1863819,45.0596504 C24.4995189,48.6338418 28.5278665,51 33.1102941,51 C37.6550707,51 41.654835,48.6725646 43.9768427,45.147506 C43.9870101,45.1475293 43.9971801,45.147541 44.0073529,45.147541 C51.1829938,45.147541 57,39.3455917 57,32.1885246 C57,28.6875283 55.6080852,25.5107896 53.3461059,23.1788081 C54.5990714,21.1860289 55.3235294,18.8290379 55.3235294,16.3032787 C55.3235294,9.14621156 49.5065232,3.3442623 42.3308824,3.3442623 C40.215327,3.3442623 38.2178663,3.84857663 36.4527531,4.74324812 C34.0699445,1.84740826 30.4534807,0 26.4044118,0 C21.6877599,0 17.5581227,2.50680287 15.2816807,6.25750545 Z" id="path-23"></path>
        <mask id="mask-24" maskContentUnits="userSpaceOnUse" maskUnits="objectBoundingBox" x="0" y="0" width="57" height="51" fill="white">
            <use xlink:href="#path-23"></use>
        </mask>
        <path d="M15.2816807,6.25750545 C14.2838496,5.99326878 13.2356173,5.85245902 12.1544118,5.85245902 C5.4417155,5.85245902 0,11.280089 0,17.9754098 C0,22.0939487 2.05910922,25.7328017 5.20653184,27.9236859 C3.52283843,30.0040598 2.51470588,32.6509971 2.51470588,35.5327869 C2.51470588,42.2281077 7.95642139,47.6557377 14.6691176,47.6557377 C17.5071102,47.6557377 20.1179242,46.685588 22.1863819,45.0596504 C24.4995189,48.6338418 28.5278665,51 33.1102941,51 C37.6550707,51 41.654835,48.6725646 43.9768427,45.147506 C43.9870101,45.1475293 43.9971801,45.147541 44.0073529,45.147541 C51.1829938,45.147541 57,39.3455917 57,32.1885246 C57,28.6875283 55.6080852,25.5107896 53.3461059,23.1788081 C54.5990714,21.1860289 55.3235294,18.8290379 55.3235294,16.3032787 C55.3235294,9.14621156 49.5065232,3.3442623 42.3308824,3.3442623 C40.215327,3.3442623 38.2178663,3.84857663 36.4527531,4.74324812 C34.0699445,1.84740826 30.4534807,0 26.4044118,0 C21.6877599,0 17.5581227,2.50680287 15.2816807,6.25750545 Z" id="path-25"></path>
        <mask id="mask-26" maskContentUnits="userSpaceOnUse" maskUnits="objectBoundingBox" x="0" y="0" width="57" height="51" fill="white">
            <use xlink:href="#path-25"></use>
        </mask>
        <path d="M15.2816807,6.25750545 C14.2838496,5.99326878 13.2356173,5.85245902 12.1544118,5.85245902 C5.4417155,5.85245902 0,11.280089 0,17.9754098 C0,22.0939487 2.05910922,25.7328017 5.20653184,27.9236859 C3.52283843,30.0040598 2.51470588,32.6509971 2.51470588,35.5327869 C2.51470588,42.2281077 7.95642139,47.6557377 14.6691176,47.6557377 C17.5071102,47.6557377 20.1179242,46.685588 22.1863819,45.0596504 C24.4995189,48.6338418 28.5278665,51 33.1102941,51 C37.6550707,51 41.654835,48.6725646 43.9768427,45.147506 C43.9870101,45.1475293 43.9971801,45.147541 44.0073529,45.147541 C51.1829938,45.147541 57,39.3455917 57,32.1885246 C57,28.6875283 55.6080852,25.5107896 53.3461059,23.1788081 C54.5990714,21.1860289 55.3235294,18.8290379 55.3235294,16.3032787 C55.3235294,9.14621156 49.5065232,3.3442623 42.3308824,3.3442623 C40.215327,3.3442623 38.2178663,3.84857663 36.4527531,4.74324812 C34.0699445,1.84740826 30.4534807,0 26.4044118,0 C21.6877599,0 17.5581227,2.50680287 15.2816807,6.25750545 Z" id="path-27"></path>
        <mask id="mask-28" maskContentUnits="userSpaceOnUse" maskUnits="objectBoundingBox" x="0" y="0" width="57" height="51" fill="white">
            <use xlink:href="#path-27"></use>
        </mask>
        <path d="M15.2816807,6.25750545 C14.2838496,5.99326878 13.2356173,5.85245902 12.1544118,5.85245902 C5.4417155,5.85245902 0,11.280089 0,17.9754098 C0,22.0939487 2.05910922,25.7328017 5.20653184,27.9236859 C3.52283843,30.0040598 2.51470588,32.6509971 2.51470588,35.5327869 C2.51470588,42.2281077 7.95642139,47.6557377 14.6691176,47.6557377 C17.5071102,47.6557377 20.1179242,46.685588 22.1863819,45.0596504 C24.4995189,48.6338418 28.5278665,51 33.1102941,51 C37.6550707,51 41.654835,48.6725646 43.9768427,45.147506 C43.9870101,45.1475293 43.9971801,45.147541 44.0073529,45.147541 C51.1829938,45.147541 57,39.3455917 57,32.1885246 C57,28.6875283 55.6080852,25.5107896 53.3461059,23.1788081 C54.5990714,21.1860289 55.3235294,18.8290379 55.3235294,16.3032787 C55.3235294,9.14621156 49.5065232,3.3442623 42.3308824,3.3442623 C40.215327,3.3442623 38.2178663,3.84857663 36.4527531,4.74324812 C34.0699445,1.84740826 30.4534807,0 26.4044118,0 C21.6877599,0 17.5581227,2.50680287 15.2816807,6.25750545 Z" id="path-29"></path>
        <mask id="mask-30" maskContentUnits="userSpaceOnUse" maskUnits="objectBoundingBox" x="0" y="0" width="57" height="51" fill="white">
            <use xlink:href="#path-29"></use>
        </mask>
        <path d="M18.230777,7.48446731 C17.040382,7.16841952 15.7898592,7 14.5,7 C6.49187113,7 0,13.4918711 0,21.5 C0,26.4260955 2.45648117,30.7784491 6.21130114,33.3989184 C4.20268444,35.8872088 3,39.0531534 3,42.5 C3,50.5081289 9.49187113,57 17.5,57 C20.8856754,57 24.0003306,55.8396249 26.4679643,53.894876 C29.2274962,58.1698892 34.0332442,61 39.5,61 C44.9218388,61 49.6934873,58.2162048 52.4636018,53.9999582 C52.4757313,53.9999861 52.487864,54 52.5,54 C61.0604136,54 68,47.0604136 68,38.5 C68,34.3125338 66.3394701,30.5129052 63.6409685,27.7236724 C65.1357342,25.3401522 66,22.5210062 66,19.5 C66,10.9395864 59.0604136,4 50.5,4 C47.9761796,4 45.593244,4.6031995 43.487495,5.67329677 C40.6448461,2.20964517 36.3304682,0 31.5,0 C25.8731171,0 20.9465324,2.99833284 18.230777,7.48446731 Z" id="path-31"></path>
        <mask id="mask-32" maskContentUnits="userSpaceOnUse" maskUnits="objectBoundingBox" x="0" y="0" width="68" height="61" fill="white">
            <use xlink:href="#path-31"></use>
        </mask>
        <path d="M18.230777,7.48446731 C17.040382,7.16841952 15.7898592,7 14.5,7 C6.49187113,7 0,13.4918711 0,21.5 C0,26.4260955 2.45648117,30.7784491 6.21130114,33.3989184 C4.20268444,35.8872088 3,39.0531534 3,42.5 C3,50.5081289 9.49187113,57 17.5,57 C20.8856754,57 24.0003306,55.8396249 26.4679643,53.894876 C29.2274962,58.1698892 34.0332442,61 39.5,61 C44.9218388,61 49.6934873,58.2162048 52.4636018,53.9999582 C52.4757313,53.9999861 52.487864,54 52.5,54 C61.0604136,54 68,47.0604136 68,38.5 C68,34.3125338 66.3394701,30.5129052 63.6409685,27.7236724 C65.1357342,25.3401522 66,22.5210062 66,19.5 C66,10.9395864 59.0604136,4 50.5,4 C47.9761796,4 45.593244,4.6031995 43.487495,5.67329677 C40.6448461,2.20964517 36.3304682,0 31.5,0 C25.8731171,0 20.9465324,2.99833284 18.230777,7.48446731 Z" id="path-33"></path>
        <mask id="mask-34" maskContentUnits="userSpaceOnUse" maskUnits="objectBoundingBox" x="0" y="0" width="68" height="61" fill="white">
            <use xlink:href="#path-33"></use>
        </mask>
        <path d="M18.230777,7.48446731 C17.040382,7.16841952 15.7898592,7 14.5,7 C6.49187113,7 0,13.4918711 0,21.5 C0,26.4260955 2.45648117,30.7784491 6.21130114,33.3989184 C4.20268444,35.8872088 3,39.0531534 3,42.5 C3,50.5081289 9.49187113,57 17.5,57 C20.8856754,57 24.0003306,55.8396249 26.4679643,53.894876 C29.2274962,58.1698892 34.0332442,61 39.5,61 C44.9218388,61 49.6934873,58.2162048 52.4636018,53.9999582 C52.4757313,53.9999861 52.487864,54 52.5,54 C61.0604136,54 68,47.0604136 68,38.5 C68,34.3125338 66.3394701,30.5129052 63.6409685,27.7236724 C65.1357342,25.3401522 66,22.5210062 66,19.5 C66,10.9395864 59.0604136,4 50.5,4 C47.9761796,4 45.593244,4.6031995 43.487495,5.67329677 C40.6448461,2.20964517 36.3304682,0 31.5,0 C25.8731171,0 20.9465324,2.99833284 18.230777,7.48446731 Z" id="path-35"></path>
        <mask id="mask-36" maskContentUnits="userSpaceOnUse" maskUnits="objectBoundingBox" x="0" y="0" width="68" height="61" fill="white">
            <use xlink:href="#path-35"></use>
        </mask>
        <path d="M18.230777,7.48446731 C17.040382,7.16841952 15.7898592,7 14.5,7 C6.49187113,7 0,13.4918711 0,21.5 C0,26.4260955 2.45648117,30.7784491 6.21130114,33.3989184 C4.20268444,35.8872088 3,39.0531534 3,42.5 C3,50.5081289 9.49187113,57 17.5,57 C20.8856754,57 24.0003306,55.8396249 26.4679643,53.894876 C29.2274962,58.1698892 34.0332442,61 39.5,61 C44.9218388,61 49.6934873,58.2162048 52.4636018,53.9999582 C52.4757313,53.9999861 52.487864,54 52.5,54 C61.0604136,54 68,47.0604136 68,38.5 C68,34.3125338 66.3394701,30.5129052 63.6409685,27.7236724 C65.1357342,25.3401522 66,22.5210062 66,19.5 C66,10.9395864 59.0604136,4 50.5,4 C47.9761796,4 45.593244,4.6031995 43.487495,5.67329677 C40.6448461,2.20964517 36.3304682,0 31.5,0 C25.8731171,0 20.9465324,2.99833284 18.230777,7.48446731 Z" id="path-37"></path>
        <mask id="mask-38" maskContentUnits="userSpaceOnUse" maskUnits="objectBoundingBox" x="0" y="0" width="68" height="61" fill="white">
            <use xlink:href="#path-37"></use>
        </mask>
        <path d="M24.9332685,10.1837834 C23.3052283,9.75375114 21.5949545,9.52459016 19.8308824,9.52459016 C8.87858845,9.52459016 0,18.3577919 0,29.2540984 C0,35.9568185 3.35959925,41.8788734 8.49486773,45.44443 C5.74778902,48.8301366 4.10294118,53.1378973 4.10294118,57.8278689 C4.10294118,68.7241754 12.9815296,77.557377 23.9338235,77.557377 C28.5642325,77.557377 32.8239815,75.978506 36.1988336,73.3323723 C39.9728992,79.1491935 46.5454663,83 54.0220588,83 C61.4372207,83 67.9631518,79.212213 71.7516908,73.4753529 C71.7682796,73.4753909 71.7848728,73.4754098 71.8014706,73.4754098 C83.5090951,73.4754098 93,64.0330218 93,52.3852459 C93,46.6875461 90.7289811,41.5175596 87.0383834,37.722374 C89.0826954,34.4792235 90.2647059,30.6433362 90.2647059,26.5327869 C90.2647059,14.885011 80.773801,5.44262295 69.0661765,5.44262295 C65.6144809,5.44262295 62.3554661,6.26336981 59.4755446,7.7194038 C55.5878042,3.00656638 49.687258,0 43.0808824,0 C35.3852925,0 28.6474634,4.07969879 24.9332685,10.1837834 Z" id="path-39"></path>
        <mask id="mask-40" maskContentUnits="userSpaceOnUse" maskUnits="objectBoundingBox" x="0" y="0" width="93" height="83" fill="white">
            <use xlink:href="#path-39"></use>
        </mask>
        <polygon id="path-41" points="0 0 61.9530201 0 79 15.0056612 79 61 0 61"></polygon>
        <mask id="mask-42" maskContentUnits="userSpaceOnUse" maskUnits="objectBoundingBox" x="0" y="0" width="79" height="61" fill="white">
            <use xlink:href="#path-41"></use>
        </mask>
        <polygon id="path-43" points="62 0 79 15 62 15"></polygon>
        <mask id="mask-44" maskContentUnits="userSpaceOnUse" maskUnits="objectBoundingBox" x="0" y="0" width="17" height="15" fill="white">
            <use xlink:href="#path-43"></use>
        </mask>
        <polygon id="path-45" points="0 0 61.9530201 0 79 15.0056612 79 61 0 61"></polygon>
        <mask id="mask-46" maskContentUnits="userSpaceOnUse" maskUnits="objectBoundingBox" x="0" y="0" width="79" height="61" fill="white">
            <use xlink:href="#path-45"></use>
        </mask>
        <polygon id="path-47" points="62 0 79 15 62 15"></polygon>
        <mask id="mask-48" maskContentUnits="userSpaceOnUse" maskUnits="objectBoundingBox" x="0" y="0" width="17" height="15" fill="white">
            <use xlink:href="#path-47"></use>
        </mask>
        <polygon id="path-49" points="-3.5 3.5 38.847634 3.5 50.5 15.0617389 50.5 50.5 -3.5 50.5"></polygon>
        <mask id="mask-50" maskContentUnits="userSpaceOnUse" maskUnits="objectBoundingBox" x="0" y="0" width="54" height="47" fill="white">
            <use xlink:href="#path-49"></use>
        </mask>
        <polygon id="path-51" points="35 0 47 12 35 12"></polygon>
        <mask id="mask-52" maskContentUnits="userSpaceOnUse" maskUnits="objectBoundingBox" x="0" y="0" width="12" height="12" fill="white">
            <use xlink:href="#path-51"></use>
        </mask>
        <polygon id="path-53" points="-3.5 3.5 38.847634 3.5 50.5 15.0617389 50.5 50.5 -3.5 50.5"></polygon>
        <mask id="mask-54" maskContentUnits="userSpaceOnUse" maskUnits="objectBoundingBox" x="0" y="0" width="54" height="47" fill="white">
            <use xlink:href="#path-53"></use>
        </mask>
        <polygon id="path-55" points="35 0 47 12 35 12"></polygon>
        <mask id="mask-56" maskContentUnits="userSpaceOnUse" maskUnits="objectBoundingBox" x="0" y="0" width="12" height="12" fill="white">
            <use xlink:href="#path-55"></use>
        </mask>
        <polygon id="path-57" points="-3.5 3.5 38.847634 3.5 50.5 15.0617389 50.5 50.5 -3.5 50.5"></polygon>
        <mask id="mask-58" maskContentUnits="userSpaceOnUse" maskUnits="objectBoundingBox" x="0" y="0" width="54" height="47" fill="white">
            <use xlink:href="#path-57"></use>
        </mask>
        <polygon id="path-59" points="35 0 47 12 35 12"></polygon>
        <mask id="mask-60" maskContentUnits="userSpaceOnUse" maskUnits="objectBoundingBox" x="0" y="0" width="12" height="12" fill="white">
            <use xlink:href="#path-59"></use>
        </mask>
        <polygon id="path-61" points="-3.5 3.5 38.847634 3.5 50.5 15.0617389 50.5 50.5 -3.5 50.5"></polygon>
        <mask id="mask-62" maskContentUnits="userSpaceOnUse" maskUnits="objectBoundingBox" x="0" y="0" width="54" height="47" fill="white">
            <use xlink:href="#path-61"></use>
        </mask>
        <polygon id="path-63" points="35 0 47 12 35 12"></polygon>
        <mask id="mask-64" maskContentUnits="userSpaceOnUse" maskUnits="objectBoundingBox" x="0" y="0" width="12" height="12" fill="white">
            <use xlink:href="#path-63"></use>
        </mask>
        <polygon id="path-65" points="-3.5 3.5 38.847634 3.5 50.5 15.0617389 50.5 50.5 -3.5 50.5"></polygon>
        <mask id="mask-66" maskContentUnits="userSpaceOnUse" maskUnits="objectBoundingBox" x="0" y="0" width="54" height="47" fill="white">
            <use xlink:href="#path-65"></use>
        </mask>
        <polygon id="path-67" points="35 0 47 12 35 12"></polygon>
        <mask id="mask-68" maskContentUnits="userSpaceOnUse" maskUnits="objectBoundingBox" x="0" y="0" width="12" height="12" fill="white">
            <use xlink:href="#path-67"></use>
        </mask>
        <polygon id="path-69" points="-3.5 3.5 38.847634 3.5 50.5 15.0617389 50.5 50.5 -3.5 50.5"></polygon>
        <mask id="mask-70" maskContentUnits="userSpaceOnUse" maskUnits="objectBoundingBox" x="0" y="0" width="54" height="47" fill="white">
            <use xlink:href="#path-69"></use>
        </mask>
        <polygon id="path-71" points="35 0 47 12 35 12"></polygon>
        <mask id="mask-72" maskContentUnits="userSpaceOnUse" maskUnits="objectBoundingBox" x="0" y="0" width="12" height="12" fill="white">
            <use xlink:href="#path-71"></use>
        </mask>
        <circle id="path-73" cx="57.5" cy="57.5" r="57.5"></circle>
        <mask id="mask-74" maskContentUnits="userSpaceOnUse" maskUnits="objectBoundingBox" x="0" y="0" width="115" height="115" fill="white">
            <use xlink:href="#path-73"></use>
        </mask>
        <circle id="path-75" cx="68.5" cy="68.5" r="68.5"></circle>
        <mask id="mask-76" maskContentUnits="userSpaceOnUse" maskUnits="objectBoundingBox" x="0" y="0" width="137" height="137" fill="white">
            <use xlink:href="#path-75"></use>
        </mask>
        <path d="M43,42.6208479 L43,0 L0,0 L0,47.8439406 C0.343367098,47.9015733 0.6957728,47.9697643 1.05743223,48.0488784 C21.2724523,52.4709703 23.1184196,42.4275908 43,42.6208479 Z" id="path-77"></path>
        <mask id="mask-78" maskContentUnits="userSpaceOnUse" maskUnits="objectBoundingBox" x="0" y="0" width="43" height="49.1748435" fill="white">
            <use xlink:href="#path-77"></use>
        </mask>
        <path d="M43,42.6208479 L43,0 L0,0 L0,47.8439406 C0.343367098,47.9015733 0.6957728,47.9697643 1.05743223,48.0488784 C21.2724523,52.4709703 23.1184196,42.4275908 43,42.6208479 Z" id="path-79"></path>
        <mask id="mask-80" maskContentUnits="userSpaceOnUse" maskUnits="objectBoundingBox" x="0" y="0" width="43" height="49.1748435" fill="white">
            <use xlink:href="#path-79"></use>
        </mask>
        <path d="M43,42.6208479 L43,0 L0,0 L0,47.8439406 C0.343367098,47.9015733 0.6957728,47.9697643 1.05743223,48.0488784 C21.2724523,52.4709703 23.1184196,42.4275908 43,42.6208479 Z" id="path-81"></path>
        <mask id="mask-82" maskContentUnits="userSpaceOnUse" maskUnits="objectBoundingBox" x="0" y="0" width="43" height="49.1748435" fill="white">
            <use xlink:href="#path-81"></use>
        </mask>
        <path d="M43,42.6208479 L43,0 L0,0 L0,47.8439406 C0.343367098,47.9015733 0.6957728,47.9697643 1.05743223,48.0488784 C21.2724523,52.4709703 23.1184196,42.4275908 43,42.6208479 Z" id="path-83"></path>
        <mask id="mask-84" maskContentUnits="userSpaceOnUse" maskUnits="objectBoundingBox" x="0" y="0" width="43" height="49.1748435" fill="white">
            <use xlink:href="#path-83"></use>
        </mask>
        <path d="M43,42.6208479 L43,0 L0,0 L0,47.8439406 C0.343367098,47.9015733 0.6957728,47.9697643 1.05743223,48.0488784 C21.2724523,52.4709703 23.1184196,42.4275908 43,42.6208479 Z" id="path-85"></path>
        <mask id="mask-86" maskContentUnits="userSpaceOnUse" maskUnits="objectBoundingBox" x="0" y="0" width="43" height="49.1748435" fill="white">
            <use xlink:href="#path-85"></use>
        </mask>
        <path d="M43,42.6208479 L43,0 L0,0 L0,47.8439406 C0.343367098,47.9015733 0.6957728,47.9697643 1.05743223,48.0488784 C21.2724523,52.4709703 23.1184196,42.4275908 43,42.6208479 Z" id="path-87"></path>
        <mask id="mask-88" maskContentUnits="userSpaceOnUse" maskUnits="objectBoundingBox" x="0" y="0" width="43" height="49.1748435" fill="white">
            <use xlink:href="#path-87"></use>
        </mask>
    </defs>
    <g id="Page-1" stroke="none" stroke-width="1" fill="none" fill-rule="evenodd">
        <g id="hub-and-spoke">
            <g id="lines" transform="translate(37.000000, 31.000000)">
                <path d="M1.5,254.824219 L686.496094,254.824219" id="Path-2" stroke="#979797"></path>
                <polyline id="Path-3" stroke="#979797" points="30.6679688 191.324219 102.6875 255.832031 76.3632812 153.230469"></polyline>
                <polyline id="Path-4" stroke="#979797" points="130.964844 163.183594 103.984375 254.1875 183.257812 188.328125"></polyline>
                <polyline id="Path-5" stroke="#979797" points="36.3554688 332.496094 105.121094 253.917969 260.980469 421.328125"></polyline>
                <polyline id="Path-6" stroke="#979797" points="168.933594 413.945312 269.675781 413.210938 215.855469 468.894531"></polyline>
                <path d="M270.457031,413.769531 L313.503906,491.957031" id="Path-7" stroke="#979797"></path>
                <polyline id="Path-8" stroke="#979797" points="287.527344 543 313.894531 492.601562 351.730469 538.429688"></polyline>
                <path d="M368.28125,492.296875 L315.328125,492.296875" id="Path-9" stroke="#979797"></path>
                <polyline id="Path-10" stroke="#979797" points="270.023438 2.35546875 203.429688 176.03125 342.609375 0.40625"></polyline>
                <path d="M413.804688,4.8828125 L203.691406,173.378906" id="Path-11" stroke="#979797"></path>
                <polyline id="Path-12" stroke="#AEB5E5" points="270.886719 4.44921875 376.917969 191.101562 340.125 4.92578125"></polyline>
                <path d="M412.101562,6.6640625 L377.828125,190.628906" id="Path-13" stroke="#AEB5E5"></path>
                <path d="M268,4 L499.789062,95.65625" id="Path-14" stroke="#9ADB8E"></path>
                <path d="M330,4 L561.789062,95.65625" id="Path-14-Copy" stroke="#9ADB8E"></path>
                <path d="M387,4 L618.789062,95.65625" id="Path-14-Copy-2" stroke="#9ADB8E"></path>
                <polyline id="Path-15" stroke="#979797" points="384.765625 309.476562 459.046875 250.179688 549.007812 337.75"></polyline>
                <polyline id="Path-16" stroke="#979797" points="377.8125 188.925781 462.605469 254.605469 454.222656 158.253906"></polyline>
                <path d="M534.191406,175.628906 L461.257812,249.34375" id="Path-17" stroke="#979797"></path>
                <polyline id="Path-18" stroke="#979797" points="556.695312 399.726562 548.355469 336 618.984375 376.394531"></polyline>
                <path d="M624.761719,318.269531 L551.652344,335.253906" id="Path-19" stroke="#979797"></path>
                <polyline id="Path-20" stroke="#979797" points="502.738281 94 534.582031 177.925781 564.164062 89.09375"></polyline>
                <path d="M620.152344,92.09375 L535.835938,176.101562" id="Path-21" stroke="#979797"></path>
                <polyline id="Path-22" stroke="#979797" points="639.960938 201.082031 690.960938 254.292969 690.960938 187.394531"></polyline>
                <polyline id="Path-23" stroke="#979797" points="758.503906 326.007812 691.605469 256.546875 750.207031 194.386719"></polyline>
                <polyline id="Path-24" stroke="#979797" points="758.976562 122.976562 748.636719 197.5625 815.105469 177.144531"></polyline>
                <path d="M749.164062,197.953125 L799.636719,241.433594" id="Path-25" stroke="#979797"></path>
            </g>
            <g id="shapes" transform="translate(2.000000, 7.000000)">
                <g id="blue-circle" transform="translate(209.000000, 170.000000)">
                    <use id="Oval-2" stroke="#B6DFFF" mask="url(#mask-2)" stroke-width="4" fill="#E0F2FF" fill-rule="evenodd" xlink:href="#path-1"></use>
                    <text id="label" font-family="Roboto-Regular, Roboto" font-size="12" font-weight="normal" fill="#333333">
                        <tspan x="6.44140625" y="32">Edit Cog</tspan>
                    </text>
                </g>
                <g id="Group" transform="translate(148.000000, 134.000000)">
                    <use id="Oval-2" stroke="#F2E4A3" mask="url(#mask-4)" stroke-width="4" fill="#FFFBE1" xlink:href="#path-3"></use>
                    <text id="label" font-family="Roboto-Regular, Roboto" font-size="12" font-weight="normal" fill="#333333">
                        <tspan x="10.1914062" y="32">Search</tspan>
                    </text>
                </g>
                <g id="Group-Copy-3" transform="translate(703.000000, 188.000000)">
                    <use id="Oval-2" stroke="#F2E4A3" mask="url(#mask-6)" stroke-width="4" fill="#FFFBE1" xlink:href="#path-5"></use>
                    <text id="label" font-family="Roboto-Regular, Roboto" font-size="10" font-weight="normal" fill="#333333">
                        <tspan x="6.82617188" y="25">Search</tspan>
                    </text>
                </g>
                <g id="Group-Copy-4" transform="translate(652.000000, 204.000000)">
                    <use id="Oval-2" stroke="#F2E4A3" mask="url(#mask-8)" stroke-width="4" fill="#FFFBE1" xlink:href="#path-7"></use>
                    <text id="label" font-family="Roboto-Regular, Roboto" font-size="10" font-weight="normal" fill="#333333">
                        <tspan x="7.71972656" y="25">Status</tspan>
                    </text>
                </g>
                <g id="Group-Copy" transform="translate(76.000000, 134.000000)">
                    <use id="Oval-2" stroke="#F2E4A3" mask="url(#mask-10)" stroke-width="4" fill="#FFFBE1" xlink:href="#path-9"></use>
                    <text id="label" font-family="Roboto-Regular, Roboto" font-size="12" font-weight="normal" fill="#333333">
                        <tspan x="5.54199219" y="32">Faceting</tspan>
                    </text>
                </g>
                <g id="Group-Copy-2" transform="translate(18.000000, 170.000000)">
                    <use id="Oval-2" stroke="#F2E4A3" mask="url(#mask-12)" stroke-width="4" fill="#FFFBE1" xlink:href="#path-11"></use>
                    <text id="label" font-family="Roboto-Regular, Roboto" font-size="12" font-weight="normal" fill="#333333">
                        <tspan x="11.2636719" y="32">Status</tspan>
                    </text>
                </g>
                <g id="blue-circle-copy" transform="translate(383.000000, 184.000000)">
                    <use id="Oval-2" stroke="#B6DFFF" mask="url(#mask-14)" stroke-width="4" fill="#E0F2FF" xlink:href="#path-13"></use>
                    <text id="label" font-family="Roboto-Regular, Roboto" font-size="12" font-weight="normal" fill="#333333">
                        <tspan x="8.38671875" y="26">Actions </tspan>
                        <tspan x="10.7861328" y="42">Button</tspan>
                    </text>
                </g>
                <g id="blue-circle-copy-3" transform="translate(515.000000, 96.000000)">
                    <use id="Oval-2" stroke="#B6DFFF" mask="url(#mask-16)" stroke-width="4" fill="#E0F2FF" xlink:href="#path-15"></use>
                    <text id="label" font-family="Roboto-Regular, Roboto" font-size="10" font-weight="normal" fill="#333333">
                        <tspan x="13.7939453" y="20">Edit</tspan>
                        <tspan x="13.1347656" y="33">Link</tspan>
                    </text>
                </g>
                <g id="blue-circle-copy-4" transform="translate(573.000000, 96.000000)">
                    <use id="Oval-2" stroke="#B6DFFF" mask="url(#mask-18)" stroke-width="4" fill="#E0F2FF" xlink:href="#path-17"></use>
                    <text id="label" font-family="Roboto-Regular, Roboto" font-size="10" font-weight="normal" fill="#333333">
                        <tspan x="13.7939453" y="20">Edit</tspan>
                        <tspan x="13.1347656" y="33">Link</tspan>
                    </text>
                </g>
                <g id="blue-circle-copy-5" transform="translate(631.000000, 96.000000)">
                    <use id="Oval-2" stroke="#B6DFFF" mask="url(#mask-20)" stroke-width="4" fill="#E0F2FF" xlink:href="#path-19"></use>
                    <text id="label" font-family="Roboto-Regular, Roboto" font-size="10" font-weight="normal" fill="#333333">
                        <tspan x="13.7939453" y="20">Edit</tspan>
                        <tspan x="13.1347656" y="33">Link</tspan>
                    </text>
                </g>
                <g id="blue-circle-copy-6" transform="translate(760.000000, 199.000000)">
                    <use id="Oval-2" stroke="#B6DFFF" mask="url(#mask-22)" stroke-width="4" fill="#E0F2FF" xlink:href="#path-21"></use>
                    <text id="label" font-family="Roboto-Regular, Roboto" font-size="10" font-weight="normal" fill="#333333">
                        <tspan x="13.7939453" y="20">Edit</tspan>
                        <tspan x="13.6499023" y="33">Cog</tspan>
                    </text>
                </g>
                <g id="Group-2" transform="translate(0.000000, 249.000000)">
                    <use id="Combined-Shape" stroke="#B9B9B9" mask="url(#mask-24)" stroke-width="4" fill="#EAEAEA" xlink:href="#path-23"></use>
                    <text id="Nav" font-family="Roboto-Regular, Roboto" font-size="12" font-weight="normal" fill="#333333">
                        <tspan x="17.9472656" y="31">Nav</tspan>
                    </text>
                </g>
                <g id="Group-2-Copy" transform="translate(158.000000, 410.000000)">
                    <use id="Combined-Shape" stroke="#B9B9B9" mask="url(#mask-26)" stroke-width="4" fill="#EAEAEA" xlink:href="#path-25"></use>
                    <text id="Nav" font-family="Roboto-Regular, Roboto" font-size="12" font-weight="normal" fill="#333333">
                        <tspan x="17.9472656" y="31">Nav</tspan>
                    </text>
                </g>
                <g id="Group-2-Copy-2" transform="translate(390.000000, 308.000000)">
                    <use id="Combined-Shape" stroke="#B9B9B9" mask="url(#mask-28)" stroke-width="4" fill="#EAEAEA" xlink:href="#path-27"></use>
                    <text id="Nav" font-family="Roboto-Regular, Roboto" font-size="12" font-weight="normal" fill="#333333">
                        <tspan x="17.9472656" y="31">Nav</tspan>
                    </text>
                </g>
                <g id="Group-2-Copy-5" transform="translate(458.000000, 154.000000)">
                    <use id="Combined-Shape" stroke="#B9B9B9" mask="url(#mask-30)" stroke-width="4" fill="#EAEAEA" xlink:href="#path-29"></use>
                    <text id="Basic-Info" font-family="Roboto-Regular, Roboto" font-size="12" font-weight="normal" fill="#333333">
                        <tspan x="13.5322266" y="23">Basic</tspan>
                        <tspan x="17.9121094" y="39">Info</tspan>
                    </text>
                </g>
                <g id="Group-2-Copy-3" transform="translate(313.000000, 482.000000)">
                    <use id="Combined-Shape" stroke="#B9B9B9" mask="url(#mask-32)" stroke-width="4" fill="#EAEAEA" xlink:href="#path-31"></use>
                    <text id="Help-Section" font-family="Roboto-Regular, Roboto" font-size="12" font-weight="normal" fill="#333333">
                        <tspan x="21.625" y="28">Help</tspan>
                        <tspan x="13.4951172" y="44">Section</tspan>
                    </text>
                </g>
                <g id="Group-2-Copy-6" transform="translate(548.000000, 327.000000)">
                    <use id="Combined-Shape" stroke="#B9B9B9" mask="url(#mask-34)" stroke-width="4" fill="#EAEAEA" xlink:href="#path-33"></use>
                    <text id="Help-Section" font-family="Roboto-Regular, Roboto" font-size="12" font-weight="normal" fill="#333333">
                        <tspan x="21.625" y="28">Help</tspan>
                        <tspan x="13.4951172" y="44">Section</tspan>
                    </text>
                </g>
                <g id="Group-2-Copy-7" transform="translate(536.000000, 171.000000)">
                    <use id="Combined-Shape" stroke="#B9B9B9" mask="url(#mask-36)" stroke-width="4" fill="#EAEAEA" xlink:href="#path-35"></use>
                    <text id="Editable-Info-Sectio" font-family="Roboto-Regular, Roboto" font-size="10" font-weight="normal" fill="#333333">
                        <tspan x="15.7993164" y="22">Editable</tspan>
                        <tspan x="25.1767578" y="35">Info</tspan>
                        <tspan x="14.2978516" y="48">Sections</tspan>
                    </text>
                </g>
                <g id="Group-2-Copy-8" transform="translate(692.000000, 248.000000)">
                    <use id="Combined-Shape" stroke="#B9B9B9" mask="url(#mask-38)" stroke-width="4" fill="#EAEAEA" xlink:href="#path-37"></use>
                    <text id="List-of-Related-Obje" font-family="Roboto-Regular, Roboto" font-size="10" font-weight="normal" fill="#333333">
                        <tspan x="19.8862305" y="22">List of</tspan>
                        <tspan x="16.8198242" y="35">Related</tspan>
                        <tspan x="16.8149414" y="48">Objects</tspan>
                    </text>
                </g>
                <g id="Group-2-Copy-4" transform="translate(187.000000, 477.000000)">
                    <use id="Combined-Shape" stroke="#B9B9B9" mask="url(#mask-40)" stroke-width="4" fill="#EAEAEA" xlink:href="#path-39"></use>
                    <text id="Configuration-&amp;-Sett" font-family="Roboto-Regular, Roboto" font-size="12" font-weight="normal" fill="#333333">
                        <tspan x="9.95800781" y="40">Configuration</tspan>
                        <tspan x="18.7382812" y="56">&amp; Settings</tspan>
                    </text>
                </g>
                <g id="Group-4" transform="translate(754.000000, 317.000000)">
                    <g id="Group-3" stroke="#D9B6FF" stroke-width="4">
                        <use id="Rectangle" mask="url(#mask-42)" fill="#EEDDFF" xlink:href="#path-41"></use>
                        <use id="Rectangle-Copy" mask="url(#mask-44)" fill="#F7EEFF" xlink:href="#path-43"></use>
                    </g>
                    <text id="Popover-Create-(simp" font-family="Roboto-Regular, Roboto" font-size="10" font-weight="normal" fill="#333333">
                        <tspan x="20.9990234" y="22">Popover</tspan>
                        <tspan x="24.9003906" y="35">Create</tspan>
                        <tspan x="5.92822266" y="48">(simple object)</tspan>
                    </text>
                </g>
                <g id="Group-4-Copy" transform="translate(8.000000, 347.000000)">
                    <g id="Group-3" stroke="#D9B6FF" stroke-width="4">
                        <use id="Rectangle" mask="url(#mask-46)" fill="#EEDDFF" xlink:href="#path-45"></use>
                        <use id="Rectangle-Copy" mask="url(#mask-48)" fill="#F7EEFF" xlink:href="#path-47"></use>
                    </g>
                    <text id="Popover-Create-(simp" font-family="Roboto-Regular, Roboto" font-size="10" font-weight="normal" fill="#333333">
                        <tspan x="20.9990234" y="22">Popover</tspan>
                        <tspan x="24.9003906" y="35">Create</tspan>
                        <tspan x="5.92822266" y="48">(simple object)</tspan>
                    </text>
                </g>
                <g id="Group-6" transform="translate(280.000000, 0.000000)">
                    <g id="Group-5" stroke="#D9B6FF" stroke-width="4">
                        <use id="Rectangle" mask="url(#mask-50)" fill="#EEDDFF" transform="translate(23.500000, 27.000000) scale(-1, 1) rotate(-90.000000) translate(-23.500000, -27.000000) " xlink:href="#path-49"></use>
                        <use id="Rectangle-Copy" mask="url(#mask-52)" fill="#F7EEFF" transform="translate(41.000000, 6.000000) scale(-1, 1) rotate(-90.000000) translate(-41.000000, -6.000000) " xlink:href="#path-51"></use>
                    </g>
                    <text id="Action-X" font-family="Roboto-Regular, Roboto" font-size="12" font-weight="normal" line-spacing="16" fill="#333333">
                        <tspan x="6.02441406" y="26">Action</tspan>
                        <tspan x="19.7060547" y="42">X</tspan>
                    </text>
                </g>
                <g id="Group-6-Copy" transform="translate(352.000000, 0.000000)">
                    <g id="Group-5" stroke="#D9B6FF" stroke-width="4">
                        <use id="Rectangle" mask="url(#mask-54)" fill="#EEDDFF" transform="translate(23.500000, 27.000000) scale(-1, 1) rotate(-90.000000) translate(-23.500000, -27.000000) " xlink:href="#path-53"></use>
                        <use id="Rectangle-Copy" mask="url(#mask-56)" fill="#F7EEFF" transform="translate(41.000000, 6.000000) scale(-1, 1) rotate(-90.000000) translate(-41.000000, -6.000000) " xlink:href="#path-55"></use>
                    </g>
                    <text id="Action-Y" font-family="Roboto-Regular, Roboto" font-size="12" font-weight="normal" line-spacing="16" fill="#333333">
                        <tspan x="6.02441406" y="26">Action</tspan>
                        <tspan x="19.8378906" y="42">Y</tspan>
                    </text>
                </g>
                <g id="Group-6-Copy-2" transform="translate(424.000000, 0.000000)">
                    <g id="Group-5" stroke="#D9B6FF" stroke-width="4">
                        <use id="Rectangle" mask="url(#mask-58)" fill="#EEDDFF" transform="translate(23.500000, 27.000000) scale(-1, 1) rotate(-90.000000) translate(-23.500000, -27.000000) " xlink:href="#path-57"></use>
                        <use id="Rectangle-Copy" mask="url(#mask-60)" fill="#F7EEFF" transform="translate(41.000000, 6.000000) scale(-1, 1) rotate(-90.000000) translate(-41.000000, -6.000000) " xlink:href="#path-59"></use>
                    </g>
                    <text id="Action-Z" font-family="Roboto-Regular, Roboto" font-size="12" font-weight="normal" line-spacing="16" fill="#333333">
                        <tspan x="6.02441406" y="26">Action</tspan>
                        <tspan x="19.9111328" y="42">Z</tspan>
                    </text>
                </g>
                <g id="Group-6-Copy-3" transform="translate(770.000000, 119.000000)">
                    <g id="Group-5" stroke="#D9B6FF" stroke-width="4">
                        <use id="Rectangle" mask="url(#mask-62)" fill="#EEDDFF" transform="translate(23.500000, 27.000000) scale(-1, 1) rotate(-90.000000) translate(-23.500000, -27.000000) " xlink:href="#path-61"></use>
                        <use id="Rectangle-Copy" mask="url(#mask-64)" fill="#F7EEFF" transform="translate(41.000000, 6.000000) scale(-1, 1) rotate(-90.000000) translate(-41.000000, -6.000000) " xlink:href="#path-63"></use>
                    </g>
                    <text id="Action-Z" font-family="Roboto-Regular, Roboto" font-size="12" font-weight="normal" line-spacing="16" fill="#333333">
                        <tspan x="6.02441406" y="26">Action</tspan>
                        <tspan x="19.9111328" y="42">Z</tspan>
                    </text>
                </g>
                <g id="Group-6-Copy-4" transform="translate(825.000000, 172.000000)">
                    <g id="Group-5" stroke="#D9B6FF" stroke-width="4">
                        <use id="Rectangle" mask="url(#mask-66)" fill="#EEDDFF" transform="translate(23.500000, 27.000000) scale(-1, 1) rotate(-90.000000) translate(-23.500000, -27.000000) " xlink:href="#path-65"></use>
                        <use id="Rectangle-Copy" mask="url(#mask-68)" fill="#F7EEFF" transform="translate(41.000000, 6.000000) scale(-1, 1) rotate(-90.000000) translate(-41.000000, -6.000000) " xlink:href="#path-67"></use>
                    </g>
                    <text id="Action-Z" font-family="Roboto-Regular, Roboto" font-size="12" font-weight="normal" line-spacing="16" fill="#333333">
                        <tspan x="6.02441406" y="26">Action</tspan>
                        <tspan x="19.9111328" y="42">Z</tspan>
                    </text>
                </g>
                <g id="Group-6-Copy-5" transform="translate(814.000000, 239.000000)">
                    <g id="Group-5" stroke="#D9B6FF" stroke-width="4">
                        <use id="Rectangle" mask="url(#mask-70)" fill="#EEDDFF" transform="translate(23.500000, 27.000000) scale(-1, 1) rotate(-90.000000) translate(-23.500000, -27.000000) " xlink:href="#path-69"></use>
                        <use id="Rectangle-Copy" mask="url(#mask-72)" fill="#F7EEFF" transform="translate(41.000000, 6.000000) scale(-1, 1) rotate(-90.000000) translate(-41.000000, -6.000000) " xlink:href="#path-71"></use>
                    </g>
                    <text id="Action-Z" font-family="Roboto-Regular, Roboto" font-size="12" font-weight="normal" line-spacing="16" fill="#333333">
                        <tspan x="6.02441406" y="26">Action</tspan>
                        <tspan x="19.9111328" y="42">Z</tspan>
                    </text>
                </g>
                <g id="Group-7" transform="translate(232.000000, 383.000000)">
                    <polygon id="Page-1" stroke="#C1E2B6" stroke-width="2" fill="#E3F9EB" points="72.000597 0.000475073907 64.7152488 8.72401969 54.6426706 1.46845345 50.5675835 11.1516474 38.2945606 5.78449989 37.6651311 15.8667559 23.9046758 12.7003883 26.7601366 22.5938024 12.3105498 21.8123058 18.4820296 30.9432263 4.18425644 32.5929205 13.3169548 40.4292646 0 44.4127593 11.5600106 50.5008314 0 56.5877158 13.3169548 60.5712105 4.18425644 68.4075546 18.4820296 70.0572488 12.3105498 79.1881692 26.7601366 78.4066727 23.9046758 88.3000868 37.6651311 85.1337192 38.2945606 95.2147875 50.5675835 89.8488277 54.6426706 99.5320216 64.7152488 92.2764554 72.000597 101 79.2842395 92.2764554 89.3568177 99.5320216 93.4319048 89.8488277 105.704928 95.2147875 106.334357 85.1337192 120.094812 88.3000868 117.241057 78.4066727 131.690644 79.1881692 125.517459 70.0572488 139.816938 68.4075546 130.684239 60.5712105 143.999488 56.5877158 132.441183 50.5008314 143.999488 44.4127593 130.684239 40.4292646 139.816938 32.5929205 125.517459 30.9432263 131.690644 21.8123058 117.241057 22.5938024 120.094812 12.7003883 106.334357 15.8667559 105.704928 5.78449989 93.4319048 11.1516474 89.3568177 1.46845345 79.2842395 8.72401969"></polygon>
                    <text id="(complex-objects)" font-family="Roboto-Regular, Roboto" font-size="10" font-weight="normal" fill="#333333">
                        <tspan x="33.6777344" y="67">(complex objects)</tspan>
                    </text>
                    <text id="Create-View" font-family="Roboto-Medium, Roboto" font-size="16" font-weight="400" fill="#333333">
                        <tspan x="30.6875" y="53">Create View</tspan>
                    </text>
                </g>
                <g id="Group-8" transform="translate(435.000000, 215.000000)">
                    <use id="Oval-Copy" stroke="#B9B9B9" mask="url(#mask-74)" stroke-width="4" fill="#EAEAEA" xlink:href="#path-73"></use>
                    <text id="Detail-View" font-family="Roboto-Medium, Roboto" font-size="16" font-weight="400" fill="#333333">
                        <tspan x="20.3710938" y="65">Detail View</tspan>
                    </text>
                </g>
                <g id="Group-9" transform="translate(69.000000, 210.000000)">
                    <use id="Oval" stroke="#B9B9B9" mask="url(#mask-76)" stroke-width="4" fill="#EAEAEA" xlink:href="#path-75"></use>
                    <text id="List-View" font-family="Roboto-Medium, Roboto" font-size="16" font-weight="400" fill="#333333">
                        <tspan x="37.3007812" y="74">List View</tspan>
                    </text>
                </g>
                <g id="Group-10" transform="translate(637.000000, 322.000000)">
                    <use id="Combined-Shape" stroke="#E8B9E1" mask="url(#mask-78)" stroke-width="4" fill="#FFE6FD" xlink:href="#path-77"></use>
                    <text id="Help-Article-3" font-family="Roboto-Regular, Roboto" font-size="10" font-weight="normal" line-spacing="12" fill="#333333">
                        <tspan x="11.2260742" y="16">Help</tspan>
                        <tspan x="7" y="28">Article</tspan>
                        <tspan x="18.7236328" y="40">3</tspan>
                    </text>
                </g>
                <g id="Group-10-Copy-5" transform="translate(398.000000, 486.000000)">
                    <use id="Combined-Shape" stroke="#E8B9E1" mask="url(#mask-80)" stroke-width="4" fill="#FFE6FD" xlink:href="#path-79"></use>
                    <text id="Help-Article-3" font-family="Roboto-Regular, Roboto" font-size="10" font-weight="normal" line-spacing="12" fill="#333333">
                        <tspan x="11.2260742" y="16">Help</tspan>
                        <tspan x="7" y="28">Article</tspan>
                        <tspan x="18.7236328" y="40">3</tspan>
                    </text>
                </g>
                <g id="Group-10-Copy" transform="translate(629.000000, 383.000000)">
                    <use id="Combined-Shape" stroke="#E8B9E1" mask="url(#mask-82)" stroke-width="4" fill="#FFE6FD" xlink:href="#path-81"></use>
                    <text id="Help-Article-2" font-family="Roboto-Regular, Roboto" font-size="10" font-weight="normal" line-spacing="12" fill="#333333">
                        <tspan x="11.2260742" y="16">Help</tspan>
                        <tspan x="7" y="28">Article</tspan>
                        <tspan x="18.7236328" y="40">2</tspan>
                    </text>
                </g>
                <g id="Group-10-Copy-4" transform="translate(368.000000, 549.000000)">
                    <use id="Combined-Shape" stroke="#E8B9E1" mask="url(#mask-84)" stroke-width="4" fill="#FFE6FD" xlink:href="#path-83"></use>
                    <text id="Help-Article-2" font-family="Roboto-Regular, Roboto" font-size="10" font-weight="normal" line-spacing="12" fill="#333333">
                        <tspan x="11.2260742" y="16">Help</tspan>
                        <tspan x="7" y="28">Article</tspan>
                        <tspan x="18.7236328" y="40">2</tspan>
                    </text>
                </g>
                <g id="Group-10-Copy-2" transform="translate(567.000000, 406.000000)">
                    <use id="Combined-Shape" stroke="#E8B9E1" mask="url(#mask-86)" stroke-width="4" fill="#FFE6FD" xlink:href="#path-85"></use>
                    <text id="Help-Article-1" font-family="Roboto-Regular, Roboto" font-size="10" font-weight="normal" line-spacing="12" fill="#333333">
                        <tspan x="11.2260742" y="16">Help</tspan>
                        <tspan x="7" y="28">Article</tspan>
                        <tspan x="18.7236328" y="40">1</tspan>
                    </text>
                </g>
                <g id="Group-10-Copy-3" transform="translate(302.000000, 549.000000)">
                    <use id="Combined-Shape" stroke="#E8B9E1" mask="url(#mask-88)" stroke-width="4" fill="#FFE6FD" xlink:href="#path-87"></use>
                    <text id="Help-Article-1" font-family="Roboto-Regular, Roboto" font-size="10" font-weight="normal" line-spacing="12" fill="#333333">
                        <tspan x="11.2260742" y="16">Help</tspan>
                        <tspan x="7" y="28">Article</tspan>
                        <tspan x="18.7236328" y="40">1</tspan>
                    </text>
                </g>
            </g>
        </g>
    </g>
</svg>