<?xml version="1.0" encoding="UTF-8" standalone="no"?>
<svg width="16px" height="16px" viewBox="0 0 16 16" version="1.1" xmlns="http://www.w3.org/2000/svg" xmlns:xlink="http://www.w3.org/1999/xlink">
    <!-- Generator: Sketch 41.2 (35397) - http://www.bohemiancoding.com/sketch -->
    <title>Artboard</title>
    <desc>Created with Sketch.</desc>
    <defs></defs>
    <g id="Page-1" stroke="none" stroke-width="1" fill="none" fill-rule="evenodd">
        <g id="Artboard" fill="#616161">
            <path d="M15,8 C15.033,7.998 15.135,8.493 15.025,9.364 C14.921,10.227 14.54,11.476 13.597,12.693 C12.66,13.894 11.092,15.005 9.152,15.343 C7.235,15.703 5.004,15.233 3.315,13.923 C1.601,12.649 0.53,10.578 0.374,8.553 C0.187,6.522 0.871,4.587 1.891,3.282 C2.898,1.951 4.143,1.181 5.076,0.802 C6.016,0.411 6.645,0.345 6.727,0.325 C7.437,0.193 8.015,0.585 8,1 C7.989,1.454 7.525,1.772 6.984,1.879 C6.917,1.895 6.416,1.936 5.657,2.232 C4.903,2.516 3.887,3.111 3.039,4.17 C2.18,5.209 1.575,6.765 1.677,8.46 C1.755,10.14 2.582,11.909 4.007,13.05 C5.405,14.217 7.308,14.711 9.017,14.473 C10.736,14.255 12.198,13.343 13.127,12.299 C14.061,11.243 14.517,10.111 14.714,9.303 C14.917,8.491 14.925,7.998 15,8" id="Fill-2"></path>
        </g>
    </g>
</svg>