<?xml version="1.0" encoding="UTF-8" standalone="no"?>
<svg width="116px" height="26px" viewBox="0 0 116 26" version="1.1" xmlns="http://www.w3.org/2000/svg" xmlns:xlink="http://www.w3.org/1999/xlink">
    <!-- Generator: Sketch 41.2 (35397) - http://www.bohemiancoding.com/sketch -->
    <title>logo-rackspace-white copy</title>
    <desc>Created with Sketch.</desc>
    <defs></defs>
    <g id="Symbols" stroke="none" stroke-width="1" fill="none" fill-rule="evenodd">
        <g id="logo-rackspace-white-copy" fill="#FFFFFF">
            <path d="M17.9172927,3.21135012 L17.9172927,3.21135012 L17.9172927,3.21135012 C17.5277863,4.37207908 16.8266749,5.68757191 16.164514,6.693537 C14.7233405,8.78284913 12.6979074,10.1370329 11.6072896,9.63405037 C10.5166718,9.16975879 10.7893262,7.08044666 12.1915491,4.99113453 C12.5031542,4.52684294 12.85371,4.10124233 13.2432163,3.71433267 L13.2432163,3.71433267 C13.2432163,3.71433267 13.2432163,3.71433267 13.2042657,3.71433267 L13.2042657,3.71433267 C12.7758087,3.7917146 12.3084011,3.86909653 11.8409934,3.98516943 L11.8409934,3.98516943 C7.01111452,9.8275052 4.98568144,17.4496254 5.25833589,24.2592353 L5.25833589,24.2592353 L5.25833589,24.2592353 C2.41493945,23.1371973 0.350555726,20.3901387 0.116851909,16.9466428 L0.116851909,16.9079519 C-0.233703817,10.7947793 4.67407635,4.48815198 11.1009313,2.9018224 C13.5937721,2.24407599 15.9697609,2.43753082 17.9172927,3.21135012 L17.9172927,3.21135012 Z M12.3084011,6.693537 C11.8409934,7.66081114 12.0357466,8.43463044 12.7368581,8.47332141 C13.4379695,8.47332141 14.3727848,7.6995021 14.8012418,6.73222797 C15.2686494,5.76495384 15.0738962,4.95244356 14.4117354,4.95244356 C13.710624,4.95244356 12.7758087,5.72626287 12.3084011,6.693537 L12.3084011,6.693537 Z" id="Shape"></path>
            <path d="M16.0866128,19.7323923 C15.6192051,20.04192 15.1517975,20.3514478 14.6064886,20.6222845 L14.6064886,20.6222845 C14.6064886,20.6222845 14.6064886,20.6222845 14.567538,20.6222845 C14.4896367,19.1520278 14.139081,17.7204621 13.5937721,16.5210422 C12.1136479,13.348383 9.54290588,13.1162373 7.82907789,15.9793687 C6.77741071,17.7204621 6.31000307,20.2353749 6.42685498,22.6729057 L6.42685498,22.6729057 C8.21858425,23.2145792 10.3219186,23.2919611 12.5031542,22.7502876 C18.9300092,21.1252671 23.8377894,14.8573307 23.4872337,8.74415817 C23.1756286,3.36611398 18.8910586,-0.116072896 13.5158708,0.193454827 L13.5158708,0.193454827 C13.0095125,0.735128341 12.5031542,1.23811089 12.0357466,1.77978441 L12.0357466,1.77978441 L12.0357466,1.77978441 L12.0357466,1.77978441 C15.1907481,1.39287475 17.7225395,2.0119302 19.3584662,3.32742302 L19.3584662,3.32742302 L19.3584662,3.32742302 C13.8274759,11.3751438 14.5285873,15.9019868 16.0866128,19.7323923 L16.0866128,19.7323923 L16.0866128,19.7323923 L16.0866128,19.7323923 Z" id="Shape"></path>
            <path d="M89.3917102,21.8217045 L89.3917102,21.8217045 L89.6643646,20.4288297 C89.6643646,20.3901387 89.6643646,20.3901387 89.625414,20.3901387 L89.5864634,20.3901387 C89.0022038,21.3961038 87.7947341,22.0538502 86.4704125,22.0538502 C84.2891768,22.0538502 83.3154109,20.1579929 83.3154109,18.2234447 C83.3154109,16.0567506 84.1723249,13.8900566 85.6134985,12.4584908 C86.8209682,11.2590709 88.3789936,10.6400155 90.1317723,10.6400155 C91.4560939,10.6400155 92.4298598,11.0269251 93.05307,11.7620535 C93.9489346,12.8454005 93.8710334,14.509112 93.6762802,15.7085319 L92.5077611,21.8217045 L92.5077611,21.8217045 L89.3917102,21.8217045 L89.3917102,21.8217045 L89.3917102,21.8217045 Z M88.1842405,13.7352927 C87.3273265,14.5864939 86.6651657,16.2502054 86.6651657,17.5656983 C86.6651657,18.7264272 87.0936227,19.4228646 87.8336847,19.4228646 C89.0022038,19.4228646 90.053871,18.1847537 90.4044267,16.3662783 C90.482328,15.9793687 90.5602293,15.5537681 90.6381306,15.2055494 C90.6770812,14.8573307 90.7160318,14.509112 90.7160318,14.2769662 C90.6770812,13.5031469 90.2875748,13.0775463 89.5475127,13.0775463 C89.0801051,13.1162373 88.6126975,13.348383 88.1842405,13.7352927 L88.1842405,13.7352927 Z" id="Shape"></path>
            <path d="M69.1373793,10.6400155 C70.5006516,10.6400155 71.4744175,10.9495432 71.9418252,11.181689 L71.9418252,11.181689 L71.4744175,13.5805288 L71.4744175,13.5805288 L71.4744175,13.5805288 C70.9291086,13.2710011 69.9942933,12.9614734 68.9815768,12.9614734 C68.1246628,12.9614734 67.5793539,13.3096921 67.5793539,13.8900566 C67.5793539,14.3156572 68.0078109,14.7025668 68.9036755,15.1281674 C70.0721946,15.7085319 71.3575656,16.5597332 71.3575656,18.1073718 C71.3575656,19.1133369 71.0070099,19.9645381 70.3448491,20.6222845 C69.4489844,21.5121767 68.0078109,21.9764683 66.2939829,21.9764683 C64.9696613,21.9764683 63.606389,21.6282496 62.9442282,21.1252671 L62.9442282,21.1252671 L63.4116358,18.6877363 L63.4116358,18.6877363 L63.4116358,18.6877363 C64.1516979,19.1520278 65.5539208,19.6163194 66.605588,19.6163194 C67.4235513,19.6163194 67.9688603,19.2294098 67.9688603,18.6490453 C67.9688603,18.1073718 67.5793539,17.7204621 66.605588,17.2561705 C65.0475625,16.4823512 64.2685498,15.5150771 64.2685498,14.3543481 C64.3075004,12.1876541 66.2550323,10.6400155 69.1373793,10.6400155 L69.1373793,10.6400155 Z" id="Shape"></path>
            <path d="M101.427457,10.6787064 C102.24542,10.6787064 103.102334,10.8334703 103.686594,11.0656161 L103.686594,11.0656161 L103.180235,13.6579108 L103.180235,13.6579108 L103.180235,13.6579108 C102.673877,13.387074 102.089618,13.2323101 101.388506,13.2323101 C99.051468,13.2323101 97.6881957,15.2442403 97.6881957,17.1787886 C97.6881957,18.8038092 98.7788135,19.4228646 99.8304807,19.4228646 C100.765296,19.4228646 101.544309,19.2294098 102.518075,18.7264272 L102.518075,18.7264272 L102.518075,18.7264272 L102.011716,21.3961038 L102.011716,21.3961038 C101.271654,21.7443225 100.103135,21.9764683 98.8956654,21.9764683 C96.0912196,21.9764683 94.2605397,20.2353749 94.2605397,17.4883163 C94.2215891,13.6192198 97.33764,10.6787064 101.427457,10.6787064 L101.427457,10.6787064 Z" id="Shape"></path>
            <path d="M51.0253335,10.6787064 C51.8432968,10.6787064 52.7002108,10.8334703 53.2844704,11.0656161 L53.2844704,11.0656161 L52.7781121,13.6579108 L52.7781121,13.6579108 L52.7781121,13.6579108 C52.2717538,13.387074 51.6874943,13.2323101 50.9863828,13.2323101 C48.6493447,13.2323101 47.2860724,15.2442403 47.2860724,17.1787886 C47.2860724,18.8038092 48.3766902,19.4228646 49.4283574,19.4228646 C50.3631727,19.4228646 51.1421854,19.2294098 52.1159513,18.7264272 L52.1159513,18.7264272 L52.1159513,18.7264272 L51.609593,21.3961038 L51.609593,21.3961038 C50.8695309,21.7443225 49.7010119,21.9764683 48.4935421,21.9764683 C45.6890963,21.9764683 43.8584164,20.2353749 43.8584164,17.4883163 C43.8584164,13.6192198 46.9355167,10.6787064 51.0253335,10.6787064 L51.0253335,10.6787064 Z" id="Shape"></path>
            <path d="M33.5364978,10.6400155 C33.731251,10.6400155 33.9649548,10.6400155 34.159708,10.6787064 L34.159708,10.6787064 L34.159708,10.6787064 L33.5364978,13.8126746 L33.5364978,13.8126746 L33.5364978,13.8126746 C33.4196459,13.7739837 33.2248927,13.7739837 33.0301395,13.7739837 C30.8099533,13.7739837 29.9530393,15.9406777 29.6024835,17.7204621 L28.8234708,21.8990864 C28.8234708,21.8990864 28.8234708,21.8990864 28.7845202,21.8990864 L25.5516174,21.8990864 L25.5516174,21.8990864 L25.5516174,21.8990864 L27.6549517,10.8721613 L27.6549517,10.8721613 L30.4983482,10.8721613 L30.4983482,10.8721613 L30.4983482,10.8721613 L30.1477925,12.7680186 C30.1477925,12.7680186 30.1477925,12.8067095 30.1867431,12.8067095 L30.2256937,12.8067095 C31.0436571,11.4138348 32.2511268,10.6400155 33.5364978,10.6400155 L33.5364978,10.6400155 Z" id="Shape"></path>
            <path d="M39.0285375,21.8217045 L39.0285375,21.8217045 L39.301192,20.4288297 C39.301192,20.3901387 39.301192,20.3901387 39.2622413,20.3901387 L39.2232907,20.3901387 C38.6390312,21.3961038 37.4315614,22.0538502 36.1461904,22.0538502 C33.9649548,22.0538502 32.9911889,20.1579929 32.9911889,18.2234447 C32.9911889,16.0567506 33.8481029,13.8900566 35.2892764,12.4584908 C36.4967462,11.2590709 38.0547716,10.6400155 39.8075502,10.6400155 C41.1318719,10.6400155 42.1056378,11.0269251 42.728848,11.7620535 C43.6247126,12.8454005 43.5468113,14.509112 43.3520581,15.7085319 L42.1835391,21.8217045 L42.1835391,21.8217045 L39.0285375,21.8217045 L39.0285375,21.8217045 L39.0285375,21.8217045 Z M37.8210678,13.7352927 C36.9641538,14.5864939 36.301993,16.2502054 36.301993,17.5656983 C36.301993,18.7264272 36.73045,19.4228646 37.4705121,19.4228646 C38.6390312,19.4228646 39.6906983,18.1847537 40.0412541,16.3662783 C40.1191553,15.9793687 40.1970566,15.5537681 40.2749579,15.2055494 C40.3528592,14.8573307 40.3528592,14.509112 40.3528592,14.2769662 C40.3139085,13.5031469 39.9244022,13.0775463 39.1843401,13.0775463 C38.7169324,13.1162373 38.2495248,13.348383 37.8210678,13.7352927 L37.8210678,13.7352927 Z" id="Shape"></path>
            <path d="M79.5761499,10.6400155 C81.7184349,10.6400155 83.1206578,12.265036 83.1206578,14.8186397 C83.1206578,17.4883163 81.8352868,20.1966839 79.5371992,21.4347948 C77.4338649,22.5568328 75.5642343,22.0538502 74.9410241,21.202649 L74.9410241,21.202649 L74.1620114,25.3425823 L74.1620114,25.3425823 L70.9291086,25.3425823 L70.9291086,25.3425823 L70.9291086,25.3425823 L73.6946038,10.8334703 L73.6946038,10.8334703 L76.5380002,10.8334703 L76.5380002,10.8334703 L76.5380002,10.8334703 L76.2653458,12.303727 L76.2653458,12.3424179 L76.3042964,12.3424179 L76.3042964,12.3424179 C77.1612104,11.2203799 78.3686801,10.6400155 79.5761499,10.6400155 L79.5761499,10.6400155 Z M76.771704,19.6163194 C78.485532,19.6163194 79.7319524,17.2174796 79.7319524,15.0507855 C79.7319524,14.547803 79.6151005,13.2710011 78.4076308,13.2710011 C77.200161,13.2710011 76.1484939,14.6638759 75.7589875,16.753188 C75.6421356,17.4496254 75.2915799,19.6163194 76.771704,19.6163194 L76.771704,19.6163194 Z" id="Shape"></path>
            <path d="M55.3878047,7.04175569 L58.5817569,7.04175569 L58.5817569,7.04175569 L58.5817569,7.04175569 L56.9068796,15.7859139 L56.9068796,15.7859139 L56.9068796,15.7859139 L61.2304002,10.8334703 L61.2304002,10.8334703 L64.7359574,10.8334703 L64.7359574,10.8334703 L64.7359574,10.8334703 L64.7359574,10.8334703 L60.2566343,15.8246048 L62.9831788,21.7056316 L62.9831788,21.7056316 L62.9831788,21.7056316 L62.9831788,21.7056316 L59.5165722,21.7056316 L59.5165722,21.7056316 L56.8679289,15.9019868 L56.8679289,15.9019868 L56.8679289,15.9019868 L55.7383605,21.7056316 L55.7383605,21.7056316 L52.5444083,21.7056316 L52.5444083,21.7056316 L52.5444083,21.7056316 L55.3878047,7.04175569 C55.3488541,7.04175569 55.3488541,7.04175569 55.3878047,7.04175569 L55.3878047,7.04175569 Z" id="Shape"></path>
            <path d="M109.451288,10.6400155 C111.749375,10.6400155 113.26845,11.9555083 113.26845,13.9287475 C113.26845,14.8186397 112.956845,15.592459 112.372586,16.1728235 C111.281968,17.2174796 109.295485,17.6817712 106.179434,17.6043892 L106.140484,17.6043892 L106.140484,17.6430802 C106.140484,17.9526079 106.257336,18.4168995 106.452089,18.6877363 C106.880546,19.2294098 107.620608,19.5002465 108.555423,19.5002465 C109.918695,19.5002465 111.087215,19.1520278 112.372586,18.4555905 L112.372586,18.4555905 L112.372586,18.4555905 L111.866227,21.1252671 L111.866227,21.1252671 C110.308202,21.8990864 108.477522,21.9764683 107.776411,21.9764683 C104.738261,21.9764683 103.024433,20.3127568 103.024433,17.3722434 C103.024433,15.669841 103.647643,14.0061295 104.738261,12.7293276 C105.945731,11.4138348 107.620608,10.6400155 109.451288,10.6400155 L109.451288,10.6400155 Z M110.230301,13.9287475 C110.230301,13.348383 109.762893,13.0001644 109.061781,13.0001644 C107.659559,13.0001644 106.763694,14.1222023 106.52999,15.1668584 L106.52999,15.2055494 L106.52999,15.2055494 L106.52999,15.2055494 L106.568941,15.2055494 C108.477522,15.2055494 109.529189,15.0120946 109.996597,14.5864939 C110.152399,14.4317301 110.230301,14.1995843 110.230301,13.9287475 L110.230301,13.9287475 Z" id="Shape"></path>
            <path d="M114.553821,20.04192 L114.398019,20.04192 L114.359068,20.3514478 L114.320117,20.6609755 L114.47592,20.6609755 L114.514871,20.6609755 L114.670673,20.6609755 C114.709624,20.6609755 114.748574,20.6609755 114.787525,20.6222845 C114.943328,20.5835936 115.021229,20.4675207 115.060179,20.3514478 C115.09913,20.1966839 115.021229,20.119302 114.904377,20.080611 C114.865426,20.080611 114.826476,20.080611 114.787525,20.04192 L114.553821,20.04192 L114.553821,20.04192 L114.553821,20.04192 Z M114.242216,19.8097743 L114.242216,19.8097743 L114.592772,19.8097743 L114.592772,19.8097743 L114.787525,19.8097743 C114.865426,19.8097743 114.904377,19.8097743 114.943328,19.8484652 C115.138081,19.8871562 115.215982,20.04192 115.215982,20.2353749 L115.215982,20.3127568 C115.177031,20.5449026 115.021229,20.6996665 114.787525,20.7770484 L115.021229,21.4347948 L115.021229,21.4347948 L115.021229,21.4347948 L115.021229,21.4347948 L114.787525,21.4347948 L114.787525,21.4347948 L114.553821,20.8157394 L114.398019,20.8157394 L114.398019,20.8157394 L114.242216,20.8157394 L114.125364,21.4347948 L114.125364,21.4347948 L113.930611,21.4347948 L113.930611,21.4347948 L113.930611,21.4347948 L114.047463,20.8157394 L114.047463,20.8157394 L114.125364,20.3127568 L114.242216,19.8097743 L114.242216,19.8097743 Z M113.112648,20.6609755 C113.190549,19.8871562 113.89166,19.2294098 114.670673,19.2294098 C115.449686,19.2294098 116.033945,19.8484652 115.956044,20.6609755 C115.878143,21.4347948 115.177031,22.0538502 114.398019,22.0538502 C113.619006,22.0538502 113.034746,21.4347948 113.112648,20.6609755 L113.112648,20.6609755 Z M113.307401,20.6609755 C113.2295,21.3187219 113.735858,21.8603954 114.398019,21.8603954 C115.09913,21.8603954 115.68339,21.3187219 115.761291,20.6222845 C115.839192,19.9645381 115.332834,19.4228646 114.670673,19.4228646 C113.969562,19.4228646 113.385302,20.0032291 113.307401,20.6609755 L113.307401,20.6609755 Z" id="Shape"></path>
        </g>
    </g>
</svg>